# Blender 4.3.2
# www.blender.org
o slope60
v 41.808395 -15.269713 -22.679216
v 41.808395 -14.769713 -23.545242
v 41.808395 -10.439586 -21.045242
v 36.808395 -15.269713 -22.679218
v 36.808395 -14.769713 -23.545244
v 36.808395 -10.439586 -21.045244
v 41.808395 -10.439587 -18.045242
v 36.808395 -10.439587 -18.045244
v 41.808395 -11.439587 -18.602463
v 36.808395 -11.439587 -18.602465
v 41.808395 -11.438737 -20.467402
v 36.808395 -11.438737 -20.467403
v 41.808395 -10.938737 -21.333427
v 36.808395 -10.938737 -21.333429
v 41.808392 -16.439587 -13.045242
v 36.808392 -16.439587 -13.045244
v 41.808392 -17.439587 -13.524254
v 36.808392 -17.439587 -13.524255
vn 1.0000 -0.0000 -0.0000
vn -0.0000 1.0000 -0.0000
vn -1.0000 -0.0000 -0.0000
vn -0.0000 -0.8660 -0.5000
vn -0.0000 -0.5000 0.8660
vn -0.0000 0.5000 -0.8660
vn -0.0000 -1.0000 -0.0005
vn -0.0000 -0.4320 0.9019
vn -0.0000 0.6402 0.7682
vn -0.0000 -0.6460 -0.7633
vt 0.875000 0.500000
vt 0.625000 0.221181
vt 0.625000 0.500000
vt 0.625000 0.528818
vt 0.375000 0.750000
vt 0.375000 0.528818
vt 0.625000 0.750000
vt 0.375000 1.000000
vt 0.125000 0.750000
vt 0.125000 0.528818
vt 0.875000 0.528818
vt 0.625000 0.000000
vt 0.375000 0.221181
vt 0.375000 0.000000
vt 0.625000 1.000000
vt 0.875000 0.750000
s 0
f 7/1/1 11/1/1 13/2/1
f 6/3/2 7/1/2 3/1/2
f 14/4/3 4/5/3 12/6/3
f 5/7/4 1/8/4 4/5/4
f 12/6/5 1/9/5 11/10/5
f 13/11/6 5/7/6 14/4/6
f 9/1/1 15/1/1 17/1/1
f 10/3/7 11/1/7 9/1/7
f 3/1/6 14/4/6 6/3/6
f 14/4/3 10/3/3 8/3/3
f 2/12/1 11/13/1 1/14/1
f 16/3/8 17/1/8 15/1/8
f 8/3/9 15/1/9 7/1/9
f 10/3/3 16/3/3 8/3/3
f 9/1/10 18/3/10 10/3/10
f 13/2/1 3/1/1 7/1/1
f 7/1/1 9/1/1 11/1/1
f 6/3/2 8/3/2 7/1/2
f 14/4/3 5/7/3 4/5/3
f 5/7/4 2/15/4 1/8/4
f 12/6/5 4/5/5 1/9/5
f 13/11/6 2/16/6 5/7/6
f 9/1/1 7/1/1 15/1/1
f 10/3/7 12/3/7 11/1/7
f 3/1/6 13/11/6 14/4/6
f 8/3/3 6/3/3 14/4/3
f 14/4/3 12/6/3 10/3/3
f 2/12/1 13/2/1 11/13/1
f 16/3/8 18/3/8 17/1/8
f 8/3/9 16/3/9 15/1/9
f 10/3/3 18/3/3 16/3/3
f 9/1/10 17/1/10 18/3/10
