# Blender 4.3.2
# www.blender.org
o slope25
v 41.808395 -17.801712 -27.762146
v 41.808395 -16.895405 -28.184763
v 41.808395 -15.688622 -23.230606
v 41.808395 -14.782313 -23.653225
v 36.808395 -17.801712 -27.762146
v 36.808395 -16.895405 -28.184765
v 36.808395 -15.688622 -23.230608
v 36.808395 -14.782313 -23.653225
vn 1.0000 -0.0000 -0.0000
vn -0.0000 0.4226 0.9063
vn -1.0000 -0.0000 -0.0000
vn -0.0000 -0.4226 -0.9063
vn -0.0000 -0.9063 0.4226
vn -0.0000 0.9063 -0.4226
vt 0.625000 0.000000
vt 0.375000 0.250000
vt 0.375000 0.000000
vt 0.625000 0.250000
vt 0.375000 0.500000
vt 0.625000 0.500000
vt 0.375000 0.750000
vt 0.625000 0.750000
vt 0.375000 1.000000
vt 0.125000 0.750000
vt 0.125000 0.500000
vt 0.875000 0.500000
vt 0.625000 1.000000
vt 0.875000 0.750000
s 0
f 2/1/1 3/2/1 1/3/1
f 4/4/2 7/5/2 3/2/2
f 8/6/3 5/7/3 7/5/3
f 6/8/4 1/9/4 5/7/4
f 7/5/5 1/10/5 3/11/5
f 4/12/6 6/8/6 8/6/6
f 2/1/1 4/4/1 3/2/1
f 4/4/2 8/6/2 7/5/2
f 8/6/3 6/8/3 5/7/3
f 6/8/4 2/13/4 1/9/4
f 7/5/5 5/7/5 1/10/5
f 4/12/6 2/14/6 6/8/6
