# Blender 4.3.2
# www.blender.org
o stairs
v 18.615669 -19.657122 -42.361206
v 18.615669 -18.657122 -42.361206
v 28.615669 -19.657122 -42.361206
v 18.615669 -19.657122 -32.361206
v 18.615669 -18.657122 -32.361206
v 28.615669 -19.657122 -32.361206
v 23.615669 -19.657122 -42.361206
v 23.615669 -18.657122 -42.361206
v 23.615669 -19.657122 -32.361206
v 23.615669 -18.657122 -32.361206
v 23.615669 -18.257122 -42.361206
v 28.615669 -18.257122 -42.361206
v 28.615669 -18.257122 -32.361206
v 23.615669 -18.257122 -32.361206
v 28.615669 -18.057121 -42.361206
v 28.615669 -18.057121 -32.361206
v 28.615669 -18.257122 -32.361206
v 28.615669 -19.657122 -42.361206
v 28.615669 -18.257122 -42.361206
v 28.615669 -19.657122 -32.361206
v 29.615669 -18.057121 -32.361206
v 29.615669 -18.057121 -42.361206
v 29.615669 -17.857122 -32.361206
v 29.615669 -17.857122 -42.361206
v 30.615669 -17.857122 -32.361206
v 30.615669 -17.857122 -42.361206
v 30.615669 -17.657122 -32.361206
v 30.615669 -17.657122 -42.361206
v 31.615669 -17.657122 -32.361206
v 31.615669 -17.657122 -42.361206
v 31.615669 -17.457121 -32.361206
v 31.615669 -17.457121 -42.361206
v 32.615669 -17.457121 -32.361206
v 32.615669 -17.457121 -42.361206
v 32.615669 -17.257122 -32.361206
v 32.615669 -17.257122 -42.361206
v 33.615669 -17.257122 -32.361206
v 33.615669 -17.257122 -42.361206
v 33.615669 -17.057121 -32.361206
v 33.615669 -17.057121 -42.361206
v 34.615669 -17.057121 -32.361206
v 34.615669 -17.057121 -42.361206
v 34.615669 -16.857121 -32.361206
v 34.615669 -16.857121 -42.361206
v 41.821526 -16.857121 -32.361206
v 41.821526 -16.857121 -42.361206
v 41.821526 -19.657122 -32.361206
v 41.821526 -19.657122 -42.361206
vn -0.0000 -0.0000 -1.0000
vn -0.0000 -0.0000 1.0000
vn -1.0000 -0.0000 -0.0000
vn -0.0000 -1.0000 -0.0000
vn -0.0000 1.0000 -0.0000
vn 1.0000 -0.0000 -0.0000
vt 0.625000 0.250000
vt 0.375000 0.250000
vt 0.375000 0.125000
vt 0.625000 0.625000
vt 0.375000 0.750000
vt 0.375000 0.625000
vt 0.625000 0.750000
vt 0.375000 1.000000
vt 0.125000 0.750000
vt 0.125000 0.625000
vt 0.875000 0.625000
vt 0.375000 0.500000
vt 0.125000 0.500000
vt 0.625000 0.500000
vt 0.625000 0.000000
vt 0.375000 0.000000
vt 0.875000 0.500000
vt 0.625000 0.125000
vt 0.625000 1.000000
vt 0.875000 0.750000
s 0
f 19/1/1 3/2/1 7/3/1
f 10/4/2 4/5/2 9/6/2
f 5/7/3 1/8/3 4/5/3
f 9/6/4 1/9/4 7/10/4
f 8/11/5 5/7/5 10/4/5
f 6/12/4 7/10/4 3/13/4
f 20/12/2 13/14/2 14/4/2
f 2/15/1 7/3/1 1/16/1
f 12/17/5 14/4/5 13/14/5
f 10/4/3 11/11/3 8/11/3
f 21/14/2 16/14/2 17/14/2
f 47/14/4 18/13/4 48/17/4
f 21/14/3 24/17/3 22/17/3
f 13/14/3 15/17/3 12/17/3
f 23/14/5 26/17/5 24/17/5
f 16/14/5 22/17/5 15/17/5
f 19/1/1 15/17/1 22/17/1
f 6/12/5 18/13/5 20/12/5
f 25/14/3 28/17/3 26/17/3
f 27/14/5 30/17/5 28/17/5
f 29/14/3 32/17/3 30/17/3
f 31/14/5 34/17/5 32/17/5
f 33/14/3 36/17/3 34/17/3
f 35/14/5 38/17/5 36/17/5
f 37/14/3 40/17/3 38/17/3
f 39/14/5 42/17/5 40/17/5
f 41/14/3 44/17/3 42/17/3
f 44/17/5 45/14/5 46/17/5
f 45/14/6 48/17/6 46/17/6
f 7/3/5 8/18/5 11/18/5
f 11/18/5 12/1/5 19/1/5
f 7/3/1 11/18/1 19/1/1
f 19/1/5 18/2/5 3/2/5
f 10/4/2 5/7/2 4/5/2
f 5/7/3 2/19/3 1/8/3
f 9/6/4 4/5/4 1/9/4
f 8/11/5 2/20/5 5/7/5
f 6/12/4 9/6/4 7/10/4
f 14/4/5 10/4/5 9/6/5
f 9/6/5 6/12/5 20/12/5
f 14/4/2 9/6/2 20/12/2
f 20/12/5 17/14/5 13/14/5
f 2/15/1 8/18/1 7/3/1
f 12/17/5 11/11/5 14/4/5
f 10/4/3 14/4/3 11/11/3
f 20/12/2 47/14/2 45/14/2
f 45/14/2 43/14/2 41/14/2
f 41/14/2 39/14/2 37/14/2
f 37/14/2 35/14/2 33/14/2
f 33/14/2 31/14/2 29/14/2
f 29/14/2 27/14/2 25/14/2
f 25/14/2 23/14/2 21/14/2
f 20/12/2 45/14/2 41/14/2
f 20/12/2 41/14/2 37/14/2
f 20/12/2 37/14/2 33/14/2
f 20/12/2 33/14/2 29/14/2
f 20/12/2 29/14/2 25/14/2
f 20/12/2 25/14/2 21/14/2
f 16/14/5 13/14/5 17/14/5
f 17/14/2 20/12/2 21/14/2
f 47/14/4 20/12/4 18/13/4
f 21/14/3 23/14/3 24/17/3
f 13/14/3 16/14/3 15/17/3
f 23/14/5 25/14/5 26/17/5
f 16/14/5 21/14/5 22/17/5
f 22/17/1 24/17/1 26/17/1
f 26/17/1 28/17/1 30/17/1
f 30/17/1 32/17/1 34/17/1
f 34/17/1 36/17/1 38/17/1
f 38/17/1 40/17/1 42/17/1
f 42/17/1 44/17/1 46/17/1
f 46/17/1 48/17/1 18/2/1
f 42/17/1 46/17/1 18/2/1
f 38/17/1 42/17/1 18/2/1
f 34/17/1 38/17/1 18/2/1
f 30/17/1 34/17/1 18/2/1
f 26/17/1 30/17/1 18/2/1
f 22/17/1 26/17/1 18/2/1
f 19/1/5 12/1/5 15/17/5
f 22/17/1 18/2/1 19/1/1
f 6/12/5 3/13/5 18/13/5
f 25/14/3 27/14/3 28/17/3
f 27/14/5 29/14/5 30/17/5
f 29/14/3 31/14/3 32/17/3
f 31/14/5 33/14/5 34/17/5
f 33/14/3 35/14/3 36/17/3
f 35/14/5 37/14/5 38/17/5
f 37/14/3 39/14/3 40/17/3
f 39/14/5 41/14/5 42/17/5
f 41/14/3 43/14/3 44/17/3
f 44/17/5 43/14/5 45/14/5
f 45/14/6 47/14/6 48/17/6
