# Blender 4.3.2
# www.blender.org
o back
v 131.590759 -59.142189 -84.076096
v 131.590759 -59.142189 -80.473038
v 131.590775 -62.642189 -84.076088
v 131.590759 -62.642189 -80.473038
v 131.590759 -21.642189 -103.721008
v 131.590759 -21.642193 -60.828148
v 131.590775 -62.642185 -103.721008
v 131.590759 -62.642189 -60.828140
v 336.590759 -59.327629 -91.425705
v 336.590759 -59.327629 -88.349236
v 336.590759 -62.346184 -91.425705
v 336.590759 -62.346184 -88.349243
v 336.590759 -54.737926 -99.353806
v 336.590759 -54.737926 -80.421143
v 336.590759 -66.935883 -99.353836
v 336.590759 -66.935883 -80.421165
v 382.883728 -59.327629 -91.425705
v 382.883728 -59.327629 -88.349236
v 382.883728 -62.346184 -91.425705
v 382.883728 -62.346184 -88.349243
v 382.883728 -58.368649 -94.991966
v 382.883728 -58.368649 -84.782990
v 382.883728 -63.305161 -94.991982
v 382.883728 -63.305161 -84.783005
v 412.116821 -58.368649 -94.991966
v 412.116821 -58.368649 -84.782990
v 412.116821 -14.737925 -84.782990
v 412.116821 -14.737925 -94.991966
v 412.116821 -24.737925 -94.991966
v 412.116821 -24.737925 -84.782990
vn 1.0000 -0.0000 -0.0000
vt 0.000000 0.000000
s 0
f 7/1/1 1/1/1 3/1/1
f 2/1/1 8/1/1 4/1/1
f 5/1/1 2/1/1 1/1/1
f 11/1/1 13/1/1 9/1/1
f 16/1/1 11/1/1 12/1/1
f 10/1/1 16/1/1 12/1/1
f 9/1/1 14/1/1 10/1/1
f 19/1/1 21/1/1 17/1/1
f 24/1/1 19/1/1 20/1/1
f 18/1/1 24/1/1 20/1/1
f 17/1/1 22/1/1 18/1/1
f 28/1/1 30/1/1 29/1/1
f 29/1/1 26/1/1 25/1/1
f 7/1/1 5/1/1 1/1/1
f 2/1/1 6/1/1 8/1/1
f 5/1/1 6/1/1 2/1/1
f 11/1/1 15/1/1 13/1/1
f 16/1/1 15/1/1 11/1/1
f 10/1/1 14/1/1 16/1/1
f 9/1/1 13/1/1 14/1/1
f 19/1/1 23/1/1 21/1/1
f 24/1/1 23/1/1 19/1/1
f 18/1/1 22/1/1 24/1/1
f 17/1/1 21/1/1 22/1/1
f 28/1/1 27/1/1 30/1/1
f 29/1/1 30/1/1 26/1/1
