# Blender 4.3.2
# www.blender.org
o ceiling
v 24.192942 -18.026890 7.272264
v 24.430925 -18.222675 -1.418945
v 24.192940 -18.026890 -7.272137
v 28.437180 -21.518410 7.272263
v 28.437180 -21.518410 -1.418945
v 31.094986 -18.578871 7.272263
v 31.160294 -18.508955 -1.418945
v 28.437180 -21.518410 -7.272137
v 31.094986 -18.578871 -7.272137
v 22.018816 -16.905600 7.270359
v 22.544096 -16.836649 -1.419419
v 22.015474 -16.867435 -7.273941
v 34.109306 -15.247867 7.272265
v 34.863304 -14.683794 -1.418945
v 34.109314 -15.247867 -7.272137
v 39.094742 -12.421974 7.272261
v 42.099117 -11.370881 7.272263
v 38.615421 -12.620495 -1.418945
v 41.723305 -11.450773 -1.418945
v 45.058559 -10.962724 7.272264
v 45.058556 -10.962729 -1.418945
v 48.727840 -5.382600 7.272264
v 48.751534 -5.353399 -1.418945
v 39.094727 -12.421962 -7.272139
v 42.099106 -11.370870 -7.272137
v 45.058559 -10.962724 -7.272137
v 48.727837 -5.382600 -7.272137
v 48.033817 0.228408 -40.318169
v 35.895309 0.227788 -52.303783
v 34.232471 0.228385 -56.182274
v 33.734509 0.229624 -62.708210
v 41.039169 0.228181 -45.458775
v 37.889874 0.230040 -49.022514
v 44.746212 0.228479 -42.316452
v 46.070869 0.270888 -50.459438
v 39.940796 0.261198 -56.589504
v 39.940792 0.266683 -62.719574
v 49.227604 0.314232 -57.907318
v 47.815498 0.312851 -62.843826
v 34.431442 0.227004 -69.145660
v 36.019264 0.228447 -72.994904
v 39.940800 0.259119 -68.849648
v 37.641804 0.230197 -76.148170
v 49.421520 0.315471 -67.392998
v 46.070866 0.273768 -74.979706
v 40.608883 0.227043 -80.475967
v 44.146126 0.230064 -83.613831
v 47.295685 0.228502 -85.799927
v 52.351032 -1.721017 7.272262
v 52.350983 -1.721048 -1.418945
v 57.732475 -0.074478 7.246789
v 58.263447 0.104121 -1.419402
v 52.351009 -1.721036 -7.272137
v 57.861073 0.110289 -7.272861
v 64.593102 0.441955 7.221631
v 64.459457 0.331282 -1.419221
v 71.339264 0.313957 5.758754
v 70.591133 0.273164 -1.418930
v 64.920914 0.227380 -7.299595
v 69.320503 0.227294 -9.564637
v 72.311615 0.229640 -12.329359
v 51.489487 0.228290 -38.357750
v 59.981674 0.228385 -34.044212
v 57.065823 0.228494 -35.526772
v 71.864388 0.230425 -27.284916
v 63.764740 0.228549 -32.136925
v 64.461067 0.262108 -38.199322
v 68.811966 0.227616 -29.221239
v 70.591125 0.278868 -38.199326
v 75.774940 0.314051 3.467334
v 78.924973 0.312105 1.297590
v 82.456062 0.315322 -1.819770
v 76.721199 0.265765 -7.548996
v 73.598625 0.226807 -15.011094
v 85.409225 0.312098 -6.195780
v 82.851265 0.281795 -13.679068
v 86.952042 0.313659 -9.232363
v 88.353416 0.313957 -13.353631
v 75.187363 0.230613 -19.798315
v 73.838921 0.226956 -24.633244
v 82.851265 0.275353 -19.809134
v 82.851280 0.279049 -25.939203
v 76.721199 0.269092 -32.069271
v 78.172813 0.313094 -40.413963
v 85.134857 0.312254 -33.695599
v 82.040588 0.314907 -37.410851
v 89.458351 0.313965 -19.702440
v 88.809685 0.313957 -26.355612
v 87.077538 0.314412 -30.471483
v 92.963341 -24.198664 -75.270432
v 90.266365 -20.460451 -75.271355
v 90.233704 -20.524324 -81.110847
v 92.866135 -24.442923 -89.810928
v 90.120918 -20.553070 -89.814743
v 52.200939 0.261598 -44.329380
v 54.281616 0.314726 -53.569607
v 58.331001 0.278170 -44.329384
v 59.079433 0.313392 -50.685684
v 50.185204 0.311085 -56.146439
v 66.030449 0.313957 -47.284988
v 63.187363 0.313965 -48.731785
v 71.384727 0.313965 -44.552963
v 50.190174 0.311996 -69.569771
v 53.677094 0.315118 -72.708153
v 58.605370 0.311062 -75.147293
v 52.200935 0.267711 -81.109772
v 51.485302 0.227262 -88.065163
v 58.331005 0.265945 -81.109734
v 57.944366 0.202523 -89.512451
v 65.096352 0.261182 -75.336685
v 71.422615 -2.310268 -75.268753
v 64.624252 0.275212 -81.117775
v 64.928787 0.110014 -89.914673
v 70.714203 -2.067485 -81.114006
v 71.345329 -2.513897 -89.811531
v 75.065239 0.313973 -42.443199
v 78.144165 -7.054914 -75.270729
v 84.592659 -13.459877 -75.271484
v 81.519096 -10.192810 -75.272232
v 74.983177 -4.556580 -75.272484
v 78.157471 -7.179134 -81.111198
v 77.998497 -7.215922 -89.813438
v 84.520607 -13.510200 -81.110550
v 81.468246 -10.264757 -81.110870
v 84.434769 -13.608539 -89.814178
v 81.365059 -10.345575 -89.814949
v 75.087265 -4.731044 -81.111275
v 74.839874 -4.721719 -89.815201
v 87.301102 -16.606550 -75.272614
v 87.148300 -16.579294 -81.110504
v 87.114983 -16.761896 -89.814949
v 119.575943 -74.554337 -79.706490
v 119.575943 -74.554337 -84.843987
v 119.590759 -82.247322 -79.757080
v 119.590759 -82.247322 -84.757072
v 119.575943 -74.554337 -79.706490
v 119.575943 -74.554337 -84.843987
v 119.590752 -82.447319 -79.757080
v 119.590752 -82.447319 -84.757072
v 119.590752 -87.642181 -79.757080
v 119.590752 -87.642181 -84.757072
v 124.590752 -87.642181 -79.757080
v 124.590752 -87.642181 -84.757072
v 129.590759 -57.642185 -84.757072
v 129.590759 -57.642185 -79.757080
v 124.590752 -57.642185 -79.757080
v 124.590752 -57.642185 -84.757072
v 124.590752 -62.642189 -84.757072
v 124.590752 -62.642189 -79.757080
v 131.590759 -57.642185 -84.757072
v 131.590759 -57.642185 -79.757080
v 131.590775 -21.642189 -103.721008
v 131.590759 -21.642191 -60.828148
v 331.590759 -21.642149 -103.721008
v 331.590759 -21.642151 -60.828152
v 336.590759 -54.737926 -99.353806
v 336.590759 -54.737926 -80.421143
v 375.823853 -54.737926 -99.353806
v 375.823853 -54.737926 -80.421143
v 331.590759 -59.327633 -91.425697
v 331.590759 -59.327633 -88.349228
v 336.590759 -59.327633 -91.425697
v 336.590759 -59.327633 -88.349228
v 375.823853 -59.327625 -91.425697
v 375.823853 -59.327625 -88.349228
v 382.883728 -59.327625 -91.425697
v 382.883728 -59.327625 -88.349228
v 382.883728 -58.368649 -94.991966
v 382.883728 -58.368649 -84.782990
v 412.116821 -58.368649 -94.991966
v 412.116821 -58.368649 -84.782990
v 422.116821 -14.737925 -94.991966
v 422.116821 -14.737925 -84.782990
v 412.116821 -14.737925 -84.782990
v 412.116821 -14.737925 -94.991966
v 432.116791 -14.737925 -94.991966
v 432.116791 -14.737925 -84.782990
vn 0.7415 -0.6710 0.0002
vn 0.7415 -0.6710 -0.0003
vn -0.6353 -0.7723 -0.0000
vn 0.3302 -0.9439 -0.0056
vn 0.1366 -0.9906 -0.0000
vn 0.4818 -0.8762 -0.0066
vn 0.3522 -0.9359 -0.0029
vn 0.8355 -0.5494 -0.0000
vn 0.8352 -0.5499 -0.0006
vn 0.4818 -0.8762 0.0097
vn 0.0040 -1.0000 -0.0046
vn 0.0055 -1.0000 -0.0013
vn 0.0057 -1.0000 -0.0009
vn 0.0052 -1.0000 -0.0036
vn 0.0055 -1.0000 -0.0026
vn 0.0055 -1.0000 0.0031
vn 0.0054 -1.0000 0.0022
vn 0.0045 -1.0000 0.0041
vn 0.0057 -1.0000 0.0014
vn 0.0058 -1.0000 0.0012
vn 0.2950 -0.9555 -0.0016
vn -0.0095 -0.9999 0.0067
vn 0.0366 -0.9993 0.0122
vn 0.2949 -0.9553 -0.0213
vn 0.0027 -1.0000 0.0052
vn 0.0167 -0.9997 0.0190
vn 0.0028 -1.0000 -0.0052
vn 0.0027 -1.0000 -0.0052
vn 0.0050 -1.0000 0.0024
vn 0.0057 -1.0000 0.0019
vn 0.0047 -1.0000 0.0039
vn 0.0058 -1.0000 -0.0006
vn 0.0043 -1.0000 -0.0043
vn 0.0059 -1.0000 -0.0006
vn 0.0046 -1.0000 -0.0029
vn 0.0057 -1.0000 -0.0025
vn 0.0030 -1.0000 0.0052
vn 0.0046 -1.0000 0.0033
vn 0.0032 -1.0000 0.0044
vn 0.0031 -1.0000 -0.0047
vn 0.0038 -1.0000 -0.0042
vn 0.0058 -1.0000 0.0011
vn 0.0058 -1.0000 0.0010
vn -0.8140 -0.5806 0.0152
vn -0.8109 -0.5850 0.0109
vn 0.0026 -1.0000 -0.0052
vn -0.0021 -1.0000 0.0076
vn -0.3787 -0.9253 0.0200
vn -0.0122 -0.9998 0.0184
vn -0.0003 -1.0000 0.0076
vn -0.3766 -0.9263 0.0072
vn -0.0077 -1.0000 -0.0018
vn -0.7283 -0.6851 0.0150
vn -0.6817 -0.7315 0.0149
vn -0.7618 -0.6475 0.0165
vn -0.7284 -0.6850 0.0149
vn -0.6817 -0.7315 0.0150
vn -0.6196 -0.7847 0.0168
vn -0.6234 -0.7818 0.0152
vn -0.7578 -0.6523 0.0168
vn -0.5341 -0.8453 0.0143
vn -0.5335 -0.8457 0.0158
vn 0.7103 -0.7039 -0.0000
vn 0.0035 -1.0000 -0.0050
vn 0.0037 -1.0000 -0.0044
vn 0.0043 -1.0000 0.0038
vn 0.0027 -1.0000 0.0055
vn 0.0040 -1.0000 0.0049
vn 0.0027 -1.0000 -0.0053
vn 0.0026 -1.0000 -0.0053
vn 0.0030 -1.0000 -0.0051
vn -0.5920 -0.8059 0.0019
vn -0.4695 -0.8817 0.0470
vn 0.7183 -0.6953 -0.0255
vn -0.7835 -0.6212 0.0122
vn -0.7876 -0.6160 0.0177
vn 0.0029 -1.0000 -0.0052
vn -0.8835 -0.4682 0.0138
vn -1.0000 -0.0019 -0.0000
vn -1.0000 -0.0000 -0.0000
vn -0.0000 -1.0000 -0.0000
vn 1.0000 -0.0000 -0.0000
vn 0.7418 -0.6707 -0.0000
vn 0.3522 -0.9359 0.0020
vn 0.1448 -0.9895 0.0028
vn 0.4931 -0.8699 -0.0137
vn 0.3302 -0.9439 0.0083
vn 0.1448 -0.9895 -0.0042
vn 0.8352 -0.5499 0.0004
vn 0.4930 -0.8698 0.0203
vn 0.0042 -1.0000 -0.0043
vn 0.0058 -1.0000 -0.0009
vn 0.0060 -1.0000 -0.0006
vn 0.0045 -1.0000 -0.0029
vn 0.0056 -1.0000 -0.0025
vn 0.0048 -1.0000 0.0024
vn 0.0057 -1.0000 0.0020
vn 0.0046 -1.0000 0.0039
vn 0.0059 -1.0000 0.0012
vn 0.0060 -1.0000 0.0011
vn 0.2926 -0.9562 -0.0000
vn -0.0161 -0.9998 0.0131
vn 0.0750 -0.9971 -0.0160
vn 0.3154 -0.9490 -0.0000
vn -0.0095 -0.9998 0.0169
vn 0.0366 -0.9993 -0.0036
vn 0.0055 -1.0000 0.0029
vn 0.0057 -1.0000 -0.0008
vn 0.0053 -1.0000 -0.0036
vn 0.0055 -1.0000 -0.0027
vn 0.0028 -1.0000 0.0054
vn 0.0042 -1.0000 0.0037
vn 0.0038 -1.0000 0.0050
vn 0.0034 -1.0000 -0.0050
vn 0.0037 -1.0000 -0.0043
vn -0.8170 -0.5766 0.0125
vn 0.0028 -1.0000 -0.0051
vn -0.0003 -1.0000 0.0058
vn -0.3590 -0.9333 0.0051
vn 0.0015 -1.0000 0.0075
vn 0.0018 -1.0000 0.0053
vn -0.3589 -0.9330 0.0270
vn -0.6808 -0.7323 0.0155
vn -0.7595 -0.6503 0.0148
vn -0.7283 -0.6851 0.0148
vn -0.6809 -0.7323 0.0140
vn -0.6234 -0.7818 0.0147
vn -0.6200 -0.7845 0.0124
vn -0.7595 -0.6503 0.0150
vn -0.5202 -0.8540 0.0061
vn -0.5200 -0.8537 0.0276
vn 0.7108 -0.7034 -0.0004
vn 0.7108 -0.7034 0.0006
vn 0.0032 -1.0000 -0.0047
vn 0.0042 -1.0000 -0.0041
vn 0.0049 -1.0000 0.0033
vn 0.0031 -1.0000 0.0051
vn 0.0033 -1.0000 0.0043
vn 0.0030 -1.0000 -0.0052
vn -0.4581 -0.8882 -0.0347
vn -0.5920 -0.8059 -0.0029
vn 0.7184 -0.6954 0.0172
vn -0.7876 -0.6160 0.0159
vn -0.7925 -0.6098 0.0111
vn 0.0031 -1.0000 -0.0051
vn -0.8825 -0.4704 -0.0000
vt 0.000000 0.000000
s 0
f 6/1/1 5/1/1 7/1/1
f 5/1/2 9/1/2 7/1/2
f 4/1/3 2/1/3 5/1/3
f 2/1/3 8/1/3 5/1/3
f 16/1/4 19/1/4 17/1/4
f 17/1/5 21/1/5 20/1/5
f 16/1/6 14/1/6 18/1/6
f 24/1/7 19/1/7 18/1/7
f 21/1/5 25/1/5 26/1/5
f 21/1/8 22/1/8 20/1/8
f 21/1/9 27/1/9 23/1/9
f 14/1/10 24/1/10 18/1/10
f 32/1/11 35/1/11 34/1/11
f 36/1/12 39/1/12 38/1/12
f 30/1/13 37/1/13 36/1/13
f 35/1/14 36/1/14 38/1/14
f 29/1/15 36/1/15 33/1/15
f 42/1/16 45/1/16 44/1/16
f 42/1/17 41/1/17 43/1/17
f 45/1/18 46/1/18 47/1/18
f 39/1/19 42/1/19 44/1/19
f 37/1/20 40/1/20 42/1/20
f 51/1/21 50/1/21 52/1/21
f 57/1/22 56/1/22 58/1/22
f 55/1/23 52/1/23 56/1/23
f 50/1/24 54/1/24 52/1/24
f 58/1/25 59/1/25 60/1/25
f 56/1/26 54/1/26 59/1/26
f 66/1/27 69/1/27 68/1/27
f 63/1/28 67/1/28 66/1/28
f 73/1/29 76/1/29 75/1/29
f 77/1/30 76/1/30 78/1/30
f 72/1/31 73/1/31 75/1/31
f 79/1/32 82/1/32 81/1/32
f 83/1/33 86/1/33 85/1/33
f 81/1/34 88/1/34 87/1/34
f 82/1/35 83/1/35 85/1/35
f 82/1/36 89/1/36 88/1/36
f 70/1/37 58/1/37 71/1/37
f 73/1/38 61/1/38 74/1/38
f 58/1/39 73/1/39 71/1/39
f 83/1/40 69/1/40 84/1/40
f 65/1/41 83/1/41 80/1/41
f 76/1/42 79/1/42 81/1/42
f 78/1/43 81/1/43 87/1/43
f 92/1/44 93/1/44 90/1/44
f 90/1/45 91/1/45 92/1/45
f 95/1/28 98/1/28 97/1/28
f 97/1/46 101/1/46 100/1/46
f 108/1/47 107/1/47 109/1/47
f 114/1/48 113/1/48 115/1/48
f 112/1/49 109/1/49 113/1/49
f 105/1/50 106/1/50 108/1/50
f 110/1/51 114/1/51 111/1/51
f 105/1/52 112/1/52 110/1/52
f 125/1/53 124/1/53 126/1/53
f 121/1/54 126/1/54 124/1/54
f 130/1/55 125/1/55 131/1/55
f 118/1/56 124/1/56 123/1/56
f 119/1/57 121/1/57 124/1/57
f 122/1/58 127/1/58 128/1/58
f 117/1/59 127/1/59 121/1/59
f 118/1/60 130/1/60 129/1/60
f 127/1/61 115/1/61 128/1/61
f 111/1/62 127/1/62 120/1/62
f 49/1/63 23/1/63 50/1/63
f 23/1/63 53/1/63 50/1/63
f 95/1/64 35/1/64 96/1/64
f 35/1/65 99/1/65 96/1/65
f 103/1/66 45/1/66 104/1/66
f 106/1/67 48/1/67 107/1/67
f 45/1/68 106/1/68 104/1/68
f 62/1/69 97/1/69 64/1/69
f 67/1/28 102/1/28 69/1/28
f 67/1/70 97/1/70 100/1/70
f 69/1/71 116/1/71 84/1/71
f 1/1/72 11/1/72 2/1/72
f 3/1/73 11/1/73 12/1/73
f 7/1/1 13/1/1 6/1/1
f 7/1/74 15/1/74 14/1/74
f 92/1/75 131/1/75 94/1/75
f 92/1/76 129/1/76 130/1/76
f 28/1/77 95/1/77 62/1/77
f 93/1/78 132/1/78 90/1/78
f 135/1/79 136/1/79 137/1/79
f 139/1/80 140/1/80 138/1/80
f 141/1/81 142/1/81 140/1/81
f 147/1/81 145/1/81 146/1/81
f 148/1/82 146/1/82 149/1/82
f 143/1/82 149/1/82 142/1/82
f 144/1/81 151/1/81 145/1/81
f 154/1/81 153/1/81 152/1/81
f 158/1/81 157/1/81 156/1/81
f 162/1/81 161/1/81 160/1/81
f 166/1/81 165/1/81 164/1/81
f 170/1/81 169/1/81 168/1/81
f 172/1/81 174/1/81 175/1/81
f 176/1/81 173/1/81 172/1/81
f 6/1/83 4/1/83 5/1/83
f 5/1/83 8/1/83 9/1/83
f 4/1/3 1/1/3 2/1/3
f 2/1/3 3/1/3 8/1/3
f 16/1/84 18/1/84 19/1/84
f 17/1/85 19/1/85 21/1/85
f 16/1/86 13/1/86 14/1/86
f 24/1/87 25/1/87 19/1/87
f 21/1/88 19/1/88 25/1/88
f 21/1/89 23/1/89 22/1/89
f 21/1/8 26/1/8 27/1/8
f 14/1/90 15/1/90 24/1/90
f 32/1/91 33/1/91 35/1/91
f 36/1/92 37/1/92 39/1/92
f 30/1/93 31/1/93 37/1/93
f 35/1/94 33/1/94 36/1/94
f 29/1/95 30/1/95 36/1/95
f 42/1/96 43/1/96 45/1/96
f 42/1/97 40/1/97 41/1/97
f 45/1/98 43/1/98 46/1/98
f 39/1/99 37/1/99 42/1/99
f 37/1/100 31/1/100 40/1/100
f 51/1/101 49/1/101 50/1/101
f 57/1/102 55/1/102 56/1/102
f 55/1/103 51/1/103 52/1/103
f 50/1/104 53/1/104 54/1/104
f 58/1/105 56/1/105 59/1/105
f 56/1/106 52/1/106 54/1/106
f 66/1/28 67/1/28 69/1/28
f 63/1/70 64/1/70 67/1/70
f 73/1/107 74/1/107 76/1/107
f 77/1/17 75/1/17 76/1/17
f 72/1/18 71/1/18 73/1/18
f 79/1/108 80/1/108 82/1/108
f 83/1/11 84/1/11 86/1/11
f 81/1/32 82/1/32 88/1/32
f 82/1/109 80/1/109 83/1/109
f 82/1/110 85/1/110 89/1/110
f 70/1/111 57/1/111 58/1/111
f 73/1/112 60/1/112 61/1/112
f 58/1/113 60/1/113 73/1/113
f 83/1/114 68/1/114 69/1/114
f 65/1/115 68/1/115 83/1/115
f 76/1/42 74/1/42 79/1/42
f 78/1/42 76/1/42 81/1/42
f 92/1/116 94/1/116 93/1/116
f 95/1/117 96/1/117 98/1/117
f 97/1/46 98/1/46 101/1/46
f 108/1/118 106/1/118 107/1/118
f 114/1/119 112/1/119 113/1/119
f 112/1/120 108/1/120 109/1/120
f 105/1/121 104/1/121 106/1/121
f 110/1/122 112/1/122 114/1/122
f 105/1/120 108/1/120 112/1/120
f 125/1/56 123/1/56 124/1/56
f 121/1/123 122/1/123 126/1/123
f 130/1/124 123/1/124 125/1/124
f 118/1/125 119/1/125 124/1/125
f 119/1/126 117/1/126 121/1/126
f 122/1/127 121/1/127 127/1/127
f 117/1/128 120/1/128 127/1/128
f 118/1/129 123/1/129 130/1/129
f 127/1/130 114/1/130 115/1/130
f 111/1/131 114/1/131 127/1/131
f 49/1/132 22/1/132 23/1/132
f 23/1/133 27/1/133 53/1/133
f 95/1/134 34/1/134 35/1/134
f 35/1/135 38/1/135 99/1/135
f 103/1/136 44/1/136 45/1/136
f 106/1/137 47/1/137 48/1/137
f 45/1/138 47/1/138 106/1/138
f 62/1/69 95/1/69 97/1/69
f 67/1/28 100/1/28 102/1/28
f 67/1/70 64/1/70 97/1/70
f 69/1/139 102/1/139 116/1/139
f 1/1/140 10/1/140 11/1/140
f 3/1/141 2/1/141 11/1/141
f 7/1/142 14/1/142 13/1/142
f 7/1/2 9/1/2 15/1/2
f 92/1/143 130/1/143 131/1/143
f 92/1/144 91/1/144 129/1/144
f 28/1/145 34/1/145 95/1/145
f 93/1/146 133/1/146 132/1/146
f 135/1/79 134/1/79 136/1/79
f 139/1/80 141/1/80 140/1/80
f 141/1/81 143/1/81 142/1/81
f 147/1/81 144/1/81 145/1/81
f 148/1/82 147/1/82 146/1/82
f 143/1/82 148/1/82 149/1/82
f 144/1/81 150/1/81 151/1/81
f 154/1/81 155/1/81 153/1/81
f 158/1/81 159/1/81 157/1/81
f 162/1/81 163/1/81 161/1/81
f 166/1/81 167/1/81 165/1/81
f 170/1/81 171/1/81 169/1/81
f 172/1/81 173/1/81 174/1/81
f 176/1/81 177/1/81 173/1/81
