# Blender 4.3.2
# www.blender.org
o floor
v 5.671176 -18.336399 7.271748
v 5.663892 -18.314054 -1.419379
v 10.891027 -25.668297 7.272170
v 6.508019 -21.128857 7.272171
v 10.874551 -25.652555 -1.418945
v 6.508013 -21.128853 -1.418945
v 5.667833 -18.298233 -7.272458
v 10.891027 -25.668297 -7.272137
v 6.508001 -21.128820 -7.272137
v 17.448099 -31.266012 7.272170
v 17.354485 -31.192469 -1.418945
v 20.597794 -33.730545 7.272169
v 21.319086 -34.133488 -1.418945
v 14.300615 -28.720707 7.272171
v 14.277218 -28.700733 -1.418945
v 17.448095 -31.266012 -7.272137
v 20.597797 -33.730541 -7.272137
v 14.300612 -28.720711 -7.272137
v 27.993156 -36.565960 7.272173
v 27.993227 -36.565975 -1.418945
v 34.118523 -35.623989 7.272172
v 34.118595 -35.623928 -1.418947
v 27.993233 -36.565975 -7.272139
v 34.118725 -35.623829 -7.272137
v 38.573040 -32.048988 7.272170
v 38.599159 -32.024666 -1.418945
v 41.442997 -28.730581 7.272170
v 41.469563 -28.703997 -1.418945
v 44.666611 -25.700262 7.272171
v 44.666615 -25.700262 -1.418945
v 38.573040 -32.048988 -7.272137
v 41.442997 -28.730585 -7.272137
v 44.666622 -25.700258 -7.272137
v 48.087524 -14.315721 -40.385712
v 35.965424 -14.316340 -52.353886
v 34.317486 -14.315748 -56.199421
v 33.820107 -14.314501 -62.707020
v 41.098278 -14.315945 -45.520775
v 37.955399 -14.314074 -49.077679
v 44.801392 -14.315627 -42.382301
v 46.070869 -14.273700 -50.459438
v 39.940796 -14.283429 -56.589504
v 39.940792 -14.277933 -62.719574
v 49.302261 -14.229901 -57.952999
v 47.904469 -14.231270 -62.839951
v 34.516220 -14.317114 -69.130249
v 36.091190 -14.315681 -72.945473
v 39.940800 -14.285504 -68.849648
v 37.711060 -14.313920 -76.096985
v 49.495319 -14.228649 -67.345276
v 46.070866 -14.270840 -74.979706
v 40.671761 -14.317066 -80.417091
v 44.202076 -14.314050 -83.548882
v 47.347172 -14.315615 -85.730827
v 50.183777 -24.937716 7.272170
v 53.492874 -23.550791 7.272174
v 50.577835 -24.830196 -1.418945
v 53.745319 -23.397751 -1.418945
v 57.344231 -20.249611 7.272168
v 57.066917 -20.594757 -1.418945
v 50.183784 -24.937708 -7.272137
v 53.492874 -23.550791 -7.272137
v 57.344231 -20.249611 -7.272137
v 60.272305 -14.375930 7.271744
v 60.276352 -14.368217 -1.421111
v 60.273918 -14.372949 -7.263047
v 64.784203 -14.146832 7.262075
v 64.458191 -14.197629 -1.419254
v 71.361732 -14.230152 5.842304
v 70.591133 -14.271460 -1.418930
v 64.992805 -14.219465 -7.253002
v 69.372978 -14.316831 -9.496138
v 72.373116 -14.314466 -12.266200
v 51.521561 -14.315830 -38.437664
v 60.036148 -14.315733 -34.112514
v 57.114040 -14.315635 -35.598248
v 71.924973 -14.313684 -27.347853
v 63.796646 -14.315568 -32.217026
v 64.461067 -14.282515 -38.199322
v 68.863411 -14.316494 -29.290133
v 70.591125 -14.265759 -38.199326
v 75.826492 -14.230070 3.536178
v 78.980881 -14.232016 1.362393
v 82.519798 -14.228779 -1.761785
v 76.721199 -14.278851 -7.548996
v 73.672913 -14.317309 -14.966354
v 85.479156 -14.232023 -6.145340
v 82.851265 -14.262833 -13.679068
v 87.024437 -14.230462 -9.182811
v 88.437477 -14.230156 -13.336754
v 75.276199 -14.313441 -19.795240
v 73.913857 -14.317227 -24.677607
v 82.851265 -14.269227 -19.809134
v 82.851280 -14.265598 -25.939203
v 76.721199 -14.275551 -32.069271
v 78.226585 -14.231023 -40.480888
v 85.200844 -14.231867 -33.750305
v 82.099930 -14.229211 -37.473068
v 89.544441 -14.230156 -19.698744
v 88.894653 -14.230156 -26.372301
v 87.147873 -14.229709 -30.521355
v 71.275864 -20.437162 -75.056068
v 71.217979 -20.507231 -81.112831
v 71.121498 -20.589794 -89.598793
v 81.050194 -32.530018 -75.050079
v 77.702637 -27.815029 -75.055977
v 74.033607 -23.524704 -75.054092
v 80.945663 -32.758015 -89.591858
v 77.058777 -27.158453 -81.112312
v 74.081871 -23.716396 -81.109772
v 77.509644 -27.921427 -89.598686
v 73.873978 -23.671562 -89.596848
v 52.200939 -14.283037 -44.329380
v 54.334057 -14.229340 -53.637718
v 58.331001 -14.266450 -44.329384
v 59.112247 -14.230717 -50.765572
v 50.251949 -14.233016 -56.205555
v 66.078674 -14.230156 -47.356426
v 63.241688 -14.230145 -48.800159
v 71.417038 -14.230156 -44.632839
v 50.263435 -14.232110 -69.520477
v 53.729462 -14.228999 -72.639618
v 58.575409 -14.054366 -75.031380
v 52.200935 -14.276897 -81.109772
v 51.509033 -14.316839 -87.982269
v 58.340813 -14.097611 -81.111420
v 58.000851 -14.158005 -89.546066
v 63.961315 -14.481703 -75.139900
v 68.265831 -17.755188 -75.052254
v 63.935600 -14.564694 -81.120598
v 63.864288 -14.669235 -89.593117
v 68.023056 -17.670322 -81.110146
v 68.122307 -17.917849 -89.594887
v 75.119110 -14.230145 -42.510582
v 114.590759 -82.247322 -84.757072
v 114.590759 -82.247322 -79.757080
v 114.438454 -74.554337 -84.843987
v 114.438454 -74.554337 -79.706490
v 114.590759 -82.447319 -79.757080
v 114.590759 -82.447319 -84.757072
v 114.590759 -90.642181 -79.757080
v 119.590752 -90.642181 -79.757080
v 114.590759 -90.642181 -84.757072
v 119.590752 -90.642181 -84.757072
v 114.590759 -87.642181 -84.757072
v 114.590759 -87.642181 -79.757080
v 129.590759 -90.642181 -84.757072
v 129.590759 -90.642181 -79.757080
v 129.590759 -87.642181 -84.757072
v 129.590759 -87.642181 -79.757080
v 124.590752 -90.642181 -79.757080
v 124.590752 -90.642181 -84.757072
v 129.590759 -62.642189 -84.757072
v 129.590759 -62.642189 -79.757080
v 131.590759 -62.542191 -84.757072
v 131.590759 -62.542191 -79.757080
v 131.590775 -62.642189 -83.274559
v 131.590759 -62.642189 -81.274567
v 131.590775 -62.642185 -103.721008
v 131.590759 -62.642189 -60.828140
v 331.590759 -62.642143 -103.721008
v 331.590759 -62.642147 -60.828144
v 336.590759 -66.935883 -99.353828
v 336.590759 -66.935883 -80.421165
v 375.823853 -66.935883 -99.353828
v 375.823853 -66.935883 -80.421165
v 331.590759 -62.346191 -91.425705
v 331.590759 -62.346191 -88.349236
v 336.590759 -62.346191 -91.425705
v 336.590759 -62.346191 -88.349236
v 375.823853 -62.346184 -91.425705
v 375.823853 -62.346184 -88.349236
v 382.883728 -62.346184 -91.425705
v 382.883728 -62.346184 -88.349236
v 382.883728 -63.305161 -94.991982
v 382.883728 -63.305161 -84.783005
v 422.116821 -63.305161 -94.991982
v 422.116821 -63.305161 -84.783005
v 412.116821 -63.305161 -84.783005
v 412.116821 -63.305161 -94.991982
vn 0.7194 0.6946 -0.0001
vn 0.9579 0.2872 -0.0001
vn 0.6162 0.7876 -0.0000
vn 0.6672 0.7448 0.0001
vn 0.7195 0.6945 -0.0000
vn 0.9587 0.2845 0.0014
vn 0.6288 0.7776 -0.0002
vn 0.6293 0.7772 -0.0001
vn 0.6672 0.7448 -0.0001
vn -0.1520 0.9884 -0.0000
vn -0.6849 0.7286 0.0001
vn -0.6259 0.7799 -0.0000
vn -0.6849 0.7286 -0.0002
vn -0.7565 0.6540 -0.0003
vn -0.7564 0.6541 0.0007
vn 0.3580 0.9336 -0.0136
vn 0.3579 0.9335 0.0202
vn -0.0042 1.0000 0.0043
vn -0.0058 1.0000 0.0009
vn -0.0060 1.0000 0.0006
vn -0.0045 1.0000 0.0029
vn -0.0056 1.0000 0.0025
vn -0.0048 1.0000 -0.0024
vn -0.0057 1.0000 -0.0020
vn -0.0046 1.0000 -0.0039
vn -0.0059 1.0000 -0.0012
vn -0.0060 1.0000 -0.0011
vn -0.4121 0.9112 0.0041
vn -0.6449 0.7642 -0.0053
vn -0.3865 0.9222 0.0091
vn -0.6449 0.7642 0.0078
vn 0.0113 0.9999 -0.0063
vn -0.0408 0.9992 0.0009
vn 0.0120 0.9999 -0.0026
vn -0.0408 0.9992 -0.0008
vn -0.0027 1.0000 0.0052
vn -0.0026 1.0000 0.0053
vn -0.0055 1.0000 -0.0029
vn -0.0054 1.0000 -0.0022
vn -0.0045 1.0000 -0.0041
vn -0.0057 1.0000 0.0008
vn -0.0040 1.0000 0.0046
vn -0.0058 1.0000 0.0006
vn -0.0053 1.0000 0.0036
vn -0.0055 1.0000 0.0027
vn -0.0028 1.0000 -0.0054
vn -0.0042 1.0000 -0.0037
vn -0.0038 1.0000 -0.0050
vn -0.0034 1.0000 0.0050
vn -0.0037 1.0000 0.0043
vn -0.0058 1.0000 -0.0011
vn -0.0058 1.0000 -0.0010
vn 0.7563 0.6541 -0.0151
vn 0.7599 0.6499 -0.0103
vn 0.8106 0.5854 -0.0150
vn 0.8152 0.5787 -0.0239
vn 0.7458 0.6661 -0.0150
vn 0.7457 0.6661 -0.0148
vn -0.0028 1.0000 0.0051
vn -0.0026 1.0000 0.0052
vn -0.0292 0.9996 -0.0029
vn 0.6049 0.7961 -0.0149
vn 0.0868 0.9962 -0.0106
vn -0.0356 0.9994 0.0008
vn 0.6049 0.7961 -0.0136
vn 0.0832 0.9965 -0.0103
vn -0.1369 0.9906 -0.0000
vn -0.0032 1.0000 0.0047
vn -0.0042 1.0000 0.0040
vn -0.0049 1.0000 -0.0033
vn -0.0031 1.0000 -0.0051
vn -0.0033 1.0000 -0.0043
vn -0.0027 1.0000 0.0053
vn -0.0030 1.0000 0.0052
vn -0.8888 0.4581 0.0102
vn -0.8950 0.4462 -0.0000
vn 0.6639 0.7477 -0.0140
vn 0.6652 0.7465 -0.0150
vn -0.0031 1.0000 0.0051
vn 0.9998 0.0198 -0.0000
vn 0.7820 0.6230 -0.0154
vn -0.0000 1.0000 -0.0000
vn 1.0000 -0.0000 -0.0000
vn -1.0000 -0.0000 -0.0000
vn -0.0499 0.9988 -0.0000
vn 0.9579 0.2871 -0.0000
vn 0.5957 0.8031 0.0122
vn 0.6670 0.7451 -0.0001
vn 0.5957 0.8030 -0.0181
vn 0.7194 0.6946 0.0002
vn 0.9579 0.2872 -0.0000
vn 0.6293 0.7772 0.0001
vn 0.6288 0.7776 0.0003
vn 0.6670 0.7451 0.0001
vn -0.6847 0.7288 -0.0000
vn -0.6263 0.7796 0.0003
vn -0.7564 0.6541 -0.0004
vn -0.7565 0.6540 0.0005
vn -0.6263 0.7796 -0.0004
vn 0.3424 0.9395 -0.0000
vn -0.0055 1.0000 0.0013
vn -0.0057 1.0000 0.0009
vn -0.0052 1.0000 0.0036
vn -0.0055 1.0000 0.0026
vn -0.0055 1.0000 -0.0031
vn -0.0055 1.0000 -0.0022
vn -0.0057 1.0000 -0.0014
vn -0.0058 1.0000 -0.0012
vn -0.3865 0.9223 -0.0061
vn -0.6508 0.7592 -0.0094
vn -0.4120 0.9111 -0.0061
vn -0.6507 0.7592 0.0139
vn 0.0120 0.9999 -0.0070
vn -0.0507 0.9987 -0.0039
vn 0.0180 0.9998 -0.0083
vn -0.0325 0.9994 -0.0067
vn -0.0028 1.0000 0.0052
vn -0.0050 1.0000 -0.0024
vn -0.0057 1.0000 -0.0019
vn -0.0047 1.0000 -0.0039
vn -0.0043 1.0000 0.0043
vn -0.0046 1.0000 0.0029
vn -0.0057 1.0000 0.0025
vn -0.0030 1.0000 -0.0052
vn -0.0046 1.0000 -0.0033
vn -0.0032 1.0000 -0.0044
vn -0.0031 1.0000 0.0047
vn -0.0038 1.0000 0.0042
vn 0.7598 0.6500 -0.0181
vn 0.7563 0.6541 -0.0147
vn 0.8152 0.5791 -0.0088
vn 0.7460 0.6658 -0.0148
vn 0.7460 0.6657 -0.0151
vn -0.0259 0.9996 -0.0061
vn 0.6065 0.7949 -0.0161
vn 0.0832 0.9965 -0.0130
vn -0.0292 0.9996 -0.0060
vn 0.6054 0.7958 -0.0131
vn 0.0788 0.9968 -0.0142
vn -0.1456 0.9893 0.0056
vn -0.1456 0.9893 -0.0084
vn -0.0035 1.0000 0.0050
vn -0.0037 1.0000 0.0044
vn -0.0043 1.0000 -0.0038
vn -0.0027 1.0000 -0.0055
vn -0.0040 1.0000 -0.0049
vn -0.0030 1.0000 0.0051
vn -0.8950 0.4461 -0.0000
vn -0.8888 0.4581 -0.0151
vn 0.6651 0.7466 -0.0148
vn 0.6639 0.7477 -0.0161
vn -0.0029 1.0000 0.0052
vn 0.7804 0.6253 -0.0000
vt 0.000000 0.000000
s 0
f 5/1/1 4/1/1 3/1/1
f 1/1/2 6/1/2 2/1/2
f 12/1/3 11/1/3 10/1/3
f 3/1/4 15/1/4 5/1/4
f 11/1/3 17/1/3 16/1/3
f 5/1/5 9/1/5 6/1/5
f 2/1/6 9/1/6 7/1/6
f 11/1/7 14/1/7 10/1/7
f 11/1/8 18/1/8 15/1/8
f 15/1/9 8/1/9 5/1/9
f 21/1/10 20/1/10 19/1/10
f 29/1/11 28/1/11 27/1/11
f 25/1/12 22/1/12 21/1/12
f 22/1/10 23/1/10 20/1/10
f 28/1/13 33/1/13 32/1/13
f 26/1/14 27/1/14 28/1/14
f 26/1/15 32/1/15 31/1/15
f 22/1/12 31/1/12 24/1/12
f 19/1/16 13/1/16 12/1/16
f 13/1/17 23/1/17 17/1/17
f 38/1/18 41/1/18 39/1/18
f 42/1/19 45/1/19 43/1/19
f 36/1/20 43/1/20 37/1/20
f 41/1/21 42/1/21 39/1/21
f 35/1/22 42/1/22 36/1/22
f 48/1/23 51/1/23 49/1/23
f 48/1/24 47/1/24 46/1/24
f 51/1/25 52/1/25 49/1/25
f 45/1/26 48/1/26 43/1/26
f 43/1/27 46/1/27 37/1/27
f 57/1/28 56/1/28 58/1/28
f 56/1/29 60/1/29 58/1/29
f 57/1/30 62/1/30 61/1/30
f 60/1/31 62/1/31 58/1/31
f 69/1/32 68/1/32 67/1/32
f 64/1/33 68/1/33 65/1/33
f 70/1/34 71/1/34 68/1/34
f 68/1/35 66/1/35 65/1/35
f 78/1/36 81/1/36 79/1/36
f 75/1/37 79/1/37 76/1/37
f 85/1/38 88/1/38 86/1/38
f 89/1/39 88/1/39 87/1/39
f 84/1/40 85/1/40 83/1/40
f 91/1/41 94/1/41 92/1/41
f 95/1/42 98/1/42 96/1/42
f 93/1/43 100/1/43 94/1/43
f 94/1/44 95/1/44 92/1/44
f 94/1/45 101/1/45 97/1/45
f 82/1/46 70/1/46 69/1/46
f 85/1/47 73/1/47 72/1/47
f 70/1/48 85/1/48 72/1/48
f 95/1/49 81/1/49 80/1/49
f 77/1/50 95/1/50 80/1/50
f 88/1/51 91/1/51 86/1/51
f 90/1/52 93/1/52 88/1/52
f 109/1/53 112/1/53 110/1/53
f 109/1/54 107/1/54 106/1/54
f 108/1/55 109/1/55 105/1/55
f 105/1/56 109/1/56 106/1/56
f 103/1/57 112/1/57 104/1/57
f 107/1/58 103/1/58 102/1/58
f 113/1/59 116/1/59 114/1/59
f 115/1/60 119/1/60 116/1/60
f 126/1/61 125/1/61 124/1/61
f 132/1/62 131/1/62 130/1/62
f 126/1/63 131/1/63 127/1/63
f 123/1/64 124/1/64 122/1/64
f 128/1/65 132/1/65 130/1/65
f 123/1/66 130/1/66 126/1/66
f 55/1/67 30/1/67 29/1/67
f 30/1/67 61/1/67 33/1/67
f 113/1/68 41/1/68 40/1/68
f 41/1/69 117/1/69 44/1/69
f 121/1/70 51/1/70 50/1/70
f 124/1/71 54/1/71 53/1/71
f 51/1/72 124/1/72 53/1/72
f 74/1/73 115/1/73 113/1/73
f 79/1/36 120/1/36 118/1/36
f 79/1/37 115/1/37 76/1/37
f 81/1/74 134/1/74 120/1/74
f 59/1/75 65/1/75 60/1/75
f 63/1/76 65/1/76 66/1/76
f 103/1/77 133/1/77 132/1/77
f 103/1/78 129/1/78 102/1/78
f 34/1/79 113/1/79 40/1/79
f 138/1/80 135/1/80 137/1/80
f 138/1/81 108/1/81 105/1/81
f 151/1/82 147/1/82 152/1/82
f 146/1/83 143/1/83 145/1/83
f 139/1/83 145/1/83 140/1/83
f 149/1/84 148/1/84 150/1/84
f 142/1/82 152/1/82 144/1/82
f 150/1/84 153/1/84 149/1/84
f 154/1/85 155/1/85 153/1/85
f 144/1/82 141/1/82 142/1/82
f 162/1/82 159/1/82 157/1/82
f 166/1/82 163/1/82 164/1/82
f 170/1/82 167/1/82 168/1/82
f 174/1/82 171/1/82 172/1/82
f 178/1/82 180/1/82 179/1/82
f 179/1/82 175/1/82 176/1/82
f 5/1/5 6/1/5 4/1/5
f 1/1/86 4/1/86 6/1/86
f 12/1/87 13/1/87 11/1/87
f 3/1/88 14/1/88 15/1/88
f 11/1/89 13/1/89 17/1/89
f 5/1/90 8/1/90 9/1/90
f 2/1/91 6/1/91 9/1/91
f 11/1/92 15/1/92 14/1/92
f 11/1/93 16/1/93 18/1/93
f 15/1/94 18/1/94 8/1/94
f 21/1/10 22/1/10 20/1/10
f 29/1/95 30/1/95 28/1/95
f 25/1/96 26/1/96 22/1/96
f 22/1/10 24/1/10 23/1/10
f 28/1/95 30/1/95 33/1/95
f 26/1/97 25/1/97 27/1/97
f 26/1/98 28/1/98 32/1/98
f 22/1/99 26/1/99 31/1/99
f 19/1/100 20/1/100 13/1/100
f 13/1/100 20/1/100 23/1/100
f 38/1/42 40/1/42 41/1/42
f 42/1/101 44/1/101 45/1/101
f 36/1/102 42/1/102 43/1/102
f 41/1/103 44/1/103 42/1/103
f 35/1/104 39/1/104 42/1/104
f 48/1/105 50/1/105 51/1/105
f 48/1/106 49/1/106 47/1/106
f 51/1/40 53/1/40 52/1/40
f 45/1/107 50/1/107 48/1/107
f 43/1/108 48/1/108 46/1/108
f 57/1/109 55/1/109 56/1/109
f 56/1/110 59/1/110 60/1/110
f 57/1/111 58/1/111 62/1/111
f 60/1/112 63/1/112 62/1/112
f 69/1/113 70/1/113 68/1/113
f 64/1/114 67/1/114 68/1/114
f 70/1/115 72/1/115 71/1/115
f 68/1/116 71/1/116 66/1/116
f 78/1/117 80/1/117 81/1/117
f 75/1/36 78/1/36 79/1/36
f 85/1/118 87/1/118 88/1/118
f 89/1/119 90/1/119 88/1/119
f 84/1/120 87/1/120 85/1/120
f 91/1/43 93/1/43 94/1/43
f 95/1/121 97/1/121 98/1/121
f 93/1/43 99/1/43 100/1/43
f 94/1/122 97/1/122 95/1/122
f 94/1/123 100/1/123 101/1/123
f 82/1/124 83/1/124 70/1/124
f 85/1/125 86/1/125 73/1/125
f 70/1/126 83/1/126 85/1/126
f 95/1/127 96/1/127 81/1/127
f 77/1/128 92/1/128 95/1/128
f 88/1/52 93/1/52 91/1/52
f 90/1/52 99/1/52 93/1/52
f 109/1/129 111/1/129 112/1/129
f 109/1/130 110/1/130 107/1/130
f 108/1/131 111/1/131 109/1/131
f 103/1/132 110/1/132 112/1/132
f 107/1/133 110/1/133 103/1/133
f 113/1/36 115/1/36 116/1/36
f 115/1/60 118/1/60 119/1/60
f 126/1/134 127/1/134 125/1/134
f 132/1/135 133/1/135 131/1/135
f 126/1/136 130/1/136 131/1/136
f 123/1/137 126/1/137 124/1/137
f 128/1/138 129/1/138 132/1/138
f 123/1/139 128/1/139 130/1/139
f 55/1/140 57/1/140 30/1/140
f 30/1/141 57/1/141 61/1/141
f 113/1/142 114/1/142 41/1/142
f 41/1/143 114/1/143 117/1/143
f 121/1/144 122/1/144 51/1/144
f 124/1/145 125/1/145 54/1/145
f 51/1/146 122/1/146 124/1/146
f 74/1/73 76/1/73 115/1/73
f 79/1/36 81/1/36 120/1/36
f 79/1/37 118/1/37 115/1/37
f 81/1/147 96/1/147 134/1/147
f 59/1/148 64/1/148 65/1/148
f 63/1/149 60/1/149 65/1/149
f 103/1/150 104/1/150 133/1/150
f 103/1/151 132/1/151 129/1/151
f 34/1/152 74/1/152 113/1/152
f 138/1/80 136/1/80 135/1/80
f 138/1/153 137/1/153 108/1/153
f 151/1/82 148/1/82 147/1/82
f 146/1/83 141/1/83 143/1/83
f 139/1/83 146/1/83 145/1/83
f 149/1/84 147/1/84 148/1/84
f 142/1/82 151/1/82 152/1/82
f 150/1/84 154/1/84 153/1/84
f 154/1/85 156/1/85 155/1/85
f 144/1/82 143/1/82 141/1/82
f 158/1/82 160/1/82 162/1/82
f 162/1/82 161/1/82 159/1/82
f 157/1/82 158/1/82 162/1/82
f 166/1/82 165/1/82 163/1/82
f 170/1/82 169/1/82 167/1/82
f 174/1/82 173/1/82 171/1/82
f 178/1/82 177/1/82 180/1/82
f 179/1/82 180/1/82 175/1/82
