# Blender 4.3.2
# www.blender.org
o front
v 331.590759 -21.642151 -103.721008
v 331.590759 -21.642155 -60.828152
v 331.590759 -62.642147 -103.721008
v 331.590759 -62.642151 -60.828148
v 331.590759 -59.327637 -91.425705
v 331.590759 -59.327637 -88.349236
v 331.590759 -62.346191 -91.425705
v 331.590759 -62.346191 -88.349243
v 375.823853 -54.737926 -99.353806
v 375.823853 -54.737926 -80.421143
v 375.823853 -66.935883 -99.353836
v 375.823853 -66.935883 -80.421158
v 375.823853 -59.327629 -91.425705
v 375.823853 -59.327629 -88.349236
v 375.823853 -62.346184 -91.425705
v 375.823853 -62.346184 -88.349243
v 422.116821 -58.368649 -94.991966
v 422.116821 -58.368649 -84.782990
v 422.116821 -63.305161 -94.991982
v 422.116821 -63.305161 -84.783005
v 422.116821 -24.737925 -94.991966
v 422.116821 -24.737925 -84.782990
v 432.116821 -14.737925 -94.991966
v 432.116821 -14.737925 -84.782990
v 432.116821 -24.737925 -84.782990
v 432.116821 -24.737925 -94.991966
vn -1.0000 -0.0000 -0.0000
vt 0.000000 0.000000
s 0
f 6/1/1 4/1/1 2/1/1
f 1/1/1 6/1/1 2/1/1
f 3/1/1 5/1/1 1/1/1
f 8/1/1 3/1/1 4/1/1
f 14/1/1 12/1/1 10/1/1
f 13/1/1 10/1/1 9/1/1
f 15/1/1 9/1/1 11/1/1
f 12/1/1 15/1/1 11/1/1
f 17/1/1 20/1/1 18/1/1
f 22/1/1 17/1/1 18/1/1
f 24/1/1 26/1/1 25/1/1
f 6/1/1 8/1/1 4/1/1
f 1/1/1 5/1/1 6/1/1
f 3/1/1 7/1/1 5/1/1
f 8/1/1 7/1/1 3/1/1
f 14/1/1 16/1/1 12/1/1
f 13/1/1 14/1/1 10/1/1
f 15/1/1 13/1/1 9/1/1
f 12/1/1 16/1/1 15/1/1
f 17/1/1 19/1/1 20/1/1
f 22/1/1 21/1/1 17/1/1
f 24/1/1 23/1/1 26/1/1
