# Blender 4.3.2
# www.blender.org
o hole
v 114.590759 -82.247322 -79.757072
v 119.590759 -82.247322 -79.757072
v 114.590759 -82.247322 -84.757072
v 119.590759 -82.247322 -84.757072
v 114.590759 -82.247322 -82.857071
v 119.590759 -82.247322 -82.857071
v 114.590759 -82.247322 -81.657074
v 119.590759 -82.247322 -81.657074
v 116.490761 -82.247322 -79.757072
v 116.490761 -82.247322 -84.757072
v 116.490761 -82.247322 -82.857071
v 116.490761 -82.247322 -81.657074
v 117.690758 -82.247322 -79.757072
v 117.690758 -82.247322 -84.757072
v 117.690758 -82.247322 -82.857071
v 117.690758 -82.247322 -81.657074
v 114.590759 -82.447319 -81.657074
v 114.590759 -82.447319 -79.757072
v 117.690758 -82.447319 -79.757072
v 119.590759 -82.447319 -79.757072
v 119.590759 -82.447319 -82.857071
v 119.590759 -82.447319 -84.757072
v 116.490761 -82.447319 -84.757072
v 114.590759 -82.447319 -84.757072
v 114.590759 -82.447319 -82.857071
v 119.590759 -82.447319 -81.657074
v 116.490761 -82.447319 -82.857071
v 116.490761 -82.447319 -81.657074
v 116.490761 -82.447319 -79.757072
v 117.690758 -82.447319 -84.757072
v 117.690758 -82.447319 -82.857071
v 117.690758 -82.447319 -81.657074
vn -0.0000 1.0000 -0.0000
vn -0.0000 -1.0000 -0.0000
vn -1.0000 -0.0000 -0.0000
vn 1.0000 -0.0000 -0.0000
vn -0.0000 -0.0000 1.0000
vn -0.0000 -0.0000 -1.0000
vt 1.000000 1.000000
vt 1.000000 0.000000
vt 0.000000 0.000000
vt 0.000000 1.000000
s 0
f 6/1/1 14/1/1 15/1/1
f 8/2/1 15/1/1 16/2/1
f 13/2/1 8/2/1 16/2/1
f 9/3/1 7/3/1 1/3/1
f 12/3/1 5/4/1 7/3/1
f 11/4/1 3/4/1 5/4/1
f 13/2/1 12/3/1 9/3/1
f 15/1/1 10/4/1 11/4/1
f 30/1/2 21/1/2 31/1/2
f 31/1/2 26/2/2 32/2/2
f 19/2/2 26/2/2 20/2/2
f 17/3/2 29/3/2 18/3/2
f 25/4/2 28/3/2 17/3/2
f 24/4/2 27/4/2 25/4/2
f 28/3/2 19/2/2 29/3/2
f 23/4/2 31/1/2 27/4/2
f 25/4/3 7/3/3 5/4/3
f 31/1/3 16/2/3 15/1/3
f 17/3/3 1/3/3 7/3/3
f 28/3/4 11/4/4 12/3/4
f 20/2/4 8/2/4 2/2/4
f 19/2/5 2/2/5 13/2/5
f 21/1/4 4/1/4 6/1/4
f 29/3/5 13/2/5 9/3/5
f 18/3/5 9/3/5 1/3/5
f 23/4/6 3/4/6 10/4/6
f 22/1/6 14/1/6 4/1/6
f 30/1/6 10/4/6 14/1/6
f 24/4/3 5/4/3 3/4/3
f 27/4/5 15/1/5 11/4/5
f 26/2/4 6/1/4 8/2/4
f 32/2/6 12/3/6 16/2/6
f 6/1/1 4/1/1 14/1/1
f 8/2/1 6/1/1 15/1/1
f 13/2/1 2/2/1 8/2/1
f 9/3/1 12/3/1 7/3/1
f 12/3/1 11/4/1 5/4/1
f 11/4/1 10/4/1 3/4/1
f 13/2/1 16/2/1 12/3/1
f 15/1/1 14/1/1 10/4/1
f 30/1/2 22/1/2 21/1/2
f 31/1/2 21/1/2 26/2/2
f 19/2/2 32/2/2 26/2/2
f 17/3/2 28/3/2 29/3/2
f 25/4/2 27/4/2 28/3/2
f 24/4/2 23/4/2 27/4/2
f 28/3/2 32/2/2 19/2/2
f 23/4/2 30/1/2 31/1/2
f 25/4/3 17/3/3 7/3/3
f 31/1/3 32/2/3 16/2/3
f 17/3/3 18/3/3 1/3/3
f 28/3/4 27/4/4 11/4/4
f 20/2/4 26/2/4 8/2/4
f 19/2/5 20/2/5 2/2/5
f 21/1/4 22/1/4 4/1/4
f 29/3/5 19/2/5 13/2/5
f 18/3/5 29/3/5 9/3/5
f 23/4/6 24/4/6 3/4/6
f 22/1/6 30/1/6 14/1/6
f 30/1/6 23/4/6 10/4/6
f 24/4/3 25/4/3 5/4/3
f 27/4/5 31/1/5 15/1/5
f 26/2/4 21/1/4 6/1/4
f 32/2/6 28/3/6 12/3/6
