# Blender 4.3.2
# www.blender.org
o left
v 5.667833 -18.298233 -7.272458
v 10.891027 -25.668297 -7.272137
v 6.508001 -21.128820 -7.272137
v 17.448095 -31.266012 -7.272137
v 20.597797 -33.730541 -7.272137
v 14.300612 -28.720711 -7.272137
v 15.420562 -21.135738 -7.272137
v 21.550625 -27.265802 -7.272137
v 24.192940 -18.026890 -7.272137
v 27.993233 -36.565975 -7.272139
v 34.118725 -35.623829 -7.272137
v 27.680687 -27.265802 -7.272137
v 28.437180 -21.518410 -7.272137
v 33.810749 -27.265802 -7.272137
v 31.094986 -18.578871 -7.272137
v 38.573040 -32.048988 -7.272137
v 41.442997 -28.730585 -7.272137
v 39.940811 -21.135738 -7.272137
v 44.666622 -25.700258 -7.272137
v 46.070877 -21.135738 -7.272137
v 9.282713 -17.981850 -7.271902
v 15.366124 -17.449415 -7.270491
v 22.015474 -16.867435 -7.273941
v 34.109314 -15.247867 -7.272137
v 39.094727 -12.421962 -7.272139
v 42.099106 -11.370870 -7.272137
v 46.070877 -15.005676 -7.272137
v 45.058559 -10.962724 -7.272137
v 48.727837 -5.382600 -7.272137
v 48.087524 -14.315721 -40.385712
v 47.870869 -8.875823 -40.477978
v 48.033817 0.228408 -40.318169
v 35.965424 -14.316340 -52.353886
v 36.082588 -8.876348 -52.076607
v 35.895309 0.227788 -52.303783
v 34.317486 -14.315748 -56.199421
v 34.266220 -8.878867 -56.268105
v 33.820107 -14.314501 -62.707020
v 33.788029 -8.876968 -62.717876
v 34.232471 0.228385 -56.182274
v 33.734509 0.229624 -62.708210
v 41.098278 -14.315945 -45.520775
v 41.065220 -8.876493 -45.508461
v 37.955399 -14.314074 -49.077679
v 37.988960 -8.876482 -48.981983
v 44.801392 -14.315627 -42.382301
v 44.716270 -8.876670 -42.406071
v 41.039169 0.228181 -45.458775
v 37.889874 0.230040 -49.022514
v 44.746212 0.228479 -42.316452
v 34.516220 -14.317114 -69.130249
v 34.443485 -8.878173 -68.936852
v 36.091190 -14.315681 -72.945473
v 36.192837 -8.876168 -73.264145
v 34.431442 0.227004 -69.145660
v 36.019264 0.228447 -72.994904
v 37.711060 -14.313920 -76.096985
v 37.829277 -8.876391 -76.359398
v 37.641804 0.230197 -76.148170
v 40.671761 -14.317066 -80.417091
v 40.723293 -8.877871 -80.523643
v 44.202076 -14.314050 -83.548882
v 43.957153 -8.876098 -83.401207
v 47.347172 -14.315615 -85.730827
v 46.994812 -8.876517 -85.562622
v 40.608883 0.227043 -80.475967
v 44.146126 0.230064 -83.613831
v 47.295685 0.228502 -85.799927
v 50.183784 -24.937708 -7.272137
v 53.492874 -23.550791 -7.272137
v 57.344231 -20.249611 -7.272137
v 52.200939 -15.005676 -7.272137
v 52.200939 -8.875611 -7.272137
v 60.273918 -14.372949 -7.263047
v 58.331017 -8.875607 -7.261956
v 52.351009 -1.721036 -7.272137
v 57.861073 0.110289 -7.272861
v 64.992805 -14.219465 -7.253002
v 64.993141 -8.869765 -7.276516
v 69.372978 -14.316831 -9.496138
v 69.165245 -8.874167 -9.391448
v 72.373116 -14.314466 -12.266200
v 72.324074 -8.872414 -12.254644
v 64.920914 0.227380 -7.299595
v 69.320503 0.227294 -9.564637
v 72.311615 0.229640 -12.329359
v 51.521561 -14.315830 -38.437664
v 52.163876 -8.876074 -38.057137
v 60.036148 -14.315733 -34.112514
v 59.677288 -8.875595 -34.259689
v 57.114040 -14.315635 -35.598248
v 56.610970 -8.875607 -35.817719
v 51.489487 0.228290 -38.357750
v 59.981674 0.228385 -34.044212
v 57.065823 0.228494 -35.526772
v 71.924973 -14.313684 -27.347853
v 72.113716 -8.871696 -27.114376
v 71.864388 0.230425 -27.284916
v 63.796646 -14.315568 -32.217026
v 64.501915 -8.875109 -31.796988
v 68.863411 -14.316494 -29.290133
v 68.366867 -8.875466 -29.555443
v 63.764740 0.228549 -32.136925
v 68.811966 0.227616 -29.221239
v 73.672913 -14.317309 -14.966354
v 74.003662 -8.875278 -15.882580
v 73.598625 0.226807 -15.011094
v 75.276199 -14.313441 -19.795240
v 75.242928 -8.870225 -19.796320
v 73.913857 -14.317227 -24.677607
v 74.219269 -8.874579 -23.898232
v 75.187363 0.230613 -19.798315
v 73.838921 0.226956 -24.633244
v 71.121498 -20.589794 -89.598793
v 80.945663 -32.758015 -89.591858
v 77.509644 -27.921427 -89.598686
v 73.873978 -23.671562 -89.596848
v 82.851265 -27.265791 -89.668114
v 82.851273 -21.135721 -89.723679
v 92.866135 -24.442923 -89.810928
v 90.120918 -20.553070 -89.814743
v 51.509033 -14.316839 -87.982269
v 52.060646 -8.878158 -88.206924
v 58.000851 -14.158005 -89.546066
v 58.299843 -8.877683 -89.563751
v 51.485302 0.227262 -88.065163
v 57.944366 0.202523 -89.512451
v 63.864288 -14.669235 -89.593117
v 64.460266 -8.876098 -89.734367
v 68.122307 -17.917849 -89.594887
v 70.591171 -8.875537 -89.724434
v 64.928787 0.110014 -89.914673
v 71.345329 -2.513897 -89.811531
v 76.721214 -15.005657 -89.716103
v 77.998497 -7.215922 -89.813438
v 84.434769 -13.608539 -89.814178
v 81.365059 -10.345575 -89.814949
v 74.839874 -4.721719 -89.815201
v 87.114983 -16.761896 -89.814949
v 114.590759 -82.247322 -84.757072
v 119.590759 -82.247322 -84.757072
v 114.438454 -74.554337 -84.843987
v 119.575943 -74.554337 -84.843987
v 114.590759 -82.447319 -84.757072
v 119.590752 -82.447319 -84.757072
v 114.590759 -90.642181 -84.757072
v 119.590752 -90.642181 -84.757072
v 119.590752 -87.642181 -84.757072
v 114.590759 -87.642181 -84.757072
v 129.590759 -90.642181 -84.757072
v 129.590759 -87.642181 -84.757072
v 124.590752 -90.642181 -84.757072
v 124.590752 -87.642181 -84.757072
v 129.590759 -57.642185 -84.757072
v 124.590752 -57.642185 -84.757072
v 129.590759 -62.642189 -84.757072
v 124.590752 -62.642189 -84.757072
v 131.590759 -57.642185 -84.757072
v 131.590759 -62.542187 -84.757072
v 131.590775 -21.642189 -103.721008
v 131.590775 -62.642185 -103.721008
v 331.590759 -21.642149 -103.721008
v 331.590759 -62.642143 -103.721008
v 331.590759 -59.327633 -91.425697
v 331.590759 -62.346191 -91.425705
v 336.590759 -59.327633 -91.425697
v 336.590759 -62.346191 -91.425705
v 336.590759 -54.737926 -99.353806
v 336.590759 -66.935883 -99.353828
v 375.823853 -54.737926 -99.353806
v 375.823853 -66.935883 -99.353828
v 375.823853 -59.327625 -91.425697
v 375.823853 -62.346184 -91.425705
v 382.883728 -59.327625 -91.425697
v 382.883728 -62.346184 -91.425705
v 382.883728 -58.368649 -94.991966
v 382.883728 -63.305161 -94.991982
v 422.116821 -58.368649 -94.991966
v 422.116821 -63.305161 -94.991982
v 412.116821 -58.368649 -94.991966
v 412.116821 -63.305161 -94.991982
v 422.116821 -14.737925 -94.991966
v 412.116821 -14.737925 -94.991966
v 412.116821 -24.737926 -94.991966
v 422.116821 -24.737926 -94.991966
v 432.116791 -14.737925 -94.991966
v 432.116791 -24.737926 -94.991966
vn -0.0000 -0.0000 1.0000
vn 0.9971 0.0084 -0.0762
vn 0.7486 0.0061 -0.6630
vn 0.6465 0.0068 -0.7629
vn 0.8547 0.0081 -0.5191
vn 0.9176 0.0005 -0.3976
vn 0.9971 0.0044 -0.0761
vn 0.7486 0.0058 -0.6630
vn 0.6475 0.0060 -0.7620
vn 0.9175 0.0090 -0.3976
vn 0.8514 0.0069 -0.5245
vn 0.9243 -0.0012 0.3816
vn 0.5798 0.0040 0.8148
vn 0.6647 0.0083 0.7470
vn 0.8840 0.0033 0.4674
vn 0.8248 0.0093 0.5653
vn 0.9244 0.0100 0.3813
vn 0.5797 0.0070 0.8148
vn 0.6636 0.0037 0.7481
vn 0.8248 0.0039 0.5655
vn 0.8892 0.0034 0.4575
vn 0.9945 0.0061 0.1048
vn 0.9945 0.0057 0.1048
vn -0.0017 -0.0000 1.0000
vn 0.6715 0.0114 0.7409
vn 0.4521 0.0039 0.8919
vn 0.0022 0.0006 1.0000
vn -0.0003 0.0012 1.0000
vn 0.6716 0.0026 0.7409
vn 0.4577 0.0091 0.8891
vn 0.0038 0.0014 1.0000
vn 0.4532 0.0058 -0.8914
vn 0.4527 0.0089 -0.8916
vn 0.5002 0.0020 -0.8659
vn 0.4501 0.0055 -0.8930
vn 0.5356 0.0176 -0.8443
vn 0.4532 0.0059 -0.8914
vn 0.4498 0.0061 -0.8931
vn 0.5017 0.0072 -0.8650
vn 0.5357 -0.0011 -0.8444
vn 0.4546 0.0036 -0.8907
vn 0.9702 0.0059 -0.2421
vn 0.9074 0.0156 0.4201
vn 0.9015 0.0048 0.4327
vn 0.8020 -0.0022 -0.5973
vn 0.8366 -0.0093 -0.5477
vn 0.9490 -0.0046 0.3151
vn 0.9490 0.0121 0.3150
vn 0.0115 0.0094 0.9999
vn 0.0118 0.0091 0.9999
vn 0.0118 0.0098 0.9999
vn 0.0115 0.0099 0.9999
vn 0.2125 -0.0088 0.9771
vn -0.0016 0.0245 0.9997
vn 0.0277 0.0215 0.9994
vn 0.2186 -0.0014 0.9758
vn -0.0077 0.0205 0.9998
vn 0.0577 0.0170 0.9982
vn 0.0105 0.0108 0.9999
vn 0.0096 0.0109 0.9999
vn 0.0090 0.0126 0.9999
vn 0.4934 0.0049 -0.8698
vn 0.4912 0.0076 -0.8710
vn 0.4627 -0.0103 0.8864
vn 0.4756 0.0072 0.8796
vn 0.5192 0.0062 -0.8546
vn 0.5194 0.0057 -0.8545
vn -0.0002 0.0001 1.0000
vn 0.0006 -0.0004 1.0000
vn -0.0002 -0.0004 1.0000
vn -0.0010 -0.0010 1.0000
vn 0.0110 0.0097 0.9999
vn 0.0116 0.0096 0.9999
vn 0.0106 0.0104 0.9999
vn -0.0000 0.0113 0.9999
vn -0.0389 0.0820 0.9959
vn 0.9972 0.0057 -0.0739
vn 0.7494 0.0070 -0.6621
vn 0.6475 0.0057 -0.7620
vn 0.8514 0.0040 -0.5245
vn 0.9192 0.0037 -0.3939
vn 0.9972 0.0059 -0.0739
vn 0.7493 0.0052 -0.6622
vn 0.6466 0.0054 -0.7628
vn 0.9191 0.0071 -0.3940
vn 0.8545 0.0046 -0.5194
vn 0.9271 0.0046 0.3748
vn 0.5700 0.0115 0.8216
vn 0.6636 0.0096 0.7480
vn 0.8893 0.0102 0.4571
vn 0.8212 0.0034 0.5707
vn 0.9271 0.0066 0.3748
vn 0.5702 0.0026 0.8215
vn 0.6647 0.0044 0.7471
vn 0.8211 0.0073 0.5707
vn 0.8840 0.0074 0.4674
vn 0.9941 0.0095 0.1077
vn 0.9942 0.0038 0.1076
vn -0.0011 -0.0006 1.0000
vn 0.6784 0.0046 0.7347
vn 0.4558 0.0003 0.8901
vn -0.0023 0.0044 1.0000
vn 0.6788 0.0070 0.7343
vn 0.4521 0.0059 0.8919
vn 0.0022 0.0026 1.0000
vn 0.4530 0.0059 -0.8915
vn 0.4498 0.0056 -0.8931
vn 0.5017 0.0036 -0.8650
vn 0.4546 0.0098 -0.8906
vn 0.5458 0.0090 -0.8378
vn 0.4527 0.0041 -0.8917
vn 0.5002 0.0082 -0.8659
vn 0.5459 0.0041 -0.8379
vn 0.4502 0.0061 -0.8929
vn 0.9631 -0.0156 -0.2687
vn 0.9631 0.0186 -0.2686
vn 0.9010 0.0072 0.4337
vn 0.9075 0.0002 0.4201
vn 0.8362 0.0315 -0.5474
vn 0.8020 0.0108 -0.5972
vn 0.9533 0.0059 0.3019
vn 0.0119 0.0091 0.9999
vn 0.0117 0.0092 0.9999
vn 0.2338 0.0164 0.9722
vn 0.0094 0.0118 0.9999
vn 0.0083 0.0029 1.0000
vn 0.2125 0.0028 0.9772
vn -0.0016 0.0139 0.9999
vn 0.0277 -0.0046 0.9996
vn 0.0108 0.0104 0.9999
vn 0.0102 0.0115 0.9999
vn 0.0092 0.0124 0.9999
vn 0.4912 0.0029 -0.8710
vn 0.4934 0.0064 -0.8698
vn 0.4758 0.0036 0.8795
vn 0.4627 0.0154 0.8864
vn 0.5215 0.0044 -0.8532
vn 0.5215 0.0067 -0.8532
vn -0.0003 0.0009 1.0000
vn -0.0000 -0.0001 1.0000
vn 0.0113 0.0101 0.9999
vn 0.0118 0.0094 0.9999
vn 0.0107 0.0102 0.9999
vn -0.0000 0.0986 0.9951
vt 0.000000 0.000000
s 0
f 7/1/1 8/1/1 9/1/1
f 2/1/1 7/1/1 3/1/1
f 4/1/1 8/1/1 6/1/1
f 13/1/1 14/1/1 15/1/1
f 18/1/1 19/1/1 20/1/1
f 14/1/1 18/1/1 15/1/1
f 12/1/1 11/1/1 14/1/1
f 14/1/1 16/1/1 17/1/1
f 8/1/1 13/1/1 9/1/1
f 5/1/1 12/1/1 8/1/1
f 26/1/1 27/1/1 28/1/1
f 38/1/2 37/1/2 36/1/2
f 42/1/3 45/1/3 43/1/3
f 42/1/4 47/1/4 46/1/4
f 34/1/5 44/1/5 33/1/5
f 33/1/6 37/1/6 34/1/6
f 37/1/7 41/1/7 40/1/7
f 45/1/8 48/1/8 43/1/8
f 48/1/9 47/1/9 43/1/9
f 37/1/10 35/1/10 34/1/10
f 34/1/11 49/1/11 45/1/11
f 53/1/12 52/1/12 51/1/12
f 62/1/13 65/1/13 63/1/13
f 60/1/14 63/1/14 61/1/14
f 54/1/15 57/1/15 58/1/15
f 60/1/16 58/1/16 57/1/16
f 52/1/17 56/1/17 55/1/17
f 65/1/18 67/1/18 63/1/18
f 66/1/19 63/1/19 67/1/19
f 58/1/20 66/1/20 59/1/20
f 54/1/21 59/1/21 56/1/21
f 38/1/22 52/1/22 39/1/22
f 52/1/23 41/1/23 39/1/23
f 72/1/24 75/1/24 73/1/24
f 80/1/25 83/1/25 81/1/25
f 78/1/26 81/1/26 79/1/26
f 74/1/27 79/1/27 75/1/27
f 76/1/28 75/1/28 77/1/28
f 83/1/29 85/1/29 81/1/29
f 84/1/30 81/1/30 85/1/30
f 75/1/31 84/1/31 77/1/31
f 91/1/32 90/1/32 89/1/32
f 88/1/33 91/1/33 87/1/33
f 100/1/34 101/1/34 99/1/34
f 90/1/35 99/1/35 89/1/35
f 101/1/36 97/1/36 96/1/36
f 90/1/37 95/1/37 94/1/37
f 88/1/38 95/1/38 92/1/38
f 100/1/39 104/1/39 102/1/39
f 97/1/40 104/1/40 98/1/40
f 90/1/41 103/1/41 100/1/41
f 108/1/42 111/1/42 109/1/42
f 111/1/42 112/1/42 109/1/42
f 83/1/43 105/1/43 106/1/43
f 83/1/44 107/1/44 86/1/44
f 97/1/45 110/1/45 96/1/45
f 97/1/46 113/1/46 111/1/46
f 108/1/47 106/1/47 105/1/47
f 106/1/48 112/1/48 107/1/48
f 116/1/49 119/1/49 117/1/49
f 118/1/50 121/1/50 119/1/50
f 116/1/51 115/1/51 118/1/51
f 118/1/52 115/1/52 120/1/52
f 123/1/53 124/1/53 125/1/53
f 128/1/54 131/1/54 129/1/54
f 125/1/55 128/1/55 129/1/55
f 123/1/56 127/1/56 126/1/56
f 129/1/57 133/1/57 132/1/57
f 127/1/58 129/1/58 132/1/58
f 134/1/59 137/1/59 135/1/59
f 131/1/60 134/1/60 135/1/60
f 131/1/61 138/1/61 133/1/61
f 20/1/1 69/1/1 70/1/1
f 28/1/1 72/1/1 73/1/1
f 29/1/1 73/1/1 76/1/1
f 31/1/62 87/1/62 30/1/62
f 31/1/63 93/1/63 88/1/63
f 65/1/64 122/1/64 123/1/64
f 65/1/65 126/1/65 68/1/65
f 46/1/66 31/1/66 30/1/66
f 31/1/67 50/1/67 32/1/67
f 1/1/68 3/1/68 21/1/68
f 7/1/69 23/1/69 22/1/69
f 21/1/70 7/1/70 22/1/70
f 18/1/1 27/1/1 25/1/1
f 24/1/1 18/1/1 25/1/1
f 72/1/71 71/1/71 74/1/71
f 134/1/72 119/1/72 136/1/72
f 119/1/73 139/1/73 136/1/73
f 114/1/74 134/1/74 130/1/74
f 20/1/1 72/1/1 27/1/1
f 140/1/75 143/1/75 142/1/75
f 142/1/76 120/1/76 115/1/76
f 149/1/1 147/1/1 148/1/1
f 144/1/1 148/1/1 145/1/1
f 156/1/1 155/1/1 157/1/1
f 152/1/1 151/1/1 153/1/1
f 147/1/1 153/1/1 148/1/1
f 154/1/1 159/1/1 158/1/1
f 151/1/1 157/1/1 153/1/1
f 163/1/1 160/1/1 161/1/1
f 167/1/1 164/1/1 165/1/1
f 171/1/1 168/1/1 169/1/1
f 175/1/1 172/1/1 173/1/1
f 182/1/1 184/1/1 185/1/1
f 179/1/1 180/1/1 181/1/1
f 181/1/1 176/1/1 177/1/1
f 185/1/1 180/1/1 178/1/1
f 187/1/1 182/1/1 185/1/1
f 7/1/1 6/1/1 8/1/1
f 2/1/1 6/1/1 7/1/1
f 4/1/1 5/1/1 8/1/1
f 13/1/1 12/1/1 14/1/1
f 18/1/1 17/1/1 19/1/1
f 14/1/1 17/1/1 18/1/1
f 12/1/1 10/1/1 11/1/1
f 14/1/1 11/1/1 16/1/1
f 8/1/1 12/1/1 13/1/1
f 5/1/1 10/1/1 12/1/1
f 26/1/1 25/1/1 27/1/1
f 38/1/77 39/1/77 37/1/77
f 42/1/78 44/1/78 45/1/78
f 42/1/79 43/1/79 47/1/79
f 34/1/80 45/1/80 44/1/80
f 33/1/81 36/1/81 37/1/81
f 37/1/82 39/1/82 41/1/82
f 45/1/83 49/1/83 48/1/83
f 48/1/84 50/1/84 47/1/84
f 37/1/85 40/1/85 35/1/85
f 34/1/86 35/1/86 49/1/86
f 53/1/87 54/1/87 52/1/87
f 62/1/88 64/1/88 65/1/88
f 60/1/89 62/1/89 63/1/89
f 54/1/90 53/1/90 57/1/90
f 60/1/91 61/1/91 58/1/91
f 52/1/92 54/1/92 56/1/92
f 65/1/93 68/1/93 67/1/93
f 66/1/94 61/1/94 63/1/94
f 58/1/95 61/1/95 66/1/95
f 54/1/96 58/1/96 59/1/96
f 38/1/97 51/1/97 52/1/97
f 52/1/98 55/1/98 41/1/98
f 72/1/99 74/1/99 75/1/99
f 80/1/100 82/1/100 83/1/100
f 78/1/101 80/1/101 81/1/101
f 74/1/102 78/1/102 79/1/102
f 76/1/24 73/1/24 75/1/24
f 83/1/103 86/1/103 85/1/103
f 84/1/104 79/1/104 81/1/104
f 75/1/105 79/1/105 84/1/105
f 91/1/106 92/1/106 90/1/106
f 88/1/107 92/1/107 91/1/107
f 100/1/108 102/1/108 101/1/108
f 90/1/109 100/1/109 99/1/109
f 101/1/110 102/1/110 97/1/110
f 90/1/106 92/1/106 95/1/106
f 88/1/111 93/1/111 95/1/111
f 100/1/112 103/1/112 104/1/112
f 97/1/113 102/1/113 104/1/113
f 90/1/114 94/1/114 103/1/114
f 108/1/115 110/1/115 111/1/115
f 111/1/116 113/1/116 112/1/116
f 83/1/117 82/1/117 105/1/117
f 83/1/118 106/1/118 107/1/118
f 97/1/119 111/1/119 110/1/119
f 97/1/120 98/1/120 113/1/120
f 108/1/121 109/1/121 106/1/121
f 106/1/121 109/1/121 112/1/121
f 116/1/122 118/1/122 119/1/122
f 118/1/123 120/1/123 121/1/123
f 123/1/124 122/1/124 124/1/124
f 128/1/125 130/1/125 131/1/125
f 125/1/126 124/1/126 128/1/126
f 123/1/127 125/1/127 127/1/127
f 129/1/128 131/1/128 133/1/128
f 127/1/129 125/1/129 129/1/129
f 134/1/130 136/1/130 137/1/130
f 131/1/131 130/1/131 134/1/131
f 131/1/132 135/1/132 138/1/132
f 20/1/1 19/1/1 69/1/1
f 28/1/1 27/1/1 72/1/1
f 29/1/1 28/1/1 73/1/1
f 31/1/133 88/1/133 87/1/133
f 31/1/134 32/1/134 93/1/134
f 65/1/135 64/1/135 122/1/135
f 65/1/136 123/1/136 126/1/136
f 46/1/137 47/1/137 31/1/137
f 31/1/138 47/1/138 50/1/138
f 7/1/139 9/1/139 23/1/139
f 21/1/140 3/1/140 7/1/140
f 18/1/1 20/1/1 27/1/1
f 24/1/1 15/1/1 18/1/1
f 72/1/1 70/1/1 71/1/1
f 134/1/141 117/1/141 119/1/141
f 119/1/142 121/1/142 139/1/142
f 114/1/143 117/1/143 134/1/143
f 20/1/1 70/1/1 72/1/1
f 140/1/75 141/1/75 143/1/75
f 142/1/144 143/1/144 120/1/144
f 149/1/1 146/1/1 147/1/1
f 144/1/1 149/1/1 148/1/1
f 156/1/1 154/1/1 155/1/1
f 152/1/1 150/1/1 151/1/1
f 147/1/1 152/1/1 153/1/1
f 154/1/1 156/1/1 159/1/1
f 151/1/1 156/1/1 157/1/1
f 163/1/1 162/1/1 160/1/1
f 167/1/1 166/1/1 164/1/1
f 171/1/1 170/1/1 168/1/1
f 175/1/1 174/1/1 172/1/1
f 182/1/1 183/1/1 184/1/1
f 179/1/1 178/1/1 180/1/1
f 181/1/1 180/1/1 176/1/1
f 185/1/1 184/1/1 180/1/1
f 187/1/1 186/1/1 182/1/1
