# Blender 4.3.2
# www.blender.org
o prison
v 399.996429 -63.336903 -85.270813
v 399.996429 -58.336903 -85.270813
v 399.996429 -63.336903 -85.760811
v 399.996429 -58.336903 -85.760811
v 399.996429 -63.336903 -86.250809
v 399.996429 -58.336903 -86.250809
v 399.996429 -63.336903 -86.740814
v 399.996429 -58.336903 -86.740814
v 399.996429 -63.336903 -87.230812
v 399.996429 -58.336903 -87.230812
v 399.996429 -63.336903 -87.720810
v 399.996429 -58.336903 -87.720810
v 399.996429 -63.336903 -88.210815
v 399.996429 -58.336903 -88.210815
v 399.996429 -63.336903 -88.700813
v 399.996429 -58.336903 -88.700813
v 399.996429 -63.336903 -89.190811
v 399.996429 -58.336903 -89.190811
v 399.996429 -63.336903 -89.680809
v 399.996429 -58.336903 -89.680809
v 399.996429 -63.336903 -90.170815
v 399.996429 -58.336903 -90.170815
v 399.996429 -63.336903 -90.660812
v 399.996429 -58.336903 -90.660812
v 399.996429 -63.336903 -91.150810
v 399.996429 -58.336903 -91.150810
v 399.996429 -63.336903 -91.640816
v 399.996429 -58.336903 -91.640816
v 399.996429 -63.336903 -92.130814
v 399.996429 -58.336903 -92.130814
v 399.996429 -63.336903 -92.620811
v 399.996429 -58.336903 -92.620811
v 399.996429 -63.336903 -93.110809
v 399.996429 -58.336903 -93.110809
v 399.996429 -63.336903 -93.600815
v 399.996429 -58.336903 -93.600815
v 399.996429 -63.336903 -94.090813
v 399.996429 -58.336903 -94.090813
v 399.996429 -63.336903 -94.580811
v 399.996429 -58.336903 -94.580811
v 400.296417 -63.336903 -85.760811
v 400.296417 -63.336903 -85.270813
v 400.296417 -58.336903 -85.270813
v 400.296417 -58.336903 -85.760811
v 400.296417 -63.336903 -86.740814
v 400.296417 -63.336903 -86.250809
v 400.296417 -58.336903 -86.250809
v 400.296417 -58.336903 -86.740814
v 400.296417 -63.336903 -87.720810
v 400.296417 -63.336903 -87.230812
v 400.296417 -58.336903 -87.230812
v 400.296417 -58.336903 -87.720810
v 400.296417 -63.336903 -88.700813
v 400.296417 -63.336903 -88.210815
v 400.296417 -58.336903 -88.210815
v 400.296417 -58.336903 -88.700813
v 400.296417 -63.336903 -89.680809
v 400.296417 -63.336903 -89.190811
v 400.296417 -58.336903 -89.190811
v 400.296417 -58.336903 -89.680809
v 400.296417 -63.336903 -90.660812
v 400.296417 -63.336903 -90.170815
v 400.296417 -58.336903 -90.170815
v 400.296417 -58.336903 -90.660812
v 400.296417 -63.336903 -91.640816
v 400.296417 -63.336903 -91.150810
v 400.296417 -58.336903 -91.150810
v 400.296417 -58.336903 -91.640816
v 400.296417 -63.336903 -92.620811
v 400.296417 -63.336903 -92.130814
v 400.296417 -58.336903 -92.130814
v 400.296417 -58.336903 -92.620811
v 400.296417 -63.336903 -93.600815
v 400.296417 -63.336903 -93.110809
v 400.296417 -58.336903 -93.110809
v 400.296417 -58.336903 -93.600815
v 400.296417 -63.336903 -94.580811
v 400.296417 -63.336903 -94.090813
v 400.296417 -58.336903 -94.090813
v 400.296417 -58.336903 -94.580811
vn -1.0000 -0.0000 -0.0000
vn 1.0000 -0.0000 -0.0000
vn -0.0000 -0.0000 1.0000
vn -0.0000 -1.0000 -0.0000
vn -0.0000 -0.0000 -1.0000
vn -0.0000 1.0000 -0.0000
vt 1.000000 0.000000
vt 0.000000 1.000000
vt 0.000000 0.000000
vt 1.000000 1.000000
s 0
f 2/1/1 3/2/1 1/3/1
f 6/1/1 7/2/1 5/3/1
f 10/1/1 11/2/1 9/3/1
f 14/1/1 15/2/1 13/3/1
f 18/1/1 19/2/1 17/3/1
f 22/1/1 23/2/1 21/3/1
f 26/1/1 27/2/1 25/3/1
f 30/1/1 31/2/1 29/3/1
f 34/1/1 35/2/1 33/3/1
f 38/1/1 39/2/1 37/3/1
f 41/2/2 43/1/2 42/3/2
f 45/2/2 47/1/2 46/3/2
f 49/2/2 51/1/2 50/3/2
f 53/2/2 55/1/2 54/3/2
f 57/2/2 59/1/2 58/3/2
f 61/2/2 63/1/2 62/3/2
f 65/2/2 67/1/2 66/3/2
f 69/2/2 71/1/2 70/3/2
f 73/2/2 75/1/2 74/3/2
f 77/2/2 79/1/2 78/3/2
f 66/3/3 26/1/3 25/3/3
f 53/2/4 13/3/4 15/2/4
f 80/4/5 39/2/5 40/4/5
f 67/1/6 28/4/6 26/1/6
f 54/3/3 14/1/3 13/3/3
f 41/2/4 1/3/4 3/2/4
f 68/4/5 27/2/5 28/4/5
f 55/1/6 16/4/6 14/1/6
f 42/3/3 2/1/3 1/3/3
f 69/2/4 29/3/4 31/2/4
f 56/4/5 15/2/5 16/4/5
f 43/1/6 4/4/6 2/1/6
f 70/3/3 30/1/3 29/3/3
f 57/2/4 17/3/4 19/2/4
f 44/4/5 3/2/5 4/4/5
f 71/1/6 32/4/6 30/1/6
f 58/3/3 18/1/3 17/3/3
f 45/2/4 5/3/4 7/2/4
f 72/4/5 31/2/5 32/4/5
f 59/1/6 20/4/6 18/1/6
f 46/3/3 6/1/3 5/3/3
f 73/2/4 33/3/4 35/2/4
f 60/4/5 19/2/5 20/4/5
f 47/1/6 8/4/6 6/1/6
f 74/3/3 34/1/3 33/3/3
f 61/2/4 21/3/4 23/2/4
f 48/4/5 7/2/5 8/4/5
f 75/1/6 36/4/6 34/1/6
f 62/3/3 22/1/3 21/3/3
f 49/2/4 9/3/4 11/2/4
f 76/4/5 35/2/5 36/4/5
f 63/1/6 24/4/6 22/1/6
f 50/3/3 10/1/3 9/3/3
f 77/2/4 37/3/4 39/2/4
f 64/4/5 23/2/5 24/4/5
f 51/1/6 12/4/6 10/1/6
f 78/3/3 38/1/3 37/3/3
f 65/2/4 25/3/4 27/2/4
f 52/4/5 11/2/5 12/4/5
f 79/1/6 40/4/6 38/1/6
f 2/1/1 4/4/1 3/2/1
f 6/1/1 8/4/1 7/2/1
f 10/1/1 12/4/1 11/2/1
f 14/1/1 16/4/1 15/2/1
f 18/1/1 20/4/1 19/2/1
f 22/1/1 24/4/1 23/2/1
f 26/1/1 28/4/1 27/2/1
f 30/1/1 32/4/1 31/2/1
f 34/1/1 36/4/1 35/2/1
f 38/1/1 40/4/1 39/2/1
f 41/2/2 44/4/2 43/1/2
f 45/2/2 48/4/2 47/1/2
f 49/2/2 52/4/2 51/1/2
f 53/2/2 56/4/2 55/1/2
f 57/2/2 60/4/2 59/1/2
f 61/2/2 64/4/2 63/1/2
f 65/2/2 68/4/2 67/1/2
f 69/2/2 72/4/2 71/1/2
f 73/2/2 76/4/2 75/1/2
f 77/2/2 80/4/2 79/1/2
f 66/3/3 67/1/3 26/1/3
f 53/2/4 54/3/4 13/3/4
f 80/4/5 77/2/5 39/2/5
f 67/1/6 68/4/6 28/4/6
f 54/3/3 55/1/3 14/1/3
f 41/2/4 42/3/4 1/3/4
f 68/4/5 65/2/5 27/2/5
f 55/1/6 56/4/6 16/4/6
f 42/3/3 43/1/3 2/1/3
f 69/2/4 70/3/4 29/3/4
f 56/4/5 53/2/5 15/2/5
f 43/1/6 44/4/6 4/4/6
f 70/3/3 71/1/3 30/1/3
f 57/2/4 58/3/4 17/3/4
f 44/4/5 41/2/5 3/2/5
f 71/1/6 72/4/6 32/4/6
f 58/3/3 59/1/3 18/1/3
f 45/2/4 46/3/4 5/3/4
f 72/4/5 69/2/5 31/2/5
f 59/1/6 60/4/6 20/4/6
f 46/3/3 47/1/3 6/1/3
f 73/2/4 74/3/4 33/3/4
f 60/4/5 57/2/5 19/2/5
f 47/1/6 48/4/6 8/4/6
f 74/3/3 75/1/3 34/1/3
f 61/2/4 62/3/4 21/3/4
f 48/4/5 45/2/5 7/2/5
f 75/1/6 76/4/6 36/4/6
f 62/3/3 63/1/3 22/1/3
f 49/2/4 50/3/4 9/3/4
f 76/4/5 73/2/5 35/2/5
f 63/1/6 64/4/6 24/4/6
f 50/3/3 51/1/3 10/1/3
f 77/2/4 78/3/4 37/3/4
f 64/4/5 61/2/5 23/2/5
f 51/1/6 52/4/6 12/4/6
f 78/3/3 79/1/3 38/1/3
f 65/2/4 66/3/4 25/3/4
f 52/4/5 49/2/5 11/2/5
f 79/1/6 80/4/6 40/4/6
