# Blender 4.3.2
# www.blender.org
o right
v 5.671176 -18.336399 7.271748
v 10.891027 -25.668297 7.272170
v 6.508019 -21.128857 7.272171
v 17.448099 -31.266012 7.272170
v 20.597794 -33.730545 7.272169
v 14.300615 -28.720707 7.272171
v 15.420562 -21.135738 7.272215
v 21.550625 -27.265802 7.272207
v 24.192942 -18.026890 7.272264
v 27.993156 -36.565960 7.272173
v 34.118523 -35.623989 7.272172
v 27.680687 -27.265802 7.272232
v 28.437180 -21.518410 7.272263
v 33.810749 -27.265802 7.272215
v 31.094986 -18.578871 7.272263
v 38.573040 -32.048988 7.272170
v 41.442997 -28.730581 7.272170
v 39.940811 -21.135738 7.272211
v 44.666611 -25.700262 7.272171
v 46.070877 -21.135738 7.272196
v 9.286039 -18.020018 7.272328
v 15.369453 -17.487581 7.273775
v 22.018816 -16.905600 7.270359
v 34.109306 -15.247867 7.272265
v 39.094742 -12.421974 7.272261
v 42.099117 -11.370881 7.272263
v 46.070877 -15.005676 7.272241
v 45.058559 -10.962724 7.272264
v 48.727840 -5.382600 7.272264
v 49.302261 -14.229901 -57.952999
v 48.864521 -8.875917 -59.094326
v 47.904469 -14.231270 -62.839951
v 47.871750 -8.881343 -62.841419
v 49.227604 0.314232 -57.907318
v 47.815498 0.312851 -62.843826
v 49.495319 -14.228649 -67.345276
v 49.023396 -8.875611 -66.103256
v 49.421520 0.315471 -67.392998
v 50.183777 -24.937716 7.272170
v 53.492874 -23.550791 7.272174
v 57.344231 -20.249611 7.272168
v 52.200939 -15.005676 7.272216
v 52.200939 -8.875611 7.272231
v 60.272305 -14.375930 7.271744
v 58.331047 -8.875623 7.258300
v 52.351032 -1.721017 7.272262
v 57.732475 -0.074478 7.246789
v 64.784203 -14.146832 7.262075
v 64.492104 -8.874320 7.269151
v 71.361732 -14.230152 5.842304
v 70.736610 -8.872998 6.027188
v 64.593102 0.441955 7.221631
v 71.339264 0.313957 5.758754
v 75.826492 -14.230070 3.536178
v 76.186554 -8.874485 3.284012
v 78.980881 -14.232016 1.362393
v 79.187485 -8.875289 1.157460
v 82.519798 -14.228779 -1.761785
v 82.395187 -8.872974 -1.663378
v 75.774940 0.314051 3.467334
v 78.924973 0.312105 1.297590
v 82.456062 0.315322 -1.819770
v 85.479156 -14.232023 -6.145340
v 85.204544 -8.875046 -5.715986
v 85.409225 0.312098 -6.195780
v 87.024437 -14.230462 -9.182811
v 86.830582 -8.874882 -8.781745
v 88.437477 -14.230156 -13.336754
v 88.480301 -8.874431 -13.628977
v 86.952042 0.313659 -9.232363
v 88.353416 0.313957 -13.353631
v 78.226585 -14.231023 -40.480888
v 78.424469 -8.875258 -40.304207
v 85.200844 -14.231867 -33.750305
v 85.057343 -8.874940 -33.888721
v 82.099930 -14.229211 -37.473068
v 82.113350 -8.873771 -37.417267
v 78.172813 0.313094 -40.413963
v 85.134857 0.312254 -33.695599
v 82.040588 0.314907 -37.410851
v 89.544441 -14.230156 -19.698744
v 89.517448 -8.873159 -19.786552
v 88.894653 -14.230156 -26.372301
v 88.868225 -8.872457 -26.346827
v 89.458351 0.313965 -19.702440
v 88.809685 0.313957 -26.355612
v 87.147873 -14.229709 -30.521355
v 86.946091 -8.874689 -30.829376
v 87.077538 0.314412 -30.471483
v 71.275864 -20.437162 -75.056068
v 81.050194 -32.530018 -75.050079
v 77.702637 -27.815029 -75.055977
v 74.033607 -23.524704 -75.054092
v 82.851257 -27.265795 -75.122353
v 82.851273 -21.135721 -75.177719
v 92.963341 -24.198664 -75.270432
v 90.266365 -20.460451 -75.271355
v 54.334057 -14.229340 -53.637718
v 54.860439 -8.875611 -53.269386
v 59.112247 -14.230717 -50.765572
v 58.251717 -8.876560 -51.216740
v 54.281616 0.314726 -53.569607
v 59.079433 0.313392 -50.685684
v 50.251949 -14.233016 -56.205555
v 50.227417 -8.882249 -56.183784
v 50.185204 0.311085 -56.146439
v 66.078674 -14.230156 -47.356426
v 66.729027 -8.875607 -46.988464
v 63.241688 -14.230145 -48.800159
v 63.664986 -8.875595 -48.549568
v 71.417038 -14.230156 -44.632839
v 70.632591 -8.875105 -45.024216
v 66.030449 0.313957 -47.284988
v 63.187363 0.313965 -48.731785
v 71.384727 0.313965 -44.552963
v 50.263435 -14.232110 -69.520477
v 50.236507 -8.880942 -69.538651
v 53.729462 -14.228999 -72.639618
v 54.011097 -8.876678 -72.866768
v 58.575409 -14.054366 -75.031380
v 58.128845 -8.880118 -74.953438
v 50.190174 0.311996 -69.569771
v 53.677094 0.315118 -72.708153
v 58.605370 0.311062 -75.147293
v 63.961315 -14.481703 -75.139900
v 64.458931 -8.876380 -75.215271
v 68.265831 -17.755188 -75.052254
v 70.591171 -8.875537 -75.178421
v 65.096352 0.261182 -75.336685
v 71.422615 -2.310268 -75.268753
v 75.119110 -14.230145 -42.510582
v 75.350418 -8.875320 -42.332138
v 75.065239 0.313973 -42.443199
v 76.721214 -15.005657 -75.170105
v 78.144165 -7.054914 -75.270729
v 84.592659 -13.459877 -75.271484
v 81.519096 -10.192810 -75.272232
v 74.983177 -4.556580 -75.272484
v 87.301102 -16.606550 -75.272614
v 119.590759 -82.247322 -79.757080
v 114.590759 -82.247322 -79.757080
v 114.438454 -74.554337 -79.706490
v 119.575943 -74.554337 -79.706490
v 114.590759 -82.447319 -79.757080
v 119.590752 -82.447319 -79.757080
v 114.590759 -90.642181 -79.757080
v 119.590752 -90.642181 -79.757080
v 119.590752 -87.642181 -79.757080
v 114.590759 -87.642181 -79.757080
v 129.590759 -90.642181 -79.757080
v 129.590759 -87.642181 -79.757080
v 124.590752 -90.642181 -79.757080
v 124.590752 -87.642181 -79.757080
v 129.590759 -57.642185 -79.757080
v 124.590752 -57.642185 -79.757080
v 129.590759 -62.642189 -79.757080
v 124.590752 -62.642189 -79.757080
v 131.590759 -57.642185 -79.757080
v 131.590759 -62.542187 -79.757080
v 131.590759 -21.642191 -60.828148
v 131.590759 -62.642189 -60.828140
v 331.590759 -21.642151 -60.828152
v 331.590759 -62.642147 -60.828144
v 336.590759 -54.737926 -80.421143
v 336.590759 -66.935883 -80.421165
v 375.823853 -54.737926 -80.421143
v 375.823853 -66.935883 -80.421165
v 331.590759 -59.327633 -88.349228
v 331.590759 -62.346191 -88.349236
v 336.590759 -59.327633 -88.349228
v 336.590759 -62.346191 -88.349236
v 375.823853 -59.327625 -88.349228
v 375.823853 -62.346184 -88.349236
v 382.883728 -59.327625 -88.349228
v 382.883728 -62.346184 -88.349236
v 382.883728 -58.368649 -84.782990
v 382.883728 -63.305161 -84.783005
v 422.116821 -58.368649 -84.782990
v 422.116821 -63.305161 -84.783005
v 412.116821 -58.368649 -84.782990
v 412.116821 -63.305161 -84.783005
v 422.116821 -14.737925 -84.782990
v 412.116821 -14.737925 -84.782990
v 412.116821 -24.737926 -84.782990
v 422.116821 -24.737926 -84.782990
v 432.116791 -14.737925 -84.782990
v 432.116791 -24.737926 -84.782990
vn -0.0000 -0.0000 -1.0000
vn -0.9666 -0.0058 0.2561
vn -0.9429 -0.0059 -0.3330
vn -0.9429 -0.0059 -0.3329
vn 0.0001 -0.0024 -1.0000
vn -0.2109 0.0091 -0.9775
vn -0.0022 0.0012 -1.0000
vn -0.0023 0.0001 -1.0000
vn -0.1951 -0.0029 -0.9808
vn 0.0018 -0.0012 -1.0000
vn -0.5782 -0.0089 -0.8159
vn -0.6618 -0.0032 -0.7497
vn -0.9467 -0.0100 -0.3220
vn -0.8913 0.0017 -0.4534
vn -0.8288 0.0024 -0.5595
vn -0.5782 -0.0041 -0.8159
vn -0.6603 -0.0084 -0.7509
vn -0.9468 -0.0034 -0.3219
vn -0.8289 -0.0107 -0.5593
vn -0.8834 -0.0048 -0.4686
vn -0.7678 -0.0048 0.6406
vn -0.6163 -0.0067 0.7875
vn -0.9951 -0.0054 0.0985
vn -0.8509 -0.0092 0.5253
vn -0.9190 -0.0120 0.3941
vn -0.7678 -0.0065 0.6406
vn -0.6133 -0.0074 0.7898
vn -0.9951 -0.0062 0.0985
vn -0.9191 -0.0022 0.3941
vn -0.8565 -0.0078 0.5161
vn -0.4589 -0.0110 -0.8884
vn -0.4496 0.0034 -0.8932
vn -0.9861 -0.0077 -0.1661
vn -0.9861 -0.0048 -0.1661
vn -0.0119 -0.0090 -0.9999
vn -0.0120 -0.0089 -0.9999
vn -0.0119 -0.0097 -0.9999
vn -0.0117 -0.0097 -0.9999
vn -0.5178 -0.0079 0.8555
vn -0.4535 -0.0059 0.8912
vn -0.4495 -0.0068 0.8933
vn -0.4420 0.0046 0.8970
vn -0.5324 -0.0059 0.8464
vn -0.5152 -0.0031 0.8571
vn -0.4545 -0.0085 0.8907
vn -0.4295 -0.0044 0.9030
vn -0.6614 0.0030 -0.7501
vn -0.4421 -0.0148 -0.8968
vn 0.0080 -0.0163 -0.9998
vn -0.0211 -0.0116 -0.9997
vn -0.6613 -0.0111 -0.7500
vn -0.4520 -0.0010 -0.8920
vn 0.0060 -0.0145 -0.9999
vn -0.0413 -0.0189 -0.9990
vn -0.0108 -0.0104 -0.9999
vn -0.4956 -0.0091 0.8685
vn -0.4973 -0.0049 0.8676
vn -0.0102 -0.0115 -0.9999
vn -0.0092 -0.0124 -0.9999
vn -0.9055 0.0164 0.4240
vn -0.8785 -0.0060 0.4777
vn -0.5468 -0.0043 0.8372
vn -0.5467 -0.0068 0.8373
vn 0.0002 -0.0001 -1.0000
vn 0.0004 -0.0010 -1.0000
vn -0.0113 -0.0101 -0.9999
vn -0.0118 -0.0094 -0.9999
vn -0.0107 -0.0102 -0.9999
vn -0.0000 0.0066 -1.0000
vn -0.0615 0.0615 -0.9962
vn -0.9613 -0.0200 0.2749
vn -0.9614 0.0025 0.2750
vn -0.0023 -0.0000 -1.0000
vn -0.1951 -0.0095 -0.9807
vn 0.0018 -0.0018 -1.0000
vn -0.0042 -0.0016 -1.0000
vn -0.2122 -0.0146 -0.9771
vn -0.0033 -0.0051 -1.0000
vn -0.5674 -0.0006 -0.8234
vn -0.6604 -0.0016 -0.7509
vn -0.9466 -0.0101 -0.3222
vn -0.8834 -0.0077 -0.4685
vn -0.8218 -0.0087 -0.5697
vn -0.5672 -0.0090 -0.8235
vn -0.6618 -0.0075 -0.7496
vn -0.9467 -0.0033 -0.3222
vn -0.8218 -0.0043 -0.5697
vn -0.8915 -0.0104 -0.4529
vn -0.7684 -0.0040 0.6400
vn -0.6133 -0.0034 0.7898
vn -0.9953 -0.0034 0.0969
vn -0.8564 -0.0026 0.5164
vn -0.9216 -0.0064 0.3880
vn -0.7684 -0.0070 0.6399
vn -0.6163 -0.0054 0.7875
vn -0.9953 -0.0073 0.0970
vn -0.9217 -0.0055 0.3879
vn -0.8509 -0.0039 0.5253
vn -0.4495 -0.0216 -0.8930
vn -0.4590 -0.0028 -0.8885
vn -0.9852 -0.0015 -0.1714
vn -0.9852 -0.0085 -0.1715
vn -0.0115 -0.0094 -0.9999
vn -0.0118 -0.0090 -0.9999
vn -0.5152 -0.0106 0.8570
vn -0.4540 -0.0061 0.8910
vn -0.4545 -0.0015 0.8908
vn -0.4297 -0.0083 0.9029
vn -0.5178 -0.0047 0.8555
vn -0.4540 -0.0058 0.8910
vn -0.4495 -0.0053 0.8933
vn -0.4419 -0.0120 0.8970
vn -0.6689 -0.0059 -0.7433
vn -0.4519 -0.0256 -0.8917
vn 0.0060 -0.0140 -0.9999
vn -0.0413 0.0115 -0.9991
vn -0.6690 -0.0059 -0.7433
vn -0.4436 0.0041 -0.8962
vn 0.0052 -0.0136 -0.9999
vn -0.0293 -0.0112 -0.9995
vn -0.0105 -0.0108 -0.9999
vn -0.4973 -0.0074 0.8675
vn -0.4956 -0.0040 0.8685
vn -0.0096 -0.0109 -0.9999
vn -0.0090 -0.0126 -0.9999
vn -0.8786 -0.0060 0.4775
vn -0.9055 -0.0190 0.4240
vn -0.5506 -0.0072 0.8347
vn -0.5507 -0.0051 0.8347
vn -0.0006 0.0004 -1.0000
vn 0.0002 0.0004 -1.0000
vn -0.0001 -0.0000 -1.0000
vn -0.0110 -0.0097 -0.9999
vn -0.0116 -0.0096 -0.9999
vn -0.0105 -0.0104 -0.9999
vn -0.0000 0.0878 -0.9961
vt 0.000000 0.000000
s 0
f 7/1/1 8/1/1 6/1/1
f 2/1/1 7/1/1 6/1/1
f 4/1/1 8/1/1 5/1/1
f 13/1/1 14/1/1 12/1/1
f 18/1/1 19/1/1 17/1/1
f 14/1/1 18/1/1 17/1/1
f 12/1/1 11/1/1 10/1/1
f 14/1/1 16/1/1 11/1/1
f 8/1/1 13/1/1 12/1/1
f 5/1/1 12/1/1 10/1/1
f 26/1/1 27/1/1 25/1/1
f 32/1/2 31/1/2 33/1/2
f 31/1/2 35/1/2 33/1/2
f 32/1/3 37/1/3 36/1/3
f 37/1/4 35/1/4 38/1/4
f 42/1/5 45/1/5 44/1/5
f 48/1/6 51/1/6 50/1/6
f 44/1/7 49/1/7 48/1/7
f 46/1/8 45/1/8 43/1/8
f 52/1/9 51/1/9 49/1/9
f 47/1/10 49/1/10 45/1/10
f 56/1/11 55/1/11 57/1/11
f 57/1/12 58/1/12 56/1/12
f 66/1/13 69/1/13 68/1/13
f 63/1/14 67/1/14 66/1/14
f 58/1/15 64/1/15 63/1/15
f 55/1/16 61/1/16 57/1/16
f 57/1/17 62/1/17 59/1/17
f 69/1/18 70/1/18 71/1/18
f 64/1/19 62/1/19 65/1/19
f 65/1/20 67/1/20 64/1/20
f 76/1/21 75/1/21 77/1/21
f 73/1/22 76/1/22 77/1/22
f 83/1/23 82/1/23 84/1/23
f 74/1/24 88/1/24 75/1/24
f 87/1/25 84/1/25 88/1/25
f 75/1/26 80/1/26 77/1/26
f 73/1/27 80/1/27 78/1/27
f 82/1/28 86/1/28 84/1/28
f 84/1/29 89/1/29 88/1/29
f 79/1/30 88/1/30 89/1/30
f 50/1/31 55/1/31 54/1/31
f 53/1/32 55/1/32 51/1/32
f 81/1/33 69/1/33 82/1/33
f 69/1/34 85/1/34 82/1/34
f 92/1/35 95/1/35 94/1/35
f 94/1/36 97/1/36 96/1/36
f 91/1/37 92/1/37 94/1/37
f 91/1/38 94/1/38 96/1/38
f 98/1/39 101/1/39 99/1/39
f 107/1/40 110/1/40 109/1/40
f 107/1/41 112/1/41 108/1/41
f 100/1/42 110/1/42 101/1/42
f 98/1/43 105/1/43 104/1/43
f 102/1/44 101/1/44 103/1/44
f 110/1/40 113/1/40 114/1/40
f 113/1/45 112/1/45 115/1/45
f 105/1/43 102/1/43 106/1/43
f 103/1/46 110/1/46 114/1/46
f 118/1/47 117/1/47 119/1/47
f 119/1/48 120/1/48 118/1/48
f 125/1/49 128/1/49 127/1/49
f 120/1/50 126/1/50 125/1/50
f 117/1/51 123/1/51 119/1/51
f 123/1/52 121/1/52 119/1/52
f 126/1/53 130/1/53 128/1/53
f 124/1/54 126/1/54 121/1/54
f 134/1/55 137/1/55 136/1/55
f 111/1/56 132/1/56 112/1/56
f 115/1/57 132/1/57 133/1/57
f 128/1/58 134/1/58 127/1/58
f 128/1/59 138/1/59 135/1/59
f 20/1/1 39/1/1 19/1/1
f 28/1/1 42/1/1 27/1/1
f 29/1/1 43/1/1 28/1/1
f 30/1/60 105/1/60 31/1/60
f 34/1/61 105/1/61 106/1/61
f 36/1/3 117/1/3 116/1/3
f 38/1/3 117/1/3 37/1/3
f 72/1/62 132/1/62 131/1/62
f 132/1/63 78/1/63 133/1/63
f 1/1/64 21/1/64 3/1/64
f 7/1/65 23/1/65 9/1/65
f 21/1/1 7/1/1 3/1/1
f 18/1/1 27/1/1 20/1/1
f 24/1/1 18/1/1 15/1/1
f 42/1/1 41/1/1 40/1/1
f 134/1/66 95/1/66 93/1/66
f 95/1/67 139/1/67 97/1/67
f 90/1/68 134/1/68 93/1/68
f 20/1/1 42/1/1 40/1/1
f 143/1/69 141/1/69 142/1/69
f 96/1/70 142/1/70 91/1/70
f 148/1/1 146/1/1 149/1/1
f 145/1/1 149/1/1 144/1/1
f 153/1/1 150/1/1 152/1/1
f 148/1/1 152/1/1 147/1/1
f 157/1/1 154/1/1 156/1/1
f 153/1/1 156/1/1 151/1/1
f 154/1/1 159/1/1 156/1/1
f 162/1/1 161/1/1 160/1/1
f 166/1/1 165/1/1 164/1/1
f 170/1/1 169/1/1 168/1/1
f 174/1/1 173/1/1 172/1/1
f 178/1/1 181/1/1 180/1/1
f 180/1/1 177/1/1 176/1/1
f 183/1/1 185/1/1 184/1/1
f 184/1/1 178/1/1 180/1/1
f 186/1/1 185/1/1 182/1/1
f 7/1/1 9/1/1 8/1/1
f 2/1/1 3/1/1 7/1/1
f 4/1/1 6/1/1 8/1/1
f 13/1/1 15/1/1 14/1/1
f 18/1/1 20/1/1 19/1/1
f 14/1/1 15/1/1 18/1/1
f 12/1/1 14/1/1 11/1/1
f 14/1/1 17/1/1 16/1/1
f 8/1/1 9/1/1 13/1/1
f 5/1/1 8/1/1 12/1/1
f 26/1/1 28/1/1 27/1/1
f 32/1/71 30/1/71 31/1/71
f 31/1/72 34/1/72 35/1/72
f 32/1/4 33/1/4 37/1/4
f 37/1/4 33/1/4 35/1/4
f 42/1/73 43/1/73 45/1/73
f 48/1/74 49/1/74 51/1/74
f 44/1/75 45/1/75 49/1/75
f 46/1/76 47/1/76 45/1/76
f 52/1/77 53/1/77 51/1/77
f 47/1/78 52/1/78 49/1/78
f 56/1/79 54/1/79 55/1/79
f 57/1/80 59/1/80 58/1/80
f 66/1/81 67/1/81 69/1/81
f 63/1/82 64/1/82 67/1/82
f 58/1/83 59/1/83 64/1/83
f 55/1/84 60/1/84 61/1/84
f 57/1/85 61/1/85 62/1/85
f 69/1/86 67/1/86 70/1/86
f 64/1/87 59/1/87 62/1/87
f 65/1/88 70/1/88 67/1/88
f 76/1/89 74/1/89 75/1/89
f 73/1/90 72/1/90 76/1/90
f 83/1/91 81/1/91 82/1/91
f 74/1/92 87/1/92 88/1/92
f 87/1/93 83/1/93 84/1/93
f 75/1/94 79/1/94 80/1/94
f 73/1/95 77/1/95 80/1/95
f 82/1/96 85/1/96 86/1/96
f 84/1/97 86/1/97 89/1/97
f 79/1/98 75/1/98 88/1/98
f 50/1/99 51/1/99 55/1/99
f 53/1/100 60/1/100 55/1/100
f 81/1/101 68/1/101 69/1/101
f 69/1/102 71/1/102 85/1/102
f 92/1/103 93/1/103 95/1/103
f 94/1/104 95/1/104 97/1/104
f 98/1/105 100/1/105 101/1/105
f 107/1/106 108/1/106 110/1/106
f 107/1/107 111/1/107 112/1/107
f 100/1/108 109/1/108 110/1/108
f 98/1/43 99/1/43 105/1/43
f 102/1/109 99/1/109 101/1/109
f 110/1/110 108/1/110 113/1/110
f 113/1/111 108/1/111 112/1/111
f 105/1/43 99/1/43 102/1/43
f 103/1/112 101/1/112 110/1/112
f 118/1/113 116/1/113 117/1/113
f 119/1/114 121/1/114 120/1/114
f 125/1/115 126/1/115 128/1/115
f 120/1/116 121/1/116 126/1/116
f 117/1/117 122/1/117 123/1/117
f 123/1/118 124/1/118 121/1/118
f 126/1/119 129/1/119 130/1/119
f 124/1/120 129/1/120 126/1/120
f 134/1/121 135/1/121 137/1/121
f 111/1/122 131/1/122 132/1/122
f 115/1/123 112/1/123 132/1/123
f 128/1/124 135/1/124 134/1/124
f 128/1/125 130/1/125 138/1/125
f 20/1/1 40/1/1 39/1/1
f 28/1/1 43/1/1 42/1/1
f 29/1/1 46/1/1 43/1/1
f 30/1/126 104/1/126 105/1/126
f 34/1/127 31/1/127 105/1/127
f 36/1/3 37/1/3 117/1/3
f 38/1/3 122/1/3 117/1/3
f 72/1/128 73/1/128 132/1/128
f 132/1/129 73/1/129 78/1/129
f 7/1/130 22/1/130 23/1/130
f 21/1/131 22/1/131 7/1/131
f 18/1/1 25/1/1 27/1/1
f 24/1/1 25/1/1 18/1/1
f 42/1/132 44/1/132 41/1/132
f 134/1/133 136/1/133 95/1/133
f 95/1/134 136/1/134 139/1/134
f 90/1/135 127/1/135 134/1/135
f 20/1/1 27/1/1 42/1/1
f 143/1/69 140/1/69 141/1/69
f 96/1/136 143/1/136 142/1/136
f 148/1/1 147/1/1 146/1/1
f 145/1/1 148/1/1 149/1/1
f 153/1/1 151/1/1 150/1/1
f 148/1/1 153/1/1 152/1/1
f 157/1/1 155/1/1 154/1/1
f 153/1/1 157/1/1 156/1/1
f 154/1/1 158/1/1 159/1/1
f 162/1/1 163/1/1 161/1/1
f 166/1/1 167/1/1 165/1/1
f 170/1/1 171/1/1 169/1/1
f 174/1/1 175/1/1 173/1/1
f 178/1/1 179/1/1 181/1/1
f 180/1/1 181/1/1 177/1/1
f 183/1/1 182/1/1 185/1/1
f 184/1/1 185/1/1 178/1/1
f 186/1/1 187/1/1 185/1/1
