# Blender 4.3.2
# www.blender.org
o tunnel
v 5.671176 -18.336399 7.271748
v 5.663892 -18.314054 -1.419379
v 10.891027 -25.668297 7.272170
v 6.508019 -21.128857 7.272171
v 10.874551 -25.652555 -1.418945
v 6.508013 -21.128853 -1.418945
v 5.667833 -18.298233 -7.272458
v 10.891027 -25.668297 -7.272137
v 6.508001 -21.128820 -7.272137
v 17.448099 -31.266012 7.272170
v 17.354485 -31.192469 -1.418945
v 20.597794 -33.730545 7.272169
v 21.319086 -34.133488 -1.418945
v 14.300615 -28.720707 7.272171
v 15.420562 -21.135738 7.272215
v 14.277218 -28.700733 -1.418945
v 21.550625 -27.265802 7.272207
v 24.192942 -18.026890 7.272264
v 24.430925 -18.222675 -1.418945
v 17.448095 -31.266012 -7.272137
v 20.597797 -33.730541 -7.272137
v 14.300612 -28.720711 -7.272137
v 15.420562 -21.135738 -7.272137
v 21.550625 -27.265802 -7.272137
v 24.192940 -18.026890 -7.272137
v 27.993156 -36.565960 7.272173
v 27.993227 -36.565975 -1.418945
v 34.118523 -35.623989 7.272172
v 34.118595 -35.623928 -1.418947
v 27.680687 -27.265802 7.272232
v 28.437180 -21.518410 7.272263
v 28.437180 -21.518410 -1.418945
v 33.810749 -27.265802 7.272215
v 31.094986 -18.578871 7.272263
v 31.160294 -18.508955 -1.418945
v 27.993233 -36.565975 -7.272139
v 34.118725 -35.623829 -7.272137
v 27.680687 -27.265802 -7.272137
v 28.437180 -21.518410 -7.272137
v 33.810749 -27.265802 -7.272137
v 31.094986 -18.578871 -7.272137
v 38.573040 -32.048988 7.272170
v 38.599159 -32.024666 -1.418945
v 41.442997 -28.730581 7.272170
v 39.940811 -21.135738 7.272211
v 41.469563 -28.703997 -1.418945
v 44.666611 -25.700262 7.272171
v 46.070877 -21.135738 7.272196
v 44.666615 -25.700262 -1.418945
v 38.573040 -32.048988 -7.272137
v 41.442997 -28.730585 -7.272137
v 39.940811 -21.135738 -7.272137
v 44.666622 -25.700258 -7.272137
v 46.070877 -21.135738 -7.272137
v 9.286039 -18.020018 7.272328
v 9.282713 -17.981850 -7.271902
v 15.369453 -17.487581 7.273775
v 22.018816 -16.905600 7.270359
v 22.544096 -16.836649 -1.419419
v 15.366124 -17.449415 -7.270491
v 22.015474 -16.867435 -7.273941
v 34.109306 -15.247867 7.272265
v 34.863304 -14.683794 -1.418945
v 34.109314 -15.247867 -7.272137
v 39.094742 -12.421974 7.272261
v 42.099117 -11.370881 7.272263
v 38.615421 -12.620495 -1.418945
v 41.723305 -11.450773 -1.418945
v 46.070877 -15.005676 7.272241
v 45.058559 -10.962724 7.272264
v 45.058556 -10.962729 -1.418945
v 48.727840 -5.382600 7.272264
v 48.751534 -5.353399 -1.418945
v 39.094727 -12.421962 -7.272139
v 42.099106 -11.370870 -7.272137
v 46.070877 -15.005676 -7.272137
v 45.058559 -10.962724 -7.272137
v 48.727837 -5.382600 -7.272137
v 48.087524 -14.315721 -40.385712
v 47.870869 -8.875823 -40.477978
v 48.033817 0.228408 -40.318169
v 35.965424 -14.316340 -52.353886
v 36.082588 -8.876348 -52.076607
v 35.895309 0.227788 -52.303783
v 34.317486 -14.315748 -56.199421
v 34.266220 -8.878867 -56.268105
v 33.820107 -14.314501 -62.707020
v 33.788029 -8.876968 -62.717876
v 34.232471 0.228385 -56.182274
v 33.734509 0.229624 -62.708210
v 41.098278 -14.315945 -45.520775
v 41.065220 -8.876493 -45.508461
v 37.955399 -14.314074 -49.077679
v 37.988960 -8.876482 -48.981983
v 44.801392 -14.315627 -42.382301
v 44.716270 -8.876670 -42.406071
v 46.070869 -14.273700 -50.459438
v 41.039169 0.228181 -45.458775
v 37.889874 0.230040 -49.022514
v 44.746212 0.228479 -42.316452
v 46.070869 0.270888 -50.459438
v 39.940796 -14.283429 -56.589504
v 39.940792 -14.277933 -62.719574
v 49.302261 -14.229901 -57.952999
v 48.864521 -8.875917 -59.094326
v 47.904469 -14.231270 -62.839951
v 47.871750 -8.881343 -62.841419
v 39.940796 0.261198 -56.589504
v 39.940792 0.266683 -62.719574
v 49.227604 0.314232 -57.907318
v 47.815498 0.312851 -62.843826
v 34.516220 -14.317114 -69.130249
v 34.443485 -8.878173 -68.936852
v 36.091190 -14.315681 -72.945473
v 36.192837 -8.876168 -73.264145
v 34.431442 0.227004 -69.145660
v 36.019264 0.228447 -72.994904
v 39.940800 -14.285504 -68.849648
v 37.711060 -14.313920 -76.096985
v 37.829277 -8.876391 -76.359398
v 49.495319 -14.228649 -67.345276
v 49.023396 -8.875611 -66.103256
v 46.070866 -14.270840 -74.979706
v 39.940800 0.259119 -68.849648
v 37.641804 0.230197 -76.148170
v 49.421520 0.315471 -67.392998
v 46.070866 0.273768 -74.979706
v 40.671761 -14.317066 -80.417091
v 40.723293 -8.877871 -80.523643
v 44.202076 -14.314050 -83.548882
v 43.957153 -8.876098 -83.401207
v 47.347172 -14.315615 -85.730827
v 46.994812 -8.876517 -85.562622
v 40.608883 0.227043 -80.475967
v 44.146126 0.230064 -83.613831
v 47.295685 0.228502 -85.799927
v 50.183777 -24.937716 7.272170
v 53.492874 -23.550791 7.272174
v 50.577835 -24.830196 -1.418945
v 53.745319 -23.397751 -1.418945
v 57.344231 -20.249611 7.272168
v 57.066917 -20.594757 -1.418945
v 50.183784 -24.937708 -7.272137
v 53.492874 -23.550791 -7.272137
v 57.344231 -20.249611 -7.272137
v 52.200939 -15.005676 7.272216
v 52.200939 -8.875611 7.272231
v 60.272305 -14.375930 7.271744
v 58.331047 -8.875623 7.258300
v 60.276352 -14.368217 -1.421111
v 52.351032 -1.721017 7.272262
v 52.350983 -1.721048 -1.418945
v 57.732475 -0.074478 7.246789
v 58.263447 0.104121 -1.419402
v 52.200939 -15.005676 -7.272137
v 52.200939 -8.875611 -7.272137
v 60.273918 -14.372949 -7.263047
v 58.331017 -8.875607 -7.261956
v 52.351009 -1.721036 -7.272137
v 57.861073 0.110289 -7.272861
v 64.784203 -14.146832 7.262075
v 64.492104 -8.874320 7.269151
v 64.458191 -14.197629 -1.419254
v 71.361732 -14.230152 5.842304
v 70.736610 -8.872998 6.027188
v 70.591133 -14.271460 -1.418930
v 64.593102 0.441955 7.221631
v 64.459457 0.331282 -1.419221
v 71.339264 0.313957 5.758754
v 70.591133 0.273164 -1.418930
v 64.992805 -14.219465 -7.253002
v 64.993141 -8.869765 -7.276516
v 69.372978 -14.316831 -9.496138
v 69.165245 -8.874167 -9.391448
v 72.373116 -14.314466 -12.266200
v 72.324074 -8.872414 -12.254644
v 64.920914 0.227380 -7.299595
v 69.320503 0.227294 -9.564637
v 72.311615 0.229640 -12.329359
v 51.521561 -14.315830 -38.437664
v 52.163876 -8.876074 -38.057137
v 60.036148 -14.315733 -34.112514
v 59.677288 -8.875595 -34.259689
v 57.114040 -14.315635 -35.598248
v 56.610970 -8.875607 -35.817719
v 51.489487 0.228290 -38.357750
v 59.981674 0.228385 -34.044212
v 57.065823 0.228494 -35.526772
v 71.924973 -14.313684 -27.347853
v 72.113716 -8.871696 -27.114376
v 71.864388 0.230425 -27.284916
v 63.796646 -14.315568 -32.217026
v 64.501915 -8.875109 -31.796988
v 64.461067 -14.282515 -38.199322
v 68.863411 -14.316494 -29.290133
v 68.366867 -8.875466 -29.555443
v 70.591125 -14.265759 -38.199326
v 63.764740 0.228549 -32.136925
v 64.461067 0.262108 -38.199322
v 68.811966 0.227616 -29.221239
v 70.591125 0.278868 -38.199326
v 75.826492 -14.230070 3.536178
v 76.186554 -8.874485 3.284012
v 78.980881 -14.232016 1.362393
v 79.187485 -8.875289 1.157460
v 82.519798 -14.228779 -1.761785
v 82.395187 -8.872974 -1.663378
v 75.774940 0.314051 3.467334
v 78.924973 0.312105 1.297590
v 82.456062 0.315322 -1.819770
v 76.721199 -14.278851 -7.548996
v 73.672913 -14.317309 -14.966354
v 74.003662 -8.875278 -15.882580
v 85.479156 -14.232023 -6.145340
v 85.204544 -8.875046 -5.715986
v 82.851265 -14.262833 -13.679068
v 76.721199 0.265765 -7.548996
v 73.598625 0.226807 -15.011094
v 85.409225 0.312098 -6.195780
v 82.851265 0.281795 -13.679068
v 87.024437 -14.230462 -9.182811
v 86.830582 -8.874882 -8.781745
v 88.437477 -14.230156 -13.336754
v 88.480301 -8.874431 -13.628977
v 86.952042 0.313659 -9.232363
v 88.353416 0.313957 -13.353631
v 75.276199 -14.313441 -19.795240
v 75.242928 -8.870225 -19.796320
v 73.913857 -14.317227 -24.677607
v 74.219269 -8.874579 -23.898232
v 82.851265 -14.269227 -19.809134
v 82.851280 -14.265598 -25.939203
v 75.187363 0.230613 -19.798315
v 73.838921 0.226956 -24.633244
v 82.851265 0.275353 -19.809134
v 82.851280 0.279049 -25.939203
v 76.721199 -14.275551 -32.069271
v 78.226585 -14.231023 -40.480888
v 78.424469 -8.875258 -40.304207
v 85.200844 -14.231867 -33.750305
v 85.057343 -8.874940 -33.888721
v 82.099930 -14.229211 -37.473068
v 82.113350 -8.873771 -37.417267
v 76.721199 0.269092 -32.069271
v 78.172813 0.313094 -40.413963
v 85.134857 0.312254 -33.695599
v 82.040588 0.314907 -37.410851
v 89.544441 -14.230156 -19.698744
v 89.517448 -8.873159 -19.786552
v 88.894653 -14.230156 -26.372301
v 88.868225 -8.872457 -26.346827
v 89.458351 0.313965 -19.702440
v 88.809685 0.313957 -26.355612
v 87.147873 -14.229709 -30.521355
v 86.946091 -8.874689 -30.829376
v 87.077538 0.314412 -30.471483
v 71.275864 -20.437162 -75.056068
v 71.217979 -20.507231 -81.112831
v 71.121498 -20.589794 -89.598793
v 81.050194 -32.530018 -75.050079
v 77.702637 -27.815029 -75.055977
v 74.033607 -23.524704 -75.054092
v 82.851257 -27.265795 -75.122353
v 82.851273 -21.135721 -75.177719
v 80.945663 -32.758015 -89.591858
v 77.058777 -27.158453 -81.112312
v 74.081871 -23.716396 -81.109772
v 77.509644 -27.921427 -89.598686
v 73.873978 -23.671562 -89.596848
v 82.851265 -27.265791 -89.668114
v 82.851273 -21.135721 -89.723679
v 92.963341 -24.198664 -75.270432
v 90.266365 -20.460451 -75.271355
v 90.233704 -20.524324 -81.110847
v 92.866135 -24.442923 -89.810928
v 90.120918 -20.553070 -89.814743
v 52.200939 -14.283037 -44.329380
v 54.334057 -14.229340 -53.637718
v 54.860439 -8.875611 -53.269386
v 58.331001 -14.266450 -44.329384
v 59.112247 -14.230717 -50.765572
v 58.251717 -8.876560 -51.216740
v 52.200939 0.261598 -44.329380
v 54.281616 0.314726 -53.569607
v 58.331001 0.278170 -44.329384
v 59.079433 0.313392 -50.685684
v 50.251949 -14.233016 -56.205555
v 50.227417 -8.882249 -56.183784
v 50.185204 0.311085 -56.146439
v 66.078674 -14.230156 -47.356426
v 66.729027 -8.875607 -46.988464
v 63.241688 -14.230145 -48.800159
v 63.664986 -8.875595 -48.549568
v 71.417038 -14.230156 -44.632839
v 70.632591 -8.875105 -45.024216
v 66.030449 0.313957 -47.284988
v 63.187363 0.313965 -48.731785
v 71.384727 0.313965 -44.552963
v 50.263435 -14.232110 -69.520477
v 50.236507 -8.880942 -69.538651
v 53.729462 -14.228999 -72.639618
v 54.011097 -8.876678 -72.866768
v 58.575409 -14.054366 -75.031380
v 58.128845 -8.880118 -74.953438
v 50.190174 0.311996 -69.569771
v 53.677094 0.315118 -72.708153
v 58.605370 0.311062 -75.147293
v 52.200935 -14.276897 -81.109772
v 51.509033 -14.316839 -87.982269
v 52.060646 -8.878158 -88.206924
v 58.340813 -14.097611 -81.111420
v 58.000851 -14.158005 -89.546066
v 58.299843 -8.877683 -89.563751
v 52.200935 0.267711 -81.109772
v 51.485302 0.227262 -88.065163
v 58.331005 0.265945 -81.109734
v 57.944366 0.202523 -89.512451
v 63.961315 -14.481703 -75.139900
v 64.458931 -8.876380 -75.215271
v 68.265831 -17.755188 -75.052254
v 70.591171 -8.875537 -75.178421
v 65.096352 0.261182 -75.336685
v 71.422615 -2.310268 -75.268753
v 63.935600 -14.564694 -81.120598
v 63.864288 -14.669235 -89.593117
v 64.460266 -8.876098 -89.734367
v 68.023056 -17.670322 -81.110146
v 68.122307 -17.917849 -89.594887
v 70.591171 -8.875537 -89.724434
v 64.624252 0.275212 -81.117775
v 64.928787 0.110014 -89.914673
v 70.714203 -2.067485 -81.114006
v 71.345329 -2.513897 -89.811531
v 75.119110 -14.230145 -42.510582
v 75.350418 -8.875320 -42.332138
v 75.065239 0.313973 -42.443199
v 76.721214 -15.005657 -75.170105
v 78.144165 -7.054914 -75.270729
v 84.592659 -13.459877 -75.271484
v 81.519096 -10.192810 -75.272232
v 74.983177 -4.556580 -75.272484
v 78.157471 -7.179134 -81.111198
v 76.721214 -15.005657 -89.716103
v 77.998497 -7.215922 -89.813438
v 84.520607 -13.510200 -81.110550
v 81.468246 -10.264757 -81.110870
v 84.434769 -13.608539 -89.814178
v 81.365059 -10.345575 -89.814949
v 75.087265 -4.731044 -81.111275
v 74.839874 -4.721719 -89.815201
v 87.301102 -16.606550 -75.272614
v 87.148300 -16.579294 -81.110504
v 87.114983 -16.761896 -89.814949
v 119.590759 -82.247322 -79.757080
v 114.590759 -82.247322 -84.757072
v 114.590759 -82.247322 -79.757080
v 119.590759 -82.247322 -84.757072
v 114.438454 -74.554337 -84.843987
v 114.438454 -74.554337 -79.706490
v 119.575943 -74.554337 -79.706490
v 119.575943 -74.554337 -84.843987
vn 0.7194 0.6946 -0.0001
vn 0.9579 0.2872 -0.0001
vn 0.6162 0.7876 -0.0000
vn -0.0000 -0.0000 -1.0000
vn -0.0000 -0.0000 1.0000
vn 0.6672 0.7448 0.0001
vn 0.7195 0.6945 -0.0000
vn 0.9587 0.2845 0.0014
vn 0.6288 0.7776 -0.0002
vn 0.6293 0.7772 -0.0001
vn 0.6672 0.7448 -0.0001
vn -0.1520 0.9884 -0.0000
vn 0.7415 -0.6710 0.0002
vn -0.6849 0.7286 0.0001
vn -0.6259 0.7799 -0.0000
vn 0.7415 -0.6710 -0.0003
vn -0.6849 0.7286 -0.0002
vn -0.7565 0.6540 -0.0003
vn -0.7564 0.6541 0.0007
vn 0.3580 0.9336 -0.0136
vn -0.6353 -0.7723 -0.0000
vn 0.3579 0.9335 0.0202
vn 0.3302 -0.9439 -0.0056
vn 0.1366 -0.9906 -0.0000
vn 0.4818 -0.8762 -0.0066
vn 0.3522 -0.9359 -0.0029
vn 0.8355 -0.5494 -0.0000
vn 0.8352 -0.5499 -0.0006
vn 0.4818 -0.8762 0.0097
vn 0.9971 0.0084 -0.0762
vn 0.7486 0.0061 -0.6630
vn 0.6465 0.0068 -0.7629
vn -0.0042 1.0000 0.0043
vn 0.0040 -1.0000 -0.0046
vn -0.9666 -0.0058 0.2561
vn -0.0058 1.0000 0.0009
vn 0.0055 -1.0000 -0.0013
vn 0.8547 0.0081 -0.5191
vn -0.0060 1.0000 0.0006
vn 0.0057 -1.0000 -0.0009
vn 0.9176 0.0005 -0.3976
vn -0.0045 1.0000 0.0029
vn 0.0052 -1.0000 -0.0036
vn 0.9971 0.0044 -0.0761
vn 0.7486 0.0058 -0.6630
vn 0.6475 0.0060 -0.7620
vn 0.9175 0.0090 -0.3976
vn 0.8514 0.0069 -0.5245
vn -0.0056 1.0000 0.0025
vn 0.0055 -1.0000 -0.0026
vn 0.9243 -0.0012 0.3816
vn -0.0048 1.0000 -0.0024
vn 0.0055 -1.0000 0.0031
vn 0.5798 0.0040 0.8148
vn 0.6647 0.0083 0.7470
vn 0.8840 0.0033 0.4674
vn -0.0057 1.0000 -0.0020
vn 0.0054 -1.0000 0.0022
vn 0.8248 0.0093 0.5653
vn -0.0046 1.0000 -0.0039
vn 0.0045 -1.0000 0.0041
vn 0.9244 0.0100 0.3813
vn 0.5797 0.0070 0.8148
vn 0.6636 0.0037 0.7481
vn 0.8248 0.0039 0.5655
vn 0.8892 0.0034 0.4575
vn 0.9945 0.0061 0.1048
vn -0.9429 -0.0059 -0.3330
vn -0.0059 1.0000 -0.0012
vn 0.0057 -1.0000 0.0014
vn 0.9945 0.0057 0.1048
vn -0.9429 -0.0059 -0.3329
vn -0.0060 1.0000 -0.0011
vn 0.0058 -1.0000 0.0012
vn -0.4121 0.9112 0.0041
vn -0.6449 0.7642 -0.0053
vn -0.3865 0.9222 0.0091
vn -0.6449 0.7642 0.0078
vn 0.0001 -0.0024 -1.0000
vn 0.2950 -0.9555 -0.0016
vn -0.0017 -0.0000 1.0000
vn -0.2109 0.0091 -0.9775
vn 0.0113 0.9999 -0.0063
vn -0.0095 -0.9999 0.0067
vn 0.6715 0.0114 0.7409
vn 0.4521 0.0039 0.8919
vn -0.0022 0.0012 -1.0000
vn -0.0408 0.9992 0.0009
vn 0.0366 -0.9993 0.0122
vn 0.0022 0.0006 1.0000
vn 0.0120 0.9999 -0.0026
vn 0.2949 -0.9553 -0.0213
vn 0.0027 -1.0000 0.0052
vn -0.0023 0.0001 -1.0000
vn -0.0003 0.0012 1.0000
vn -0.1951 -0.0029 -0.9808
vn 0.6716 0.0026 0.7409
vn 0.4577 0.0091 0.8891
vn 0.0018 -0.0012 -1.0000
vn 0.0038 0.0014 1.0000
vn -0.0408 0.9992 -0.0008
vn 0.0167 -0.9997 0.0190
vn 0.4532 0.0058 -0.8914
vn 0.4527 0.0089 -0.8916
vn 0.5002 0.0020 -0.8659
vn -0.0027 1.0000 0.0052
vn 0.0028 -1.0000 -0.0052
vn 0.4501 0.0055 -0.8930
vn -0.0026 1.0000 0.0053
vn 0.0027 -1.0000 -0.0052
vn 0.5356 0.0176 -0.8443
vn 0.4532 0.0059 -0.8914
vn 0.4498 0.0061 -0.8931
vn 0.5017 0.0072 -0.8650
vn 0.5357 -0.0011 -0.8444
vn 0.4546 0.0036 -0.8907
vn -0.5782 -0.0089 -0.8159
vn -0.6618 -0.0032 -0.7497
vn -0.0055 1.0000 -0.0029
vn 0.0050 -1.0000 0.0024
vn -0.9467 -0.0100 -0.3220
vn -0.8913 0.0017 -0.4534
vn -0.0054 1.0000 -0.0022
vn 0.0057 -1.0000 0.0019
vn -0.8288 0.0024 -0.5595
vn -0.0045 1.0000 -0.0041
vn 0.0047 -1.0000 0.0039
vn -0.5782 -0.0041 -0.8159
vn -0.6603 -0.0084 -0.7509
vn -0.9468 -0.0034 -0.3219
vn -0.8289 -0.0107 -0.5593
vn -0.8834 -0.0048 -0.4686
vn 0.9702 0.0059 -0.2421
vn -0.0057 1.0000 0.0008
vn 0.0058 -1.0000 -0.0006
vn -0.7678 -0.0048 0.6406
vn -0.6163 -0.0067 0.7875
vn -0.0040 1.0000 0.0046
vn 0.0043 -1.0000 -0.0043
vn -0.9951 -0.0054 0.0985
vn -0.0058 1.0000 0.0006
vn 0.0059 -1.0000 -0.0006
vn -0.8509 -0.0092 0.5253
vn -0.0053 1.0000 0.0036
vn -0.9190 -0.0120 0.3941
vn 0.0046 -1.0000 -0.0029
vn -0.7678 -0.0065 0.6406
vn -0.6133 -0.0074 0.7898
vn -0.9951 -0.0062 0.0985
vn -0.9191 -0.0022 0.3941
vn -0.8565 -0.0078 0.5161
vn -0.0055 1.0000 0.0027
vn 0.0057 -1.0000 -0.0025
vn -0.4589 -0.0110 -0.8884
vn -0.0028 1.0000 -0.0054
vn 0.0030 -1.0000 0.0052
vn 0.9074 0.0156 0.4201
vn -0.0042 1.0000 -0.0037
vn 0.0046 -1.0000 0.0033
vn -0.4496 0.0034 -0.8932
vn 0.9015 0.0048 0.4327
vn -0.0038 1.0000 -0.0050
vn 0.0032 -1.0000 0.0044
vn 0.8020 -0.0022 -0.5973
vn -0.0034 1.0000 0.0050
vn 0.0031 -1.0000 -0.0047
vn 0.8366 -0.0093 -0.5477
vn -0.0037 1.0000 0.0043
vn 0.0038 -1.0000 -0.0042
vn 0.9490 -0.0046 0.3151
vn -0.0058 1.0000 -0.0011
vn -0.9861 -0.0077 -0.1661
vn 0.0058 -1.0000 0.0011
vn 0.9490 0.0121 0.3150
vn -0.9861 -0.0048 -0.1661
vn -0.0058 1.0000 -0.0010
vn 0.0058 -1.0000 0.0010
vn -0.0119 -0.0090 -0.9999
vn 0.7563 0.6541 -0.0151
vn 0.0115 0.0094 0.9999
vn -0.8140 -0.5806 0.0152
vn -0.0120 -0.0089 -0.9999
vn 0.0118 0.0091 0.9999
vn 0.7599 0.6499 -0.0103
vn -0.8109 -0.5850 0.0109
vn -0.0119 -0.0097 -0.9999
vn 0.8106 0.5854 -0.0150
vn 0.0118 0.0098 0.9999
vn 0.8152 0.5787 -0.0239
vn -0.0117 -0.0097 -0.9999
vn 0.0115 0.0099 0.9999
vn 0.7458 0.6661 -0.0150
vn 0.7457 0.6661 -0.0148
vn -0.5178 -0.0079 0.8555
vn -0.0028 1.0000 0.0051
vn -0.4535 -0.0059 0.8912
vn -0.4495 -0.0068 0.8933
vn -0.4420 0.0046 0.8970
vn -0.0026 1.0000 0.0052
vn 0.0026 -1.0000 -0.0052
vn -0.5324 -0.0059 0.8464
vn -0.5152 -0.0031 0.8571
vn -0.4545 -0.0085 0.8907
vn -0.4295 -0.0044 0.9030
vn -0.6614 0.0030 -0.7501
vn -0.4421 -0.0148 -0.8968
vn 0.2125 -0.0088 0.9771
vn -0.0292 0.9996 -0.0029
vn -0.0021 -1.0000 0.0076
vn 0.0080 -0.0163 -0.9998
vn -0.0016 0.0245 0.9997
vn 0.6049 0.7961 -0.0149
vn -0.3787 -0.9253 0.0200
vn -0.0211 -0.0116 -0.9997
vn 0.0277 0.0215 0.9994
vn 0.0868 0.9962 -0.0106
vn -0.0122 -0.9998 0.0184
vn -0.0356 0.9994 0.0008
vn 0.6049 0.7961 -0.0136
vn -0.0003 -1.0000 0.0076
vn -0.3766 -0.9263 0.0072
vn -0.6613 -0.0111 -0.7500
vn -0.4520 -0.0010 -0.8920
vn 0.2186 -0.0014 0.9758
vn 0.0060 -0.0145 -0.9999
vn -0.0077 0.0205 0.9998
vn -0.0413 -0.0189 -0.9990
vn 0.0577 0.0170 0.9982
vn 0.0832 0.9965 -0.0103
vn -0.0077 -1.0000 -0.0018
vn -0.0108 -0.0104 -0.9999
vn -0.7283 -0.6851 0.0150
vn 0.0105 0.0108 0.9999
vn -0.6817 -0.7315 0.0149
vn -0.7618 -0.6475 0.0165
vn -0.7284 -0.6850 0.0149
vn -0.6817 -0.7315 0.0150
vn -0.6196 -0.7847 0.0168
vn -0.6234 -0.7818 0.0152
vn -0.7578 -0.6523 0.0168
vn -0.4956 -0.0091 0.8685
vn -0.4973 -0.0049 0.8676
vn -0.0102 -0.0115 -0.9999
vn 0.0096 0.0109 0.9999
vn -0.5341 -0.8453 0.0143
vn -0.0092 -0.0124 -0.9999
vn 0.0090 0.0126 0.9999
vn -0.5335 -0.8457 0.0158
vn -0.1369 0.9906 -0.0000
vn 0.7103 -0.7039 -0.0000
vn 0.4934 0.0049 -0.8698
vn 0.4912 0.0076 -0.8710
vn -0.0032 1.0000 0.0047
vn 0.0035 -1.0000 -0.0050
vn -0.9055 0.0164 0.4240
vn -0.8785 -0.0060 0.4777
vn -0.0042 1.0000 0.0040
vn 0.0037 -1.0000 -0.0044
vn -0.0049 1.0000 -0.0033
vn 0.0043 -1.0000 0.0038
vn 0.4627 -0.0103 0.8864
vn -0.0031 1.0000 -0.0051
vn 0.0027 -1.0000 0.0055
vn 0.4756 0.0072 0.8796
vn -0.0033 1.0000 -0.0043
vn 0.0040 -1.0000 0.0049
vn 0.5192 0.0062 -0.8546
vn 0.5194 0.0057 -0.8545
vn -0.0027 1.0000 0.0053
vn 0.0027 -1.0000 -0.0053
vn 0.0026 -1.0000 -0.0053
vn -0.5468 -0.0043 0.8372
vn -0.5467 -0.0068 0.8373
vn -0.0030 1.0000 0.0052
vn 0.0030 -1.0000 -0.0051
vn 0.0002 -0.0001 -1.0000
vn -0.0002 0.0001 1.0000
vn -0.5920 -0.8059 0.0019
vn 0.0004 -0.0010 -1.0000
vn 0.0006 -0.0004 1.0000
vn -0.4695 -0.8817 0.0470
vn -0.0002 -0.0004 1.0000
vn 0.7183 -0.6953 -0.0255
vn -0.8888 0.4581 0.0102
vn -0.0010 -0.0010 1.0000
vn -0.8950 0.4462 -0.0000
vn 0.6639 0.7477 -0.0140
vn 0.6652 0.7465 -0.0150
vn -0.0113 -0.0101 -0.9999
vn 0.0110 0.0097 0.9999
vn -0.7835 -0.6212 0.0122
vn -0.7876 -0.6160 0.0177
vn -0.0118 -0.0094 -0.9999
vn 0.0116 0.0096 0.9999
vn -0.0107 -0.0102 -0.9999
vn 0.0106 0.0104 0.9999
vn -0.0031 1.0000 0.0051
vn 0.0029 -1.0000 -0.0052
vn 0.9998 0.0198 -0.0000
vn -0.0000 0.0066 -1.0000
vn -1.0000 -0.0019 -0.0000
vn -0.0000 0.0113 0.9999
vn -0.0389 0.0820 0.9959
vn -0.8835 -0.4682 0.0138
vn -0.0615 0.0615 -0.9962
vn 0.7820 0.6230 -0.0154
vn 0.9579 0.2871 -0.0000
vn 0.5957 0.8031 0.0122
vn 0.6670 0.7451 -0.0001
vn 0.5957 0.8030 -0.0181
vn 0.7194 0.6946 0.0002
vn 0.9579 0.2872 -0.0000
vn 0.6293 0.7772 0.0001
vn 0.6288 0.7776 0.0003
vn 0.6670 0.7451 0.0001
vn 0.7418 -0.6707 -0.0000
vn -0.6847 0.7288 -0.0000
vn -0.6263 0.7796 0.0003
vn -0.7564 0.6541 -0.0004
vn -0.7565 0.6540 0.0005
vn -0.6263 0.7796 -0.0004
vn 0.3424 0.9395 -0.0000
vn 0.3522 -0.9359 0.0020
vn 0.1448 -0.9895 0.0028
vn 0.4931 -0.8699 -0.0137
vn 0.3302 -0.9439 0.0083
vn 0.1448 -0.9895 -0.0042
vn 0.8352 -0.5499 0.0004
vn 0.4930 -0.8698 0.0203
vn 0.9972 0.0057 -0.0739
vn 0.7494 0.0070 -0.6621
vn 0.6475 0.0057 -0.7620
vn 0.0042 -1.0000 -0.0043
vn -0.9613 -0.0200 0.2749
vn -0.0055 1.0000 0.0013
vn 0.0058 -1.0000 -0.0009
vn 0.8514 0.0040 -0.5245
vn -0.0057 1.0000 0.0009
vn 0.0060 -1.0000 -0.0006
vn 0.9192 0.0037 -0.3939
vn -0.0052 1.0000 0.0036
vn 0.0045 -1.0000 -0.0029
vn 0.9972 0.0059 -0.0739
vn 0.7493 0.0052 -0.6622
vn 0.6466 0.0054 -0.7628
vn -0.9614 0.0025 0.2750
vn 0.9191 0.0071 -0.3940
vn 0.8545 0.0046 -0.5194
vn -0.0055 1.0000 0.0026
vn 0.0056 -1.0000 -0.0025
vn 0.9271 0.0046 0.3748
vn -0.0055 1.0000 -0.0031
vn 0.0048 -1.0000 0.0024
vn 0.5700 0.0115 0.8216
vn 0.6636 0.0096 0.7480
vn 0.8893 0.0102 0.4571
vn -0.0055 1.0000 -0.0022
vn 0.0057 -1.0000 0.0020
vn 0.8212 0.0034 0.5707
vn 0.0046 -1.0000 0.0039
vn 0.9271 0.0066 0.3748
vn 0.5702 0.0026 0.8215
vn 0.6647 0.0044 0.7471
vn 0.8211 0.0073 0.5707
vn 0.8840 0.0074 0.4674
vn 0.9941 0.0095 0.1077
vn -0.0057 1.0000 -0.0014
vn 0.0059 -1.0000 0.0012
vn 0.9942 0.0038 0.1076
vn -0.0058 1.0000 -0.0012
vn 0.0060 -1.0000 0.0011
vn -0.3865 0.9223 -0.0061
vn -0.6508 0.7592 -0.0094
vn -0.4120 0.9111 -0.0061
vn -0.6507 0.7592 0.0139
vn -0.0023 -0.0000 -1.0000
vn 0.2926 -0.9562 -0.0000
vn -0.0011 -0.0006 1.0000
vn -0.1951 -0.0095 -0.9807
vn 0.0120 0.9999 -0.0070
vn -0.0161 -0.9998 0.0131
vn 0.6784 0.0046 0.7347
vn 0.4558 0.0003 0.8901
vn 0.0018 -0.0018 -1.0000
vn -0.0507 0.9987 -0.0039
vn 0.0750 -0.9971 -0.0160
vn -0.0023 0.0044 1.0000
vn 0.0180 0.9998 -0.0083
vn 0.3154 -0.9490 -0.0000
vn -0.0095 -0.9998 0.0169
vn -0.0042 -0.0016 -1.0000
vn -0.2122 -0.0146 -0.9771
vn 0.6788 0.0070 0.7343
vn 0.4521 0.0059 0.8919
vn -0.0033 -0.0051 -1.0000
vn 0.0022 0.0026 1.0000
vn -0.0325 0.9994 -0.0067
vn 0.0366 -0.9993 -0.0036
vn 0.4530 0.0059 -0.8915
vn 0.4498 0.0056 -0.8931
vn 0.5017 0.0036 -0.8650
vn -0.0028 1.0000 0.0052
vn 0.4546 0.0098 -0.8906
vn 0.5458 0.0090 -0.8378
vn 0.4527 0.0041 -0.8917
vn 0.5002 0.0082 -0.8659
vn 0.5459 0.0041 -0.8379
vn 0.4502 0.0061 -0.8929
vn -0.5674 -0.0006 -0.8234
vn -0.6604 -0.0016 -0.7509
vn -0.0050 1.0000 -0.0024
vn 0.0055 -1.0000 0.0029
vn -0.9466 -0.0101 -0.3222
vn -0.8834 -0.0077 -0.4685
vn -0.0057 1.0000 -0.0019
vn -0.8218 -0.0087 -0.5697
vn -0.0047 1.0000 -0.0039
vn -0.5672 -0.0090 -0.8235
vn -0.6618 -0.0075 -0.7496
vn -0.9467 -0.0033 -0.3222
vn -0.8218 -0.0043 -0.5697
vn -0.8915 -0.0104 -0.4529
vn 0.9631 -0.0156 -0.2687
vn 0.0057 -1.0000 -0.0008
vn -0.7684 -0.0040 0.6400
vn -0.6133 -0.0034 0.7898
vn -0.0043 1.0000 0.0043
vn -0.9953 -0.0034 0.0969
vn -0.8564 -0.0026 0.5164
vn -0.0046 1.0000 0.0029
vn -0.9216 -0.0064 0.3880
vn 0.0053 -1.0000 -0.0036
vn 0.9631 0.0186 -0.2686
vn -0.7684 -0.0070 0.6399
vn -0.6163 -0.0054 0.7875
vn -0.9953 -0.0073 0.0970
vn -0.9217 -0.0055 0.3879
vn -0.8509 -0.0039 0.5253
vn -0.0057 1.0000 0.0025
vn 0.0055 -1.0000 -0.0027
vn -0.4495 -0.0216 -0.8930
vn -0.0030 1.0000 -0.0052
vn 0.0028 -1.0000 0.0054
vn 0.9010 0.0072 0.4337
vn -0.0046 1.0000 -0.0033
vn 0.0042 -1.0000 0.0037
vn -0.4590 -0.0028 -0.8885
vn 0.9075 0.0002 0.4201
vn -0.0032 1.0000 -0.0044
vn 0.0038 -1.0000 0.0050
vn 0.8362 0.0315 -0.5474
vn -0.0031 1.0000 0.0047
vn 0.0034 -1.0000 -0.0050
vn 0.8020 0.0108 -0.5972
vn -0.0038 1.0000 0.0042
vn 0.0037 -1.0000 -0.0043
vn 0.9533 0.0059 0.3019
vn -0.9852 -0.0015 -0.1714
vn -0.9852 -0.0085 -0.1715
vn -0.0115 -0.0094 -0.9999
vn 0.7598 0.6500 -0.0181
vn 0.0119 0.0091 0.9999
vn -0.8170 -0.5766 0.0125
vn -0.0118 -0.0090 -0.9999
vn 0.0117 0.0092 0.9999
vn 0.7563 0.6541 -0.0147
vn 0.8152 0.5791 -0.0088
vn 0.7460 0.6658 -0.0148
vn 0.7460 0.6657 -0.0151
vn -0.5152 -0.0106 0.8570
vn 0.0028 -1.0000 -0.0051
vn -0.4540 -0.0061 0.8910
vn -0.4545 -0.0015 0.8908
vn -0.4297 -0.0083 0.9029
vn -0.5178 -0.0047 0.8555
vn -0.4540 -0.0058 0.8910
vn -0.4495 -0.0053 0.8933
vn -0.4419 -0.0120 0.8970
vn -0.6689 -0.0059 -0.7433
vn -0.4519 -0.0256 -0.8917
vn 0.2338 0.0164 0.9722
vn -0.0259 0.9996 -0.0061
vn -0.0003 -1.0000 0.0058
vn 0.0060 -0.0140 -0.9999
vn 0.0094 0.0118 0.9999
vn 0.6065 0.7949 -0.0161
vn -0.3590 -0.9333 0.0051
vn -0.0413 0.0115 -0.9991
vn 0.0083 0.0029 1.0000
vn 0.0832 0.9965 -0.0130
vn 0.0015 -1.0000 0.0075
vn -0.0292 0.9996 -0.0060
vn 0.6054 0.7958 -0.0131
vn 0.0018 -1.0000 0.0053
vn -0.3589 -0.9330 0.0270
vn -0.6690 -0.0059 -0.7433
vn -0.4436 0.0041 -0.8962
vn 0.2125 0.0028 0.9772
vn 0.0052 -0.0136 -0.9999
vn -0.0016 0.0139 0.9999
vn -0.0293 -0.0112 -0.9995
vn 0.0277 -0.0046 0.9996
vn 0.0788 0.9968 -0.0142
vn -0.0105 -0.0108 -0.9999
vn 0.0108 0.0104 0.9999
vn -0.6808 -0.7323 0.0155
vn -0.7595 -0.6503 0.0148
vn -0.7283 -0.6851 0.0148
vn -0.6809 -0.7323 0.0140
vn -0.6234 -0.7818 0.0147
vn -0.6200 -0.7845 0.0124
vn -0.7595 -0.6503 0.0150
vn -0.4973 -0.0074 0.8675
vn -0.4956 -0.0040 0.8685
vn -0.0096 -0.0109 -0.9999
vn 0.0102 0.0115 0.9999
vn -0.5202 -0.8540 0.0061
vn -0.0090 -0.0126 -0.9999
vn 0.0092 0.0124 0.9999
vn -0.5200 -0.8537 0.0276
vn -0.1456 0.9893 0.0056
vn -0.1456 0.9893 -0.0084
vn 0.7108 -0.7034 -0.0004
vn 0.7108 -0.7034 0.0006
vn 0.4912 0.0029 -0.8710
vn 0.4934 0.0064 -0.8698
vn -0.0035 1.0000 0.0050
vn 0.0032 -1.0000 -0.0047
vn -0.8786 -0.0060 0.4775
vn -0.9055 -0.0190 0.4240
vn -0.0037 1.0000 0.0044
vn 0.0042 -1.0000 -0.0041
vn -0.0043 1.0000 -0.0038
vn 0.0049 -1.0000 0.0033
vn 0.4758 0.0036 0.8795
vn -0.0027 1.0000 -0.0055
vn 0.0031 -1.0000 0.0051
vn 0.4627 0.0154 0.8864
vn -0.0040 1.0000 -0.0049
vn 0.0033 -1.0000 0.0043
vn 0.5215 0.0044 -0.8532
vn 0.5215 0.0067 -0.8532
vn -0.5506 -0.0072 0.8347
vn -0.5507 -0.0051 0.8347
vn -0.0030 1.0000 0.0051
vn 0.0030 -1.0000 -0.0052
vn -0.4581 -0.8882 -0.0347
vn -0.0006 0.0004 -1.0000
vn -0.0003 0.0009 1.0000
vn -0.5920 -0.8059 -0.0029
vn 0.0002 0.0004 -1.0000
vn -0.0000 -0.0001 1.0000
vn 0.7184 -0.6954 0.0172
vn -0.8950 0.4461 -0.0000
vn -0.0001 -0.0000 -1.0000
vn -0.8888 0.4581 -0.0151
vn 0.6651 0.7466 -0.0148
vn 0.6639 0.7477 -0.0161
vn -0.0110 -0.0097 -0.9999
vn 0.0113 0.0101 0.9999
vn -0.7876 -0.6160 0.0159
vn -0.7925 -0.6098 0.0111
vn -0.0116 -0.0096 -0.9999
vn 0.0118 0.0094 0.9999
vn -0.0105 -0.0104 -0.9999
vn 0.0107 0.0102 0.9999
vn -0.0029 1.0000 0.0052
vn 0.0031 -1.0000 -0.0051
vn -0.0000 0.0986 0.9951
vn -0.8825 -0.4704 -0.0000
vn -0.0000 0.0878 -0.9961
vn 0.7804 0.6253 -0.0000
s 0
f 5//1 4//1 3//1
f 1//2 6//2 2//2
f 12//3 11//3 10//3
f 15//4 17//4 14//4
f 23//5 24//5 25//5
f 3//4 15//4 14//4
f 3//6 16//6 5//6
f 8//5 23//5 9//5
f 11//3 21//3 20//3
f 5//7 9//7 6//7
f 2//8 9//8 7//8
f 11//9 14//9 10//9
f 10//4 17//4 12//4
f 20//5 24//5 22//5
f 11//10 22//10 16//10
f 16//11 8//11 5//11
f 28//12 27//12 26//12
f 31//4 33//4 30//4
f 34//13 32//13 35//13
f 39//5 40//5 41//5
f 45//4 47//4 44//4
f 47//14 46//14 44//14
f 52//5 53//5 54//5
f 42//15 29//15 28//15
f 33//4 45//4 44//4
f 40//5 52//5 41//5
f 29//12 36//12 27//12
f 32//16 41//16 35//16
f 46//17 53//17 51//17
f 30//4 28//4 26//4
f 38//5 37//5 40//5
f 43//18 44//18 46//18
f 43//19 51//19 50//19
f 33//4 42//4 28//4
f 40//5 50//5 51//5
f 29//15 50//15 37//15
f 26//20 13//20 12//20
f 17//4 31//4 30//4
f 31//21 19//21 32//21
f 24//5 39//5 25//5
f 12//4 30//4 26//4
f 21//5 38//5 24//5
f 13//22 36//22 21//22
f 19//21 39//21 32//21
f 65//23 68//23 66//23
f 66//4 69//4 65//4
f 66//24 71//24 70//24
f 75//5 76//5 77//5
f 65//25 63//25 67//25
f 74//26 68//26 67//26
f 71//24 75//24 77//24
f 71//27 72//27 70//27
f 71//28 78//28 73//28
f 63//29 74//29 67//29
f 87//30 86//30 85//30
f 91//31 94//31 92//31
f 91//32 96//32 95//32
f 91//33 97//33 93//33
f 98//34 101//34 100//34
f 106//35 105//35 107//35
f 102//36 106//36 103//36
f 108//37 111//37 110//37
f 83//38 93//38 82//38
f 85//39 103//39 87//39
f 89//40 109//40 108//40
f 82//41 86//41 83//41
f 97//42 102//42 93//42
f 101//43 108//43 110//43
f 86//44 90//44 89//44
f 94//45 98//45 92//45
f 98//46 96//46 92//46
f 105//35 111//35 107//35
f 86//47 84//47 83//47
f 83//48 99//48 94//48
f 82//49 102//49 85//49
f 84//50 108//50 99//50
f 114//51 113//51 112//51
f 118//52 123//52 119//52
f 124//53 127//53 126//53
f 130//54 133//54 131//54
f 128//55 131//55 129//55
f 115//56 119//56 120//56
f 118//57 114//57 112//57
f 124//58 117//58 125//58
f 128//59 120//59 119//59
f 123//60 128//60 119//60
f 127//61 134//61 135//61
f 113//62 117//62 116//62
f 133//63 135//63 131//63
f 134//64 131//64 135//64
f 120//65 134//65 125//65
f 115//66 125//66 117//66
f 87//67 113//67 88//67
f 106//68 122//68 121//68
f 106//69 118//69 103//69
f 111//70 124//70 126//70
f 113//71 90//71 88//71
f 122//72 111//72 126//72
f 103//73 112//73 87//73
f 109//74 116//74 124//74
f 139//75 138//75 140//75
f 138//76 142//76 140//76
f 139//77 144//77 143//77
f 142//78 144//78 140//78
f 146//79 149//79 148//79
f 153//80 152//80 154//80
f 155//81 158//81 156//81
f 161//82 165//82 164//82
f 164//83 163//83 161//83
f 169//84 168//84 170//84
f 173//85 176//85 174//85
f 171//86 174//86 172//86
f 148//87 162//87 161//87
f 148//88 163//88 150//88
f 167//89 154//89 168//89
f 157//90 172//90 158//90
f 166//91 171//91 163//91
f 152//92 160//92 154//92
f 170//93 177//93 178//93
f 151//94 149//94 147//94
f 159//95 158//95 160//95
f 167//96 165//96 162//96
f 176//97 178//97 174//97
f 177//98 174//98 178//98
f 153//99 162//99 149//99
f 158//100 177//100 160//100
f 163//101 157//101 150//101
f 168//102 160//102 177//102
f 184//103 183//103 182//103
f 181//104 184//104 180//104
f 193//105 195//105 192//105
f 192//106 197//106 194//106
f 198//107 201//107 200//107
f 183//108 192//108 182//108
f 182//109 194//109 184//109
f 187//110 199//110 198//110
f 195//111 190//111 189//111
f 183//112 188//112 187//112
f 181//113 188//113 185//113
f 193//114 200//114 196//114
f 190//115 200//115 191//115
f 183//116 198//116 193//116
f 204//117 203//117 205//117
f 205//118 206//118 204//118
f 211//119 216//119 212//119
f 217//120 220//120 219//120
f 221//121 224//121 223//121
f 214//122 222//122 221//122
f 221//123 216//123 214//123
f 225//124 220//124 226//124
f 206//125 215//125 214//125
f 206//126 211//126 204//126
f 210//127 217//127 219//127
f 203//128 209//128 205//128
f 205//129 210//129 207//129
f 224//130 225//130 226//130
f 215//131 210//131 219//131
f 219//132 222//132 215//132
f 227//133 230//133 228//133
f 227//134 232//134 229//134
f 233//135 236//135 235//135
f 242//136 241//136 243//136
f 239//137 242//137 243//137
f 237//138 242//138 238//138
f 244//139 247//139 246//139
f 250//140 249//140 251//140
f 231//141 250//141 232//141
f 235//142 253//142 252//142
f 240//143 255//143 241//143
f 232//144 237//144 229//144
f 254//145 251//145 255//145
f 236//146 244//146 246//146
f 230//133 233//133 228//133
f 241//147 247//147 243//147
f 239//148 247//148 245//148
f 249//149 253//149 251//149
f 251//150 256//150 255//150
f 246//151 255//151 256//151
f 232//152 254//152 240//152
f 236//153 256//153 253//153
f 164//154 203//154 202//154
f 202//155 166//155 164//155
f 208//156 170//156 209//156
f 176//157 212//157 213//157
f 211//158 175//158 173//158
f 217//159 179//159 218//159
f 169//160 203//160 165//160
f 176//161 218//161 179//161
f 166//162 211//162 173//162
f 170//163 217//163 209//163
f 190//164 229//164 189//164
f 237//165 197//165 195//165
f 244//166 201//166 245//166
f 190//167 234//167 230//167
f 189//168 237//168 195//168
f 191//169 244//169 234//169
f 227//170 213//170 212//170
f 216//171 227//171 212//171
f 248//172 224//172 249//172
f 220//173 233//173 235//173
f 213//174 233//174 218//174
f 224//175 252//175 249//175
f 223//176 231//176 216//176
f 226//177 235//177 252//177
f 261//178 264//178 263//178
f 266//179 269//179 267//179
f 268//180 271//180 269//180
f 274//181 275//181 272//181
f 263//182 273//182 272//182
f 270//183 276//183 271//183
f 266//184 262//184 261//184
f 272//185 273//185 274//185
f 260//186 261//186 263//186
f 265//187 266//187 260//187
f 268//188 265//188 270//188
f 260//189 266//189 261//189
f 260//190 263//190 272//190
f 270//191 265//191 275//191
f 258//192 269//192 259//192
f 262//193 258//193 257//193
f 278//194 282//194 279//194
f 277//195 281//195 278//195
f 283//110 286//110 285//110
f 290//196 293//196 292//196
f 290//197 295//197 291//197
f 281//198 293//198 282//198
f 280//199 292//199 281//199
f 285//200 297//200 296//200
f 278//201 288//201 287//201
f 284//202 282//202 286//202
f 293//196 296//196 297//196
f 296//203 295//203 298//203
f 288//201 284//201 289//201
f 286//204 293//204 297//204
f 301//205 300//205 302//205
f 302//206 303//206 301//206
f 310//207 312//207 313//207
f 311//208 309//208 308//208
f 316//209 315//209 317//209
f 318//210 321//210 320//210
f 325//211 329//211 326//211
f 327//212 325//212 324//212
f 332//213 331//213 333//213
f 303//214 319//214 318//214
f 313//215 325//215 326//215
f 311//216 325//216 312//216
f 330//217 317//217 331//217
f 303//218 308//218 301//218
f 318//219 327//219 324//219
f 307//220 314//220 316//220
f 322//221 332//221 323//221
f 300//222 306//222 302//222
f 306//223 304//223 302//223
f 310//224 317//224 315//224
f 319//225 323//225 321//225
f 326//226 333//226 331//226
f 307//227 319//227 304//227
f 317//228 326//228 331//228
f 303//229 324//229 311//229
f 307//230 330//230 322//230
f 337//231 340//231 339//231
f 347//232 346//232 348//232
f 343//233 348//233 344//233
f 342//234 348//234 346//234
f 352//235 347//235 353//235
f 339//236 346//236 345//236
f 340//237 342//237 346//237
f 344//238 349//238 350//238
f 338//239 349//239 342//239
f 339//240 352//240 351//240
f 294//241 335//241 295//241
f 298//242 335//242 336//242
f 321//243 337//243 320//243
f 329//244 343//244 344//244
f 349//245 333//245 350//245
f 321//246 341//246 338//246
f 329//247 350//247 333//247
f 323//248 349//248 341//248
f 48//4 137//4 47//4
f 137//249 49//249 47//249
f 54//5 143//5 144//5
f 49//249 143//249 53//249
f 70//4 146//4 69//4
f 151//250 73//250 152//250
f 77//5 155//5 156//5
f 72//4 147//4 70//4
f 78//5 156//5 159//5
f 73//250 159//250 152//250
f 80//251 180//251 79//251
f 80//252 186//252 181//252
f 277//253 97//253 95//253
f 283//254 101//254 284//254
f 104//255 288//255 105//255
f 110//256 288//256 289//256
f 97//257 287//257 104//257
f 101//258 289//258 284//258
f 121//68 300//68 299//68
f 299//259 123//259 121//259
f 305//260 127//260 306//260
f 133//261 309//261 310//261
f 308//262 132//262 130//262
f 314//263 136//263 315//263
f 126//68 300//68 122//68
f 133//264 315//264 136//264
f 123//265 308//265 130//265
f 127//266 314//266 306//266
f 95//267 80//267 79//267
f 80//268 100//268 81//268
f 180//269 280//269 277//269
f 194//106 294//106 290//106
f 186//270 285//270 188//270
f 199//110 298//110 201//110
f 194//109 280//109 184//109
f 199//271 285//271 296//271
f 238//272 335//272 334//272
f 335//273 245//273 336//273
f 197//274 334//274 294//274
f 201//275 336//275 245//275
f 1//276 55//276 4//276
f 7//277 9//277 56//277
f 18//278 59//278 19//278
f 15//279 58//279 18//279
f 23//280 61//280 60//280
f 25//281 59//281 61//281
f 55//4 15//4 4//4
f 56//282 23//282 60//282
f 35//13 62//13 34//13
f 45//4 69//4 48//4
f 52//5 76//5 74//5
f 35//283 64//283 63//283
f 62//4 45//4 34//4
f 64//5 52//5 74//5
f 141//284 150//284 142//284
f 146//4 141//4 138//4
f 155//285 145//285 157//285
f 145//286 150//286 157//286
f 258//287 328//287 327//287
f 258//288 320//288 257//288
f 337//289 264//289 262//289
f 343//290 271//290 347//290
f 274//291 353//291 276//291
f 274//292 351//292 352//292
f 264//293 351//293 273//293
f 271//294 353//294 347//294
f 257//295 337//295 262//295
f 259//296 343//296 328//296
f 48//4 146//4 138//4
f 54//5 155//5 76//5
f 79//297 277//297 95//297
f 81//298 283//298 186//298
f 359//299 355//299 358//299
f 360//300 356//300 359//300
f 357//301 360//301 361//301
f 355//302 361//302 358//302
f 358//303 275//303 265//303
f 275//304 360//304 272//304
f 272//305 359//305 260//305
f 359//306 265//306 260//306
f 5//7 6//7 4//7
f 1//307 4//307 6//307
f 12//308 13//308 11//308
f 15//4 18//4 17//4
f 23//5 22//5 24//5
f 3//4 4//4 15//4
f 3//309 14//309 16//309
f 8//5 22//5 23//5
f 11//310 13//310 21//310
f 5//311 8//311 9//311
f 2//312 6//312 9//312
f 11//313 16//313 14//313
f 10//4 14//4 17//4
f 20//5 21//5 24//5
f 11//314 20//314 22//314
f 16//315 22//315 8//315
f 28//12 29//12 27//12
f 31//4 34//4 33//4
f 34//316 31//316 32//316
f 39//5 38//5 40//5
f 45//4 48//4 47//4
f 47//317 49//317 46//317
f 52//5 51//5 53//5
f 42//318 43//318 29//318
f 33//4 34//4 45//4
f 40//5 51//5 52//5
f 29//12 37//12 36//12
f 32//316 39//316 41//316
f 46//317 49//317 53//317
f 30//4 33//4 28//4
f 38//5 36//5 37//5
f 43//319 42//319 44//319
f 43//320 46//320 51//320
f 33//4 44//4 42//4
f 40//5 37//5 50//5
f 29//321 43//321 50//321
f 26//322 27//322 13//322
f 17//4 18//4 31//4
f 31//21 18//21 19//21
f 24//5 38//5 39//5
f 12//4 17//4 30//4
f 21//5 36//5 38//5
f 13//322 27//322 36//322
f 19//21 25//21 39//21
f 65//323 67//323 68//323
f 66//4 70//4 69//4
f 66//324 68//324 71//324
f 75//5 74//5 76//5
f 65//325 62//325 63//325
f 74//326 75//326 68//326
f 71//327 68//327 75//327
f 71//328 73//328 72//328
f 71//27 77//27 78//27
f 63//329 64//329 74//329
f 87//330 88//330 86//330
f 91//331 93//331 94//331
f 91//332 92//332 96//332
f 91//138 95//138 97//138
f 98//333 99//333 101//333
f 106//334 104//334 105//334
f 102//335 104//335 106//335
f 108//336 109//336 111//336
f 83//337 94//337 93//337
f 85//338 102//338 103//338
f 89//339 90//339 109//339
f 82//340 85//340 86//340
f 97//341 104//341 102//341
f 101//342 99//342 108//342
f 86//343 88//343 90//343
f 94//344 99//344 98//344
f 98//345 100//345 96//345
f 105//346 110//346 111//346
f 86//347 89//347 84//347
f 83//348 84//348 99//348
f 82//349 93//349 102//349
f 84//350 89//350 108//350
f 114//351 115//351 113//351
f 118//352 121//352 123//352
f 124//353 125//353 127//353
f 130//354 132//354 133//354
f 128//355 130//355 131//355
f 115//356 114//356 119//356
f 118//357 119//357 114//357
f 124//358 116//358 117//358
f 128//359 129//359 120//359
f 123//126 130//126 128//126
f 127//360 125//360 134//360
f 113//361 115//361 117//361
f 133//362 136//362 135//362
f 134//363 129//363 131//363
f 120//364 129//364 134//364
f 115//365 120//365 125//365
f 87//366 112//366 113//366
f 106//72 107//72 122//72
f 106//367 121//367 118//367
f 111//368 109//368 124//368
f 113//369 116//369 90//369
f 122//72 107//72 111//72
f 103//370 118//370 112//370
f 109//371 90//371 116//371
f 139//372 137//372 138//372
f 138//373 141//373 142//373
f 139//374 140//374 144//374
f 142//375 145//375 144//375
f 146//376 147//376 149//376
f 153//377 151//377 152//377
f 155//378 157//378 158//378
f 161//379 162//379 165//379
f 164//380 166//380 163//380
f 169//381 167//381 168//381
f 173//382 175//382 176//382
f 171//383 173//383 174//383
f 148//384 149//384 162//384
f 148//385 161//385 163//385
f 167//386 153//386 154//386
f 157//387 171//387 172//387
f 166//388 173//388 171//388
f 152//389 159//389 160//389
f 170//390 168//390 177//390
f 151//391 153//391 149//391
f 159//81 156//81 158//81
f 167//392 169//392 165//392
f 176//393 179//393 178//393
f 177//394 172//394 174//394
f 153//395 167//395 162//395
f 158//396 172//396 177//396
f 163//397 171//397 157//397
f 168//398 154//398 160//398
f 184//399 185//399 183//399
f 181//400 185//400 184//400
f 193//401 196//401 195//401
f 192//402 195//402 197//402
f 198//110 199//110 201//110
f 183//403 193//403 192//403
f 182//106 192//106 194//106
f 187//271 188//271 199//271
f 195//404 196//404 190//404
f 183//399 185//399 188//399
f 181//405 186//405 188//405
f 193//406 198//406 200//406
f 190//407 196//407 200//407
f 183//408 187//408 198//408
f 204//409 202//409 203//409
f 205//410 207//410 206//410
f 211//411 214//411 216//411
f 217//412 218//412 220//412
f 221//413 222//413 224//413
f 214//414 215//414 222//414
f 221//415 223//415 216//415
f 225//58 219//58 220//58
f 206//416 207//416 215//416
f 206//417 214//417 211//417
f 210//61 209//61 217//61
f 203//418 208//418 209//418
f 205//419 209//419 210//419
f 224//420 222//420 225//420
f 215//421 207//421 210//421
f 219//422 225//422 222//422
f 227//423 229//423 230//423
f 227//141 231//141 232//141
f 233//424 234//424 236//424
f 242//425 240//425 241//425
f 239//426 238//426 242//426
f 237//427 240//427 242//427
f 244//34 245//34 247//34
f 250//428 248//428 249//428
f 231//141 248//141 250//141
f 235//135 236//135 253//135
f 240//429 254//429 255//429
f 232//430 240//430 237//430
f 254//431 250//431 251//431
f 236//432 234//432 244//432
f 230//433 234//433 233//433
f 241//434 246//434 247//434
f 239//435 243//435 247//435
f 249//436 252//436 253//436
f 251//437 253//437 256//437
f 246//438 241//438 255//438
f 232//439 250//439 254//439
f 236//440 246//440 256//440
f 164//441 165//441 203//441
f 202//442 204//442 166//442
f 208//443 169//443 170//443
f 176//444 175//444 212//444
f 211//445 212//445 175//445
f 217//446 178//446 179//446
f 169//447 208//447 203//447
f 176//448 213//448 218//448
f 166//449 204//449 211//449
f 170//450 178//450 217//450
f 190//451 230//451 229//451
f 237//452 238//452 197//452
f 244//453 200//453 201//453
f 190//454 191//454 234//454
f 189//455 229//455 237//455
f 191//456 200//456 244//456
f 227//457 228//457 213//457
f 216//176 231//176 227//176
f 248//458 223//458 224//458
f 220//173 218//173 233//173
f 213//457 228//457 233//457
f 224//459 226//459 252//459
f 223//176 248//176 231//176
f 226//173 220//173 235//173
f 261//460 262//460 264//460
f 266//461 268//461 269//461
f 268//462 270//462 271//462
f 274//463 276//463 275//463
f 263//464 264//464 273//464
f 270//465 275//465 276//465
f 266//466 267//466 262//466
f 265//467 268//467 266//467
f 258//468 267//468 269//468
f 262//469 267//469 258//469
f 278//470 281//470 282//470
f 277//106 280//106 281//106
f 283//471 284//471 286//471
f 290//472 291//472 293//472
f 290//473 294//473 295//473
f 281//474 292//474 293//474
f 280//199 290//199 292//199
f 285//200 286//200 297//200
f 278//201 279//201 288//201
f 284//475 279//475 282//475
f 293//476 291//476 296//476
f 296//477 291//477 295//477
f 288//201 279//201 284//201
f 286//478 282//478 293//478
f 301//479 299//479 300//479
f 302//480 304//480 303//480
f 310//481 309//481 312//481
f 311//482 312//482 309//482
f 316//483 314//483 315//483
f 318//484 319//484 321//484
f 325//485 328//485 329//485
f 327//486 328//486 325//486
f 332//487 330//487 331//487
f 303//488 304//488 319//488
f 313//489 312//489 325//489
f 311//490 324//490 325//490
f 330//491 316//491 317//491
f 303//492 311//492 308//492
f 318//493 320//493 327//493
f 307//494 306//494 314//494
f 322//495 330//495 332//495
f 300//496 305//496 306//496
f 306//497 307//497 304//497
f 310//498 313//498 317//498
f 319//499 322//499 323//499
f 326//500 329//500 333//500
f 307//501 322//501 319//501
f 317//502 313//502 326//502
f 303//503 318//503 324//503
f 307//491 316//491 330//491
f 337//504 338//504 340//504
f 347//236 345//236 346//236
f 343//505 347//505 348//505
f 342//506 344//506 348//506
f 352//507 345//507 347//507
f 339//508 340//508 346//508
f 340//509 338//509 342//509
f 344//510 342//510 349//510
f 338//511 341//511 349//511
f 339//512 345//512 352//512
f 294//513 334//513 335//513
f 298//514 295//514 335//514
f 321//515 338//515 337//515
f 329//516 328//516 343//516
f 349//517 332//517 333//517
f 321//518 323//518 341//518
f 329//519 344//519 350//519
f 323//520 332//520 349//520
f 48//4 138//4 137//4
f 137//521 139//521 49//521
f 54//5 53//5 143//5
f 49//522 139//522 143//522
f 70//4 147//4 146//4
f 151//523 72//523 73//523
f 77//5 76//5 155//5
f 72//4 151//4 147//4
f 78//5 77//5 156//5
f 73//524 78//524 159//524
f 80//525 181//525 180//525
f 80//526 81//526 186//526
f 277//527 278//527 97//527
f 283//528 100//528 101//528
f 104//529 287//529 288//529
f 110//530 105//530 288//530
f 97//531 278//531 287//531
f 101//532 110//532 289//532
f 121//68 122//68 300//68
f 299//533 301//533 123//533
f 305//534 126//534 127//534
f 133//535 132//535 309//535
f 308//536 309//536 132//536
f 314//537 135//537 136//537
f 126//68 305//68 300//68
f 133//538 310//538 315//538
f 123//539 301//539 308//539
f 127//540 135//540 314//540
f 95//541 96//541 80//541
f 80//542 96//542 100//542
f 180//269 184//269 280//269
f 194//106 197//106 294//106
f 186//270 283//270 285//270
f 199//110 296//110 298//110
f 194//109 290//109 280//109
f 199//271 188//271 285//271
f 238//543 239//543 335//543
f 335//544 239//544 245//544
f 197//545 238//545 334//545
f 201//546 298//546 336//546
f 18//547 58//547 59//547
f 15//548 57//548 58//548
f 23//549 25//549 61//549
f 25//550 19//550 59//550
f 55//551 57//551 15//551
f 56//552 9//552 23//552
f 35//553 63//553 62//553
f 45//4 65//4 69//4
f 52//5 54//5 76//5
f 35//16 41//16 64//16
f 62//4 65//4 45//4
f 64//5 41//5 52//5
f 141//554 148//554 150//554
f 146//555 148//555 141//555
f 155//5 144//5 145//5
f 145//556 142//556 150//556
f 258//557 259//557 328//557
f 258//558 327//558 320//558
f 337//559 339//559 264//559
f 343//560 269//560 271//560
f 274//561 352//561 353//561
f 274//562 273//562 351//562
f 264//563 339//563 351//563
f 271//564 276//564 353//564
f 257//565 320//565 337//565
f 259//566 269//566 343//566
f 48//4 69//4 146//4
f 54//5 144//5 155//5
f 79//567 180//567 277//567
f 81//568 100//568 283//568
f 359//299 356//299 355//299
f 360//300 354//300 356//300
f 357//301 354//301 360//301
f 355//302 357//302 361//302
f 358//569 361//569 275//569
f 275//570 361//570 360//570
f 272//571 360//571 359//571
f 359//572 358//572 265//572
