# Blender 4.3.2
# www.blender.org
o vertical
v 114.590759 -82.447311 -79.757072
v 119.590759 -82.447311 -79.757072
v 114.590759 -82.447311 -84.757072
v 119.590759 -82.447311 -84.757072
v 114.590759 -90.642189 -79.757072
v 119.590759 -90.642189 -79.757072
v 114.590759 -90.642189 -84.757072
v 119.590759 -90.642189 -84.757072
v 119.590759 -87.642189 -79.757072
v 119.590759 -87.642189 -84.757072
v 114.590759 -87.642189 -84.757072
v 114.590759 -87.642189 -79.757072
v 129.590759 -90.642189 -84.757072
v 129.590759 -90.642189 -79.757072
v 129.590759 -87.642189 -84.757072
v 129.590759 -87.642189 -79.757072
v 124.590759 -90.642189 -79.757072
v 124.590759 -90.642189 -84.757072
v 124.590759 -87.642189 -79.757072
v 124.590759 -87.642189 -84.757072
v 129.590759 -57.642189 -84.757072
v 129.590759 -57.642189 -79.757072
v 124.590759 -57.642189 -79.757072
v 124.590759 -57.642189 -84.757072
v 129.590759 -62.642189 -84.757072
v 124.590759 -62.642189 -84.757072
v 129.590759 -62.642189 -79.757072
v 124.590759 -62.642189 -79.757072
v 131.590759 -57.642189 -84.757072
v 131.590759 -57.642189 -79.757072
v 131.590759 -62.642189 -84.757072
v 131.590759 -62.642189 -79.757072
vn -0.0000 1.0000 -0.0000
vn 1.0000 -0.0000 -0.0000
vn -0.0000 -0.0000 1.0000
vn -0.0000 -0.0000 -1.0000
vn -1.0000 -0.0000 -0.0000
vn -0.0000 -1.0000 -0.0000
vt 0.000000 0.000000
s 0
f 17/1/1 13/1/1 18/1/1
f 12/1/2 7/1/2 11/1/2
f 11/1/3 8/1/3 10/1/3
f 9/1/4 5/1/4 12/1/4
f 2/1/4 12/1/4 1/1/4
f 3/1/3 10/1/3 4/1/3
f 1/1/2 11/1/2 3/1/2
f 4/1/5 9/1/5 2/1/5
f 15/1/5 14/1/5 16/1/5
f 19/1/4 14/1/4 17/1/4
f 25/1/3 24/1/3 26/1/3
f 18/1/3 15/1/3 20/1/3
f 8/1/3 20/1/3 10/1/3
f 10/1/6 19/1/6 9/1/6
f 9/1/4 17/1/4 6/1/4
f 6/1/1 18/1/1 8/1/1
f 24/1/6 22/1/6 23/1/6
f 25/1/3 29/1/3 21/1/3
f 28/1/4 22/1/4 27/1/4
f 26/1/2 23/1/2 28/1/2
f 20/1/2 28/1/2 19/1/2
f 19/1/4 27/1/4 16/1/4
f 16/1/5 25/1/5 15/1/5
f 15/1/3 26/1/3 20/1/3
f 21/1/6 30/1/6 22/1/6
f 27/1/1 31/1/1 25/1/1
f 22/1/4 32/1/4 27/1/4
f 8/1/1 5/1/1 6/1/1
f 17/1/1 14/1/1 13/1/1
f 12/1/2 5/1/2 7/1/2
f 11/1/3 7/1/3 8/1/3
f 9/1/4 6/1/4 5/1/4
f 2/1/4 9/1/4 12/1/4
f 3/1/3 11/1/3 10/1/3
f 1/1/2 12/1/2 11/1/2
f 4/1/5 10/1/5 9/1/5
f 15/1/5 13/1/5 14/1/5
f 19/1/4 16/1/4 14/1/4
f 25/1/3 21/1/3 24/1/3
f 18/1/3 13/1/3 15/1/3
f 8/1/3 18/1/3 20/1/3
f 10/1/6 20/1/6 19/1/6
f 9/1/4 19/1/4 17/1/4
f 6/1/1 17/1/1 18/1/1
f 24/1/6 21/1/6 22/1/6
f 25/1/3 31/1/3 29/1/3
f 28/1/4 23/1/4 22/1/4
f 26/1/2 24/1/2 23/1/2
f 20/1/2 26/1/2 28/1/2
f 19/1/4 28/1/4 27/1/4
f 16/1/5 27/1/5 25/1/5
f 15/1/3 25/1/3 26/1/3
f 21/1/6 29/1/6 30/1/6
f 27/1/1 32/1/1 31/1/1
f 22/1/4 30/1/4 32/1/4
f 8/1/1 7/1/1 5/1/1
