# Blender 4.3.2
# www.blender.org
o end
v 42.939999 -5.990000 -24.160002
v 52.840000 -5.990000 -24.160002
v 52.840000 -5.990000 -34.060001
v 42.939999 -5.990000 -34.060001
v 52.840000 -6.980000 -24.160002
v 42.939999 -6.980000 -24.160002
v 52.840000 -6.980000 -34.060001
v 42.939999 -6.980000 -34.060001
vn -0.0000 1.0000 -0.0000
vn -0.0000 -1.0000 -0.0000
vn -0.0000 -0.0000 1.0000
vn 1.0000 -0.0000 -0.0000
vn -0.0000 -0.0000 -1.0000
vn -1.0000 -0.0000 -0.0000
vt 0.375000 0.750000
s 0
f 3/1/1 1/1/1 2/1/1
f 6/1/2 7/1/2 5/1/2
f 1/1/3 5/1/3 2/1/3
f 2/1/4 7/1/4 3/1/4
f 3/1/5 8/1/5 4/1/5
f 4/1/6 6/1/6 1/1/6
f 3/1/1 4/1/1 1/1/1
f 6/1/2 8/1/2 7/1/2
f 1/1/3 6/1/3 5/1/3
f 2/1/4 5/1/4 7/1/4
f 3/1/5 7/1/5 8/1/5
f 4/1/6 8/1/6 6/1/6
