# Blender 4.3.2
# www.blender.org
o hole_walking
v 8.000000 13.500000 -44.500000
v 8.000000 14.500000 -44.500000
v 8.000000 13.500000 -49.500000
v 8.000000 14.500000 -49.500000
v 18.000000 13.500000 -44.500000
v 18.000000 14.500000 -44.500000
v 18.000000 13.500000 -49.500000
v 18.000000 14.500000 -49.500000
vn -1.0000 -0.0000 -0.0000
vn 1.0000 -0.0000 -0.0000
vn -0.0000 -0.0000 1.0000
vn -0.0000 -1.0000 -0.0000
vn -0.0000 1.0000 -0.0000
vn -0.0000 -0.0000 -1.0000
vt 0.625000 0.250000
vt 0.375000 0.000000
vt 0.625000 0.000000
vt 0.625000 0.750000
vt 0.375000 0.500000
vt 0.625000 0.500000
vt 0.375000 0.750000
vt 0.375000 0.250000
s 0
f 4/1/1 1/2/1 2/3/1
f 6/4/2 7/5/2 8/6/2
f 5/7/3 2/3/3 1/2/3
f 5/7/4 3/8/4 7/5/4
f 8/6/5 2/3/5 6/4/5
f 3/8/6 8/6/6 7/5/6
f 4/1/1 3/8/1 1/2/1
f 6/4/2 5/7/2 7/5/2
f 5/7/3 6/4/3 2/3/3
f 5/7/4 1/2/4 3/8/4
f 8/6/5 4/1/5 2/3/5
f 3/8/6 4/1/6 8/6/6
