# Blender 4.3.2
# www.blender.org
o hole_jumping
v 19.500000 13.000000 -37.304939
v 19.500000 24.000000 -37.304939
v 19.500000 13.000000 -56.695061
v 19.500000 24.000000 -56.695061
v 20.500000 13.000000 -37.304939
v 20.500000 24.000000 -37.304939
v 20.500000 13.000000 -56.695061
v 20.500000 24.000000 -56.695061
v 19.500000 19.113310 -37.304943
v 19.500000 19.113310 -56.695057
v 20.500000 19.113310 -56.695057
v 20.500000 19.113310 -37.304943
v 19.500000 17.786692 -56.695057
v 20.500000 17.786692 -56.695057
v 20.500000 17.786692 -37.304943
v 19.500000 17.786692 -37.304943
v 19.500000 13.000000 -46.678425
v 20.500000 24.000000 -46.678425
v 20.500000 19.113310 -46.678425
v 20.500000 17.786692 -46.678425
v 19.500000 24.000000 -46.678425
v 20.500000 13.000000 -46.678425
v 19.500000 19.113310 -46.678425
v 19.500000 17.786692 -46.678425
v 19.500000 24.000000 -47.321571
v 20.500000 13.000000 -47.321571
v 19.500000 19.113310 -47.321571
v 19.500000 17.786692 -47.321571
v 19.500000 13.000000 -47.321571
v 20.500000 24.000000 -47.321571
v 20.500000 19.113310 -47.321571
v 20.500000 17.786692 -47.321571
vn -1.0000 -0.0000 -0.0000
vn -0.0000 -0.0000 -1.0000
vn 1.0000 -0.0000 -0.0000
vn -0.0000 -0.0000 1.0000
vn -0.0000 -1.0000 -0.0000
vn -0.0000 1.0000 -0.0000
vt 0.625000 0.125000
vt 0.500000 0.250000
vt 0.500000 0.125000
vt 0.625000 0.250000
vt 0.500000 0.500000
vt 0.625000 0.625000
vt 0.500000 0.750000
vt 0.500000 0.625000
vt 0.625000 0.750000
vt 0.500000 1.000000
vt 0.375000 0.625000
vt 0.125000 0.750000
vt 0.125000 0.625000
vt 0.875000 0.625000
vt 0.375000 0.250000
vt 0.375000 0.125000
vt 0.375000 0.500000
vt 0.375000 0.750000
vt 0.375000 1.000000
vt 0.625000 0.000000
vt 0.500000 0.000000
vt 0.375000 0.000000
vt 0.125000 0.500000
vt 0.875000 0.500000
vt 0.625000 0.500000
vt 0.625000 1.000000
vt 0.875000 0.750000
s 0
f 25/1/1 10/2/1 27/3/1
f 4/4/2 11/5/2 10/2/2
f 18/6/3 12/7/3 19/8/3
f 6/9/4 9/10/4 12/7/4
f 22/11/5 1/12/5 17/13/5
f 21/14/6 6/9/6 18/6/6
f 12/7/4 16/10/4 15/7/4
f 19/8/3 15/7/3 20/8/3
f 10/2/2 14/5/2 13/2/2
f 27/3/1 13/2/1 28/3/1
f 28/3/1 3/15/1 29/16/1
f 13/2/2 7/17/2 3/15/2
f 22/11/3 15/7/3 5/18/3
f 15/7/4 1/19/4 5/18/4
f 17/16/1 28/3/1 29/16/1
f 28/3/6 20/8/6 32/8/6
f 31/8/4 28/3/4 32/8/4
f 25/14/6 18/6/6 30/6/6
f 23/3/5 31/8/5 19/8/5
f 2/20/1 23/3/1 9/21/1
f 9/21/1 24/3/1 16/21/1
f 16/21/1 17/16/1 1/22/1
f 26/11/5 17/13/5 29/13/5
f 20/8/3 26/11/3 32/8/3
f 23/3/1 25/1/1 27/3/1
f 11/5/3 30/6/3 31/8/3
f 7/17/5 29/13/5 3/23/5
f 4/24/6 30/6/6 8/25/6
f 11/5/3 32/8/3 14/5/3
f 14/5/3 26/11/3 7/17/3
f 30/6/3 19/8/3 31/8/3
f 19/8/2 24/3/2 23/3/2
f 25/1/1 4/4/1 10/2/1
f 4/4/2 8/25/2 11/5/2
f 18/6/3 6/9/3 12/7/3
f 6/9/4 2/26/4 9/10/4
f 22/11/5 5/18/5 1/12/5
f 21/14/6 2/27/6 6/9/6
f 12/7/4 9/10/4 16/10/4
f 19/8/3 12/7/3 15/7/3
f 10/2/2 11/5/2 14/5/2
f 27/3/1 10/2/1 13/2/1
f 28/3/1 13/2/1 3/15/1
f 13/2/2 14/5/2 7/17/2
f 22/11/3 20/8/3 15/7/3
f 15/7/4 16/10/4 1/19/4
f 17/16/1 24/3/1 28/3/1
f 28/3/6 24/3/6 20/8/6
f 31/8/4 27/3/4 28/3/4
f 25/14/6 21/14/6 18/6/6
f 23/3/5 27/3/5 31/8/5
f 2/20/1 21/1/1 23/3/1
f 9/21/1 23/3/1 24/3/1
f 16/21/1 24/3/1 17/16/1
f 26/11/5 22/11/5 17/13/5
f 20/8/3 22/11/3 26/11/3
f 23/3/1 21/14/1 25/1/1
f 11/5/3 8/25/3 30/6/3
f 7/17/5 26/11/5 29/13/5
f 4/24/6 25/14/6 30/6/6
f 11/5/3 31/8/3 32/8/3
f 14/5/3 32/8/3 26/11/3
f 30/6/3 18/6/3 19/8/3
f 19/8/2 20/8/2 24/3/2
