# Blender 4.3.2
# www.blender.org
o hole_walking.001
v 12.500000 14.500000 -56.735828
v 12.500000 14.500000 -37.264172
v 13.500000 14.500000 -56.735828
v 13.500000 14.500000 -37.264172
v 13.500000 24.500000 -37.264172
v 12.500000 24.500000 -37.264172
v 12.500000 24.500000 -56.735828
v 13.500000 24.500000 -56.735828
v 12.500000 14.500000 -47.833332
v 12.500000 14.500000 -46.166668
v 13.500000 14.500000 -47.833332
v 13.500000 14.500000 -46.166668
v 12.500000 24.500000 -47.833332
v 12.500000 24.500000 -46.166668
v 13.500000 24.500000 -47.833332
v 13.500000 24.500000 -46.166668
v 12.500000 15.600000 -56.735828
v 13.500000 15.600000 -56.735828
v 12.500000 15.600000 -37.264172
v 13.500000 15.600000 -37.264172
v 13.500000 15.599999 -46.166668
v 13.500000 15.599999 -47.833332
v 12.500000 15.599999 -47.833332
v 12.500000 15.599999 -46.166668
vn -0.0000 -0.0000 -1.0000
vn -0.0000 1.0000 -0.0000
vn -1.0000 -0.0000 -0.0000
vn 1.0000 -0.0000 -0.0000
vn -0.0000 -0.0000 1.0000
vn -0.0000 -1.0000 -0.0000
vt 0.625000 0.375000
vt 0.750000 0.666667
vt 0.750000 0.750000
vt 0.750000 0.500000
vt 0.750000 0.583333
vt 0.750000 0.583333
vt 0.625000 0.875000
s 0
f 17/1/1 8/1/1 18/1/1
f 14/2/2 5/3/2 16/2/2
f 19/3/3 14/2/3 24/2/3
f 18/4/4 15/5/4 22/6/4
f 20/7/5 6/7/5 19/7/5
f 21/2/4 5/3/4 20/3/4
f 22/6/4 16/2/4 21/2/4
f 23/6/3 7/4/3 17/4/3
f 24/2/3 13/6/3 23/6/3
f 7/4/2 15/5/2 8/4/2
f 13/6/2 16/2/2 15/5/2
f 23/6/5 11/6/5 22/6/5
f 9/6/3 17/4/3 1/4/3
f 12/2/4 20/3/4 4/3/4
f 4/7/5 19/7/5 2/7/5
f 3/4/4 22/6/4 11/6/4
f 2/3/3 24/2/3 10/2/3
f 1/1/1 18/1/1 3/1/1
f 23/6/6 21/2/6 24/2/6
f 12/2/1 24/2/1 21/2/1
f 4/3/6 10/2/6 12/2/6
f 11/6/6 1/4/6 3/4/6
f 17/1/1 7/1/1 8/1/1
f 14/2/2 6/3/2 5/3/2
f 19/3/3 6/3/3 14/2/3
f 18/4/4 8/4/4 15/5/4
f 20/7/5 5/7/5 6/7/5
f 21/2/4 16/2/4 5/3/4
f 22/6/4 15/5/4 16/2/4
f 23/6/3 13/6/3 7/4/3
f 24/2/3 14/2/3 13/6/3
f 7/4/2 13/6/2 15/5/2
f 13/6/2 14/2/2 16/2/2
f 23/6/5 9/6/5 11/6/5
f 9/6/3 23/6/3 17/4/3
f 12/2/4 21/2/4 20/3/4
f 4/7/5 20/7/5 19/7/5
f 3/4/4 18/4/4 22/6/4
f 2/3/3 19/3/3 24/2/3
f 1/1/1 17/1/1 18/1/1
f 23/6/6 22/6/6 21/2/6
f 12/2/1 10/2/1 24/2/1
f 4/3/6 2/3/6 10/2/6
f 11/6/6 9/6/6 1/4/6
