# Blender 4.3.2
# www.blender.org
o swim_chamber
v 31.646446 -10.353554 -35.000000
v 31.646446 -1.000000 -34.646446
v 31.711325 -10.288675 -45.288673
v 31.646446 -1.000000 -45.353554
v 42.353554 -10.353554 -35.000000
v 42.353554 -1.000000 -34.646446
v 42.288673 -10.288675 -45.288673
v 42.353554 -1.000000 -45.353554
v 31.547733 -5.849244 -34.849243
v 31.646446 -6.000000 -45.353554
v 42.353554 -6.000000 -45.353554
v 42.452267 -5.849244 -34.849243
v 41.846542 -5.805102 -20.565874
v 42.000000 -10.353554 -20.646446
v 31.711325 -10.288675 -20.711325
v 31.711325 -5.711325 -20.711325
v 31.711325 -10.288675 -29.711325
v 31.562687 -5.808941 -32.149174
v 42.288673 -10.288675 -29.711325
v 42.437313 -5.808941 -32.149174
v 31.711325 -10.288675 -28.288675
v 42.270348 -10.289412 -28.305210
v 42.432049 -5.777843 -25.881767
v 31.562687 -5.808941 -25.850826
v 31.704330 -1.682187 -26.751862
v 31.704330 -1.682187 -31.248142
v 42.295670 -1.682187 -31.248142
v 42.295670 -1.682187 -26.751862
v 41.711327 -6.288675 -29.711325
v 32.288673 -6.288675 -29.711325
v 32.288673 -6.288675 -28.288675
v 41.711327 -6.288675 -28.288675
v 31.646446 -10.353554 -24.000000
v 42.145069 -10.454790 -24.148731
v 42.784199 -5.930694 -24.339222
v 31.646446 -5.646446 -24.000000
v 52.306664 -6.019467 -20.605566
v 52.259026 -10.296967 -20.692242
v 52.273472 -10.313527 -24.277334
v 53.495468 -5.930694 -24.064106
v 42.670776 -1.627497 -24.053427
v 41.664574 -1.718860 -20.758238
v 53.365150 -1.663619 -23.940744
v 52.234715 -1.701904 -20.674351
v 53.353554 -6.000000 -34.353554
v 42.646446 -6.000000 -34.353554
v 53.288673 -1.711325 -34.288677
v 42.711327 -1.711325 -34.288677
v 32.000000 -10.000000 -35.000000
v 32.000000 -1.000000 -35.000000
v 32.000000 -10.000000 -45.000000
v 32.000000 -1.000000 -45.000000
v 42.000000 -10.000000 -35.000000
v 42.000000 -1.000000 -35.000000
v 42.000000 -10.000000 -45.000000
v 42.000000 -1.000000 -45.000000
v 32.000000 -6.000000 -35.000000
v 32.000000 -6.000000 -45.000000
v 42.000000 -6.000000 -45.000000
v 42.000000 -6.000000 -35.000000
v 42.000000 -6.000000 -21.000000
v 42.000000 -10.000000 -21.000000
v 32.000000 -10.000000 -21.000000
v 32.000000 -6.000000 -21.000000
v 32.000000 -10.000000 -30.000000
v 32.000000 -6.000000 -32.000000
v 42.000000 -10.000000 -30.000000
v 42.000000 -6.000000 -32.000000
v 32.000000 -10.000000 -28.000000
v 42.000000 -10.000000 -28.000000
v 42.000000 -6.000000 -26.000000
v 32.000000 -6.000000 -26.000000
v 32.000000 -2.000000 -27.000000
v 32.000000 -2.000000 -31.000000
v 42.000000 -2.000000 -31.000000
v 42.000000 -2.000000 -27.000000
v 42.000000 -6.000000 -30.000000
v 32.000000 -6.000000 -30.000000
v 32.000000 -6.000000 -28.000000
v 42.000000 -6.000000 -28.000000
v 32.000000 -10.000000 -24.000000
v 42.000000 -10.000000 -24.000000
v 43.000000 -5.930694 -24.000000
v 32.000000 -6.000000 -24.000000
v 52.000000 -6.000000 -21.000000
v 52.000000 -10.000000 -21.000000
v 52.000000 -10.000000 -24.000000
v 53.000000 -5.930694 -24.000000
v 43.000000 -2.000000 -24.000000
v 42.000000 -2.000000 -21.000000
v 53.000000 -2.000000 -24.000000
v 52.000000 -2.000000 -21.000000
v 53.000000 -6.000000 -34.000000
v 43.000000 -6.000000 -34.000000
v 53.000000 -2.000000 -34.000000
v 43.000000 -2.000000 -34.000000
vn -1.0000 -0.0000 -0.0094
vn -0.0000 -0.0000 -1.0000
vn 1.0000 -0.0000 -0.0094
vn -0.0000 -0.0418 0.9991
vn -0.0000 -1.0000 -0.0063
vn -0.9998 -0.0000 0.0197
vn 0.9999 -0.0152 -0.0064
vn -0.0000 -0.0151 -0.9999
vn -0.9999 -0.0152 -0.0064
vn -0.0064 -0.0179 0.9998
vn -0.0064 -0.9998 0.0199
vn 0.0056 -0.9996 0.0291
vn 0.0247 0.9993 -0.0271
vn -0.0000 0.9999 -0.0149
vn 0.9996 -0.0263 0.0126
vn -0.0000 -0.9999 0.0123
vn -0.9997 -0.0221 0.0059
vn -0.9994 0.0343 -0.0000
vn 0.9990 -0.0428 0.0130
vn -0.0000 0.0041 -1.0000
vn -0.9995 -0.0332 -0.0000
vn -0.0000 1.0000 -0.0000
vn 0.0022 0.2132 0.9770
vn 0.9994 0.0333 -0.0000
vn -0.0000 0.2133 -0.9770
vn -0.0000 -1.0000 -0.0000
vn 0.9897 -0.1429 -0.0000
vn -0.0000 -0.0000 1.0000
vn -0.9897 -0.1428 -0.0130
vn 0.0282 0.9953 0.0922
vn 0.9983 -0.0509 0.0281
vn -0.0099 -0.9998 -0.0153
vn -0.9990 -0.0000 0.0452
vn 0.9632 -0.2688 0.0051
vn 0.0034 -0.0176 0.9998
vn -0.0000 1.0000 -0.0082
vn -0.0121 -0.0404 -0.9991
vn 0.0032 0.9999 0.0128
vn -0.9705 -0.0096 -0.2408
vn -0.0080 0.0467 0.9989
vn 0.9453 0.0209 0.3255
vn -0.0000 0.0151 -0.9999
vn -0.9998 0.0149 0.0136
vn 0.9995 0.0307 -0.0075
vn 1.0000 -0.0000 -0.0000
vn -1.0000 -0.0000 -0.0000
vn 0.0063 -0.9998 -0.0210
vn -0.0000 -0.2425 -0.9701
vn -0.0000 -0.2425 0.9701
vn -0.9254 0.2274 -0.3032
vn 0.9487 -0.0000 0.3162
vn -0.9487 -0.0000 -0.3162
vn -0.0109 -0.9999 0.0069
vn 0.0066 -1.0000 0.0066
vn -0.9998 0.0204 -0.0000
vn 0.9998 0.0204 -0.0000
vn 0.9997 -0.0216 -0.0091
vn -0.9997 -0.0216 -0.0091
vn -0.0143 -0.0000 0.9999
vn -0.0092 -0.9996 0.0285
vn 0.0140 -0.9999 0.0047
vn 0.0090 0.9998 0.0195
vn 0.9997 -0.0221 0.0059
vn -0.9996 -0.0263 0.0126
vn 0.9995 -0.0326 0.0010
vn -0.0016 0.0002 -1.0000
vn -0.0000 0.2078 0.9782
vn 0.9994 0.0342 0.0007
vn -0.9904 -0.1384 -0.0000
vn -0.0031 0.9962 -0.0873
vn 0.9613 -0.1457 -0.2339
vn -0.0001 -0.9992 -0.0398
vn -0.9996 -0.0247 -0.0155
vn 0.9457 -0.0171 0.3246
vn 0.0046 -0.0203 0.9998
vn 0.0034 1.0000 -0.0046
vn 0.0257 0.0414 -0.9988
vn -0.0018 0.9996 0.0272
vn -0.9545 -0.0563 -0.2930
vn 0.0041 0.0160 0.9999
vn 0.9448 0.0194 0.3272
vn -0.9997 -0.0261 -0.0037
vn 0.9998 0.0153 -0.0139
vn 0.0063 -0.9995 0.0315
vn -0.8764 0.2154 0.4307
vn -0.0070 -1.0000 0.0070
vn 0.0009 -1.0000 0.0069
vt 0.375000 0.000000
vt 0.625000 0.250000
vt 0.375000 0.250000
vt 0.375000 0.500000
vt 0.625000 0.500000
vt 0.375000 0.750000
vt 0.625000 0.750000
vt 0.375000 1.000000
vt 0.125000 0.750000
vt 0.125000 0.500000
vt 0.625000 0.000000
vt 0.625000 1.000000
s 0
f 9/1/1 4/2/1 10/3/1
f 4/2/2 11/4/2 10/3/2
f 8/5/3 12/6/3 11/4/3
f 6/7/4 9/8/4 12/6/4
f 7/4/5 1/9/5 3/10/5
f 36/1/6 15/1/6 16/1/6
f 11/4/7 5/6/7 7/4/7
f 10/3/8 7/4/8 3/3/8
f 1/1/9 10/3/9 3/3/9
f 13/6/10 15/8/10 14/6/10
f 33/9/11 14/6/11 15/9/11
f 34/6/12 38/6/12 14/6/12
f 36/8/13 13/6/13 35/6/13
f 12/6/14 18/8/14 20/6/14
f 5/6/15 20/6/15 19/6/15
f 5/6/16 17/9/16 1/9/16
f 1/1/17 18/1/17 9/1/17
f 18/1/18 25/1/18 26/1/18
f 19/6/19 23/6/19 22/6/19
f 22/6/20 31/9/20 32/6/20
f 17/1/21 24/1/21 18/1/21
f 26/8/22 28/6/22 27/6/22
f 23/6/23 25/8/23 24/8/23
f 23/6/24 27/6/24 28/6/24
f 20/6/25 26/8/25 27/6/25
f 29/6/26 31/9/26 30/9/26
f 17/1/27 31/1/27 21/1/27
f 19/6/28 30/9/28 17/9/28
f 22/6/29 29/6/29 19/6/29
f 23/6/30 36/8/30 35/6/30
f 23/6/31 34/6/31 22/6/31
f 21/9/32 34/6/32 33/9/32
f 24/1/33 33/1/33 36/1/33
f 40/6/34 38/6/34 39/6/34
f 14/6/35 37/6/35 13/6/35
f 41/6/36 47/6/36 48/6/36
f 35/6/37 39/6/37 34/6/37
f 41/6/38 44/6/38 43/6/38
f 13/6/39 41/6/39 35/6/39
f 13/6/40 44/6/40 42/6/40
f 40/6/41 44/6/41 37/6/41
f 46/6/42 47/6/42 45/6/42
f 35/6/43 48/6/43 46/6/43
f 40/6/44 47/6/44 43/6/44
f 58/3/45 50/11/45 57/1/45
f 59/4/28 52/2/28 58/3/28
f 60/6/46 56/5/46 59/4/46
f 57/8/2 54/7/2 60/6/2
f 49/9/22 55/4/22 51/10/22
f 64/1/45 81/1/45 84/1/45
f 53/6/46 59/4/46 55/4/46
f 55/4/28 58/3/28 51/3/28
f 51/3/45 57/1/45 49/1/45
f 63/8/2 61/6/2 62/6/2
f 63/9/22 82/6/22 81/9/22
f 86/6/22 82/6/22 62/6/22
f 61/6/47 84/8/47 83/6/47
f 68/6/26 57/8/26 60/6/26
f 53/6/46 68/6/46 60/6/46
f 65/9/22 53/6/22 49/9/22
f 66/1/45 49/1/45 57/1/45
f 74/1/45 72/1/45 66/1/45
f 70/6/46 68/6/46 67/6/46
f 80/6/28 69/9/28 70/6/28
f 72/1/45 65/1/45 66/1/45
f 76/6/26 74/8/26 75/6/26
f 73/8/48 71/6/48 72/8/48
f 76/6/46 68/6/46 71/6/46
f 75/6/49 66/8/49 68/6/49
f 79/9/22 77/6/22 78/9/22
f 79/1/46 65/1/46 69/1/46
f 78/9/2 67/6/2 65/9/2
f 77/6/45 70/6/45 67/6/45
f 71/6/26 84/8/26 72/8/26
f 82/6/46 71/6/46 70/6/46
f 81/9/22 70/6/22 69/9/22
f 72/1/45 81/1/45 69/1/45
f 87/6/50 85/6/50 88/6/50
f 85/6/2 62/6/2 61/6/2
f 96/6/26 91/6/26 89/6/26
f 87/6/28 83/6/28 82/6/28
f 89/6/26 92/6/26 90/6/26
f 83/6/51 90/6/51 61/6/51
f 90/6/2 85/6/2 61/6/2
f 92/6/52 88/6/52 85/6/52
f 95/6/28 94/6/28 93/6/28
f 83/6/45 96/6/45 89/6/45
f 95/6/46 88/6/46 91/6/46
f 2/11/22 52/2/22 4/2/22
f 4/2/22 56/5/22 8/5/22
f 8/5/22 54/7/22 6/7/22
f 6/7/22 50/12/22 2/12/22
f 35/6/22 88/6/22 40/6/22
f 45/6/26 94/6/26 46/6/26
f 35/6/53 94/6/53 83/6/53
f 40/6/54 93/6/54 45/6/54
f 9/1/55 2/11/55 4/2/55
f 4/2/2 8/5/2 11/4/2
f 8/5/56 6/7/56 12/6/56
f 6/7/4 2/12/4 9/8/4
f 7/4/5 5/6/5 1/9/5
f 36/1/6 33/1/6 15/1/6
f 11/4/57 12/6/57 5/6/57
f 10/3/8 11/4/8 7/4/8
f 1/1/58 9/1/58 10/3/58
f 13/6/59 16/8/59 15/8/59
f 33/9/60 34/6/60 14/6/60
f 34/6/61 39/6/61 38/6/61
f 36/8/62 16/8/62 13/6/62
f 12/6/14 9/8/14 18/8/14
f 5/6/63 12/6/63 20/6/63
f 5/6/16 19/6/16 17/9/16
f 1/1/64 17/1/64 18/1/64
f 18/1/18 24/1/18 25/1/18
f 19/6/65 20/6/65 23/6/65
f 22/6/66 21/9/66 31/9/66
f 17/1/21 21/1/21 24/1/21
f 26/8/22 25/8/22 28/6/22
f 23/6/67 28/6/67 25/8/67
f 23/6/68 20/6/68 27/6/68
f 20/6/25 18/8/25 26/8/25
f 29/6/26 32/6/26 31/9/26
f 17/1/27 30/1/27 31/1/27
f 19/6/28 29/6/28 30/9/28
f 22/6/69 32/6/69 29/6/69
f 23/6/70 24/8/70 36/8/70
f 23/6/71 35/6/71 34/6/71
f 21/9/72 22/6/72 34/6/72
f 24/1/73 21/1/73 33/1/73
f 40/6/74 37/6/74 38/6/74
f 14/6/75 38/6/75 37/6/75
f 41/6/76 43/6/76 47/6/76
f 35/6/77 40/6/77 39/6/77
f 41/6/78 42/6/78 44/6/78
f 13/6/79 42/6/79 41/6/79
f 13/6/80 37/6/80 44/6/80
f 40/6/81 43/6/81 44/6/81
f 46/6/42 48/6/42 47/6/42
f 35/6/82 41/6/82 48/6/82
f 40/6/83 45/6/83 47/6/83
f 58/3/45 52/2/45 50/11/45
f 59/4/28 56/5/28 52/2/28
f 60/6/46 54/7/46 56/5/46
f 57/8/2 50/12/2 54/7/2
f 49/9/22 53/6/22 55/4/22
f 64/1/45 63/1/45 81/1/45
f 53/6/46 60/6/46 59/4/46
f 55/4/28 59/4/28 58/3/28
f 51/3/45 58/3/45 57/1/45
f 63/8/2 64/8/2 61/6/2
f 63/9/22 62/6/22 82/6/22
f 86/6/22 87/6/22 82/6/22
f 61/6/26 64/8/26 84/8/26
f 68/6/26 66/8/26 57/8/26
f 53/6/46 67/6/46 68/6/46
f 65/9/22 67/6/22 53/6/22
f 66/1/45 65/1/45 49/1/45
f 74/1/45 73/1/45 72/1/45
f 70/6/46 71/6/46 68/6/46
f 80/6/28 79/9/28 69/9/28
f 72/1/45 69/1/45 65/1/45
f 76/6/26 73/8/26 74/8/26
f 73/8/48 76/6/48 71/6/48
f 76/6/46 75/6/46 68/6/46
f 75/6/49 74/8/49 66/8/49
f 79/9/22 80/6/22 77/6/22
f 79/1/46 78/1/46 65/1/46
f 78/9/2 77/6/2 67/6/2
f 77/6/45 80/6/45 70/6/45
f 71/6/84 83/6/84 84/8/84
f 82/6/85 83/6/85 71/6/85
f 81/9/22 82/6/22 70/6/22
f 72/1/45 84/1/45 81/1/45
f 87/6/46 86/6/46 85/6/46
f 85/6/2 86/6/2 62/6/2
f 96/6/26 95/6/26 91/6/26
f 87/6/28 88/6/28 83/6/28
f 89/6/26 91/6/26 92/6/26
f 83/6/51 89/6/51 90/6/51
f 90/6/2 92/6/2 85/6/2
f 92/6/52 91/6/52 88/6/52
f 95/6/28 96/6/28 94/6/28
f 83/6/45 94/6/45 96/6/45
f 95/6/46 93/6/46 88/6/46
f 2/11/22 50/11/22 52/2/22
f 4/2/22 52/2/22 56/5/22
f 8/5/22 56/5/22 54/7/22
f 6/7/22 54/7/22 50/12/22
f 35/6/22 83/6/22 88/6/22
f 45/6/26 93/6/26 94/6/26
f 35/6/86 46/6/86 94/6/86
f 40/6/87 88/6/87 93/6/87
