# Blender 4.3.2
# www.blender.org
o watermesh
v 32.162109 -9.898199 -35.049999
v 32.162109 -1.000000 -35.049999
v 32.162109 -9.898199 -44.950001
v 32.162109 -1.000000 -44.950001
v 41.659790 -9.898199 -35.049999
v 41.659790 -1.000000 -35.049999
v 41.659790 -9.898199 -44.950001
v 41.659790 -1.000000 -44.950001
v 32.162109 -6.031621 -35.049999
v 32.162109 -6.000000 -44.950001
v 41.659790 -6.000000 -44.950001
v 41.659790 -6.133422 -35.049999
v 32.162109 -9.898199 -30.158936
v 32.162109 -6.031621 -30.158936
v 41.659790 -9.898199 -30.158936
v 41.659790 -6.133422 -30.158936
v 41.999996 -6.133422 -21.168001
v 41.999996 -9.898199 -21.168001
v 32.250526 -9.898199 -21.168001
v 32.250526 -6.133422 -21.168001
v 32.250526 -9.898199 -27.899229
v 41.807316 -9.898199 -27.899229
v 41.807316 -6.133422 -27.899229
v 32.250526 -6.133422 -27.899229
v 32.250526 -9.898199 -24.000000
v 41.807316 -9.898199 -23.815865
v 42.144405 -6.064116 -23.815865
v 32.250526 -6.133422 -24.000000
v 51.562729 -6.133422 -21.168001
v 51.562729 -9.898199 -21.168001
v 51.562729 -9.898199 -23.815865
v 52.562729 -6.064116 -23.815865
vn 1.0000 -0.0000 -0.0000
vn -0.0000 -0.0000 1.0000
vn -1.0000 -0.0000 -0.0000
vn -0.0000 -0.0000 -1.0000
vn -0.0000 1.0000 -0.0000
vn -0.9108 0.2375 -0.3377
vn -0.0107 -0.9999 -0.0000
vn -0.0000 -0.9997 -0.0262
vn -0.0000 -1.0000 -0.0000
vn -0.9929 0.0873 0.0805
vn -0.0000 -0.9999 0.0170
vn 0.0070 -1.0000 -0.0000
vt 0.375000 0.250000
vt 0.625000 0.000000
vt 0.375000 0.000000
vt 0.375000 0.500000
vt 0.625000 0.250000
vt 0.625000 0.750000
vt 0.625000 0.500000
vt 0.375000 1.000000
vt 0.375000 0.750000
vt 0.125000 0.750000
vt 0.125000 0.500000
vt 0.625000 1.000000
s 0
f 10/1/1 2/2/1 9/3/1
f 11/4/2 4/5/2 10/1/2
f 11/4/3 6/6/3 8/7/3
f 9/8/4 6/6/4 12/9/4
f 1/10/5 7/4/5 3/11/5
f 7/4/3 12/9/3 11/4/3
f 7/4/2 10/1/2 3/1/2
f 3/1/1 9/3/1 1/3/1
f 15/9/3 12/9/3 5/9/3
f 13/10/5 5/9/5 1/10/5
f 14/3/1 1/3/1 9/3/1
f 13/10/4 16/9/4 15/9/4
f 20/3/1 25/3/1 28/3/1
f 19/8/4 17/9/4 18/9/4
f 19/10/5 26/9/5 25/10/5
f 18/9/5 31/9/5 26/9/5
f 23/9/2 21/10/2 22/9/2
f 26/9/3 23/9/3 22/9/3
f 25/10/5 22/9/5 21/10/5
f 28/3/1 21/3/1 24/3/1
f 31/9/6 29/9/6 32/9/6
f 29/9/4 18/9/4 17/9/4
f 31/9/2 27/9/2 26/9/2
f 12/9/7 14/3/7 9/3/7
f 20/3/8 27/9/8 29/9/8
f 4/5/9 6/6/9 2/12/9
f 10/1/1 4/5/1 2/2/1
f 11/4/2 8/7/2 4/5/2
f 11/4/3 12/9/3 6/6/3
f 9/8/4 2/12/4 6/6/4
f 1/10/5 5/9/5 7/4/5
f 7/4/3 5/9/3 12/9/3
f 7/4/2 11/4/2 10/1/2
f 3/1/1 10/1/1 9/3/1
f 15/9/3 16/9/3 12/9/3
f 13/10/5 15/9/5 5/9/5
f 14/3/1 13/3/1 1/3/1
f 13/10/4 14/10/4 16/9/4
f 20/3/1 19/3/1 25/3/1
f 19/8/4 20/8/4 17/9/4
f 19/10/5 18/9/5 26/9/5
f 18/9/5 30/9/5 31/9/5
f 23/9/2 24/10/2 21/10/2
f 26/9/10 27/9/10 23/9/10
f 25/10/5 26/9/5 22/9/5
f 28/3/1 25/3/1 21/3/1
f 31/9/3 30/9/3 29/9/3
f 29/9/4 30/9/4 18/9/4
f 31/9/2 32/9/2 27/9/2
f 12/9/7 16/9/7 14/3/7
f 29/9/5 17/9/5 20/3/5
f 20/3/3 28/3/3 24/10/3
f 24/10/11 23/9/11 27/9/11
f 27/9/8 32/9/8 29/9/8
f 20/3/12 24/10/12 27/9/12
f 4/5/9 8/7/9 6/6/9
