# Blender 4.3.2
# www.blender.org
o divider
v -44.000004 -25.000002 -114.000000
v -30.000000 -24.999998 -114.000000
v -44.000004 -25.000002 -127.000000
v -30.000004 -24.999998 -127.000000
v -37.000004 -25.000000 -114.000000
v -37.000004 -25.000000 -127.000000
v -44.000004 -25.000002 -120.500000
v -37.000004 -25.000000 -120.500000
v -37.000004 -25.000000 -120.500000
v -44.000004 -21.000002 -114.000000
v -30.000002 -21.000000 -114.000000
v -44.000004 -21.000002 -127.000000
v -30.000004 -21.000000 -127.000000
v -37.000004 -21.000000 -120.500000
v -37.000004 -21.000000 -127.000000
v -44.000004 -21.000002 -120.500000
v -30.000004 -21.000000 -120.500000
v -37.000004 -21.000000 -120.500000
v -44.000004 -17.000002 -114.000000
v -30.000002 -17.000000 -114.000000
v -44.000008 -17.000002 -127.000000
v -30.000004 -17.000000 -127.000000
v -37.000004 -17.000000 -114.000000
v -37.000008 -17.000000 -120.500000
v -44.000004 -17.000002 -120.500000
v -30.000004 -17.000000 -120.500000
v -37.000004 -17.000000 -120.500000
v -44.000004 -13.000001 -114.000000
v -30.000004 -12.999999 -114.000000
v -44.000008 -13.000001 -127.000000
v -30.000006 -12.999999 -127.000000
v -37.000004 -13.000000 -114.000000
v -37.000008 -13.000000 -127.000000
v -37.000008 -13.000000 -120.500000
v -30.000004 -12.999999 -120.500000
v -37.000008 -13.000000 -120.500000
v -44.000004 -25.100002 -114.000000
v -30.000000 -25.099998 -114.000000
v -44.000004 -25.100002 -127.000000
v -30.000004 -25.099998 -127.000000
v -37.000004 -25.100000 -114.000000
v -37.000004 -25.100000 -127.000000
v -44.000004 -25.100002 -120.500000
v -37.000004 -25.100000 -120.500000
v -37.000004 -25.100000 -120.500000
v -44.000004 -21.100002 -114.000000
v -30.000002 -21.099998 -114.000000
v -44.000004 -21.100002 -127.000000
v -30.000004 -21.099998 -127.000000
v -37.000004 -21.100000 -120.500000
v -37.000004 -21.100000 -127.000000
v -44.000004 -21.100002 -120.500000
v -30.000004 -21.099998 -120.500000
v -37.000004 -21.100000 -120.500000
v -44.000004 -17.100002 -114.000000
v -30.000002 -17.099998 -114.000000
v -44.000008 -17.100002 -127.000000
v -30.000004 -17.099998 -127.000000
v -37.000004 -17.100000 -114.000000
v -37.000008 -17.100000 -120.500000
v -44.000004 -17.100002 -120.500000
v -30.000004 -17.099998 -120.500000
v -37.000004 -17.100000 -120.500000
v -44.000004 -13.100001 -114.000000
v -30.000004 -13.099999 -114.000000
v -44.000008 -13.100001 -127.000000
v -30.000006 -13.099999 -127.000000
v -37.000004 -13.100000 -114.000000
v -37.000008 -13.100000 -127.000000
v -37.000008 -13.100000 -120.500000
v -30.000004 -13.099999 -120.500000
v -37.000008 -13.100000 -120.500000
vn -0.0000 1.0000 -0.0000
vn 1.0000 -0.0000 -0.0000
vn -0.0000 -1.0000 -0.0000
vn -0.3829 -0.8263 0.4131
vn -0.0000 -0.9943 0.1065
vn -0.0000 0.7071 -0.7071
vn -0.0000 -0.0000 1.0000
vn -0.0000 -0.0000 -1.0000
vn -1.0000 -0.0000 -0.0000
vn 0.6805 -0.0000 0.7328
vn 0.6805 -0.0000 -0.7328
vn -0.6805 -0.0000 0.7328
vn -0.6805 -0.0000 -0.7328
vn 0.3832 0.8263 -0.4127
vn -0.0000 0.9476 0.3193
vn -1.0000 0.0071 -0.0000
vn -0.0000 0.9943 -0.1065
vn -0.6804 -0.0000 -0.7328
vn -0.6804 -0.0000 0.7328
vt 0.000000 0.000000
s 0
f 6/1/1 7/1/1 9/1/1
f 8/1/2 6/1/2 9/1/2
f 2/1/1 9/1/1 5/1/1
f 9/1/1 1/1/1 5/1/1
f 15/1/1 16/1/1 18/1/1
f 13/1/1 18/1/1 17/1/1
f 17/1/1 14/1/1 11/1/1
f 18/1/1 10/1/1 14/1/1
f 27/1/1 21/1/1 25/1/1
f 22/1/1 27/1/1 26/1/1
f 26/1/1 23/1/1 20/1/1
f 27/1/1 19/1/1 23/1/1
f 36/1/1 30/1/1 34/1/1
f 31/1/1 36/1/1 35/1/1
f 35/1/1 32/1/1 29/1/1
f 32/1/1 34/1/1 28/1/1
f 43/1/3 42/1/3 45/1/3
f 44/1/3 42/1/3 40/1/3
f 38/1/4 45/1/4 44/1/4
f 37/1/3 45/1/3 41/1/3
f 52/1/3 51/1/3 54/1/3
f 54/1/3 49/1/3 53/1/3
f 47/1/3 54/1/3 53/1/3
f 46/1/5 54/1/5 50/1/5
f 63/1/6 57/1/6 60/1/6
f 63/1/3 58/1/3 62/1/3
f 59/1/3 62/1/3 56/1/3
f 55/1/3 63/1/3 59/1/3
f 72/1/3 66/1/3 69/1/3
f 72/1/3 67/1/3 71/1/3
f 68/1/3 71/1/3 65/1/3
f 68/1/1 70/1/1 72/1/1
f 5/1/7 38/1/7 2/1/7
f 4/1/8 42/1/8 6/1/8
f 3/1/9 43/1/9 7/1/9
f 8/1/10 40/1/10 4/1/10
f 1/1/7 41/1/7 5/1/7
f 6/1/8 39/1/8 3/1/8
f 7/1/9 37/1/9 1/1/9
f 2/1/11 44/1/11 8/1/11
f 14/1/12 47/1/12 11/1/12
f 13/1/8 51/1/8 15/1/8
f 12/1/9 52/1/9 16/1/9
f 17/1/2 49/1/2 13/1/2
f 10/1/10 50/1/10 14/1/10
f 15/1/8 48/1/8 12/1/8
f 16/1/9 46/1/9 10/1/9
f 11/1/2 53/1/2 17/1/2
f 23/1/7 56/1/7 20/1/7
f 22/1/13 60/1/13 24/1/13
f 21/1/9 61/1/9 25/1/9
f 26/1/2 58/1/2 22/1/2
f 19/1/7 59/1/7 23/1/7
f 24/1/11 57/1/11 21/1/11
f 25/1/9 55/1/9 19/1/9
f 20/1/2 62/1/2 26/1/2
f 32/1/7 65/1/7 29/1/7
f 31/1/8 69/1/8 33/1/8
f 30/1/12 70/1/12 34/1/12
f 35/1/2 67/1/2 31/1/2
f 28/1/7 68/1/7 32/1/7
f 33/1/8 66/1/8 30/1/8
f 34/1/13 64/1/13 28/1/13
f 29/1/2 71/1/2 35/1/2
f 6/1/1 3/1/1 7/1/1
f 8/1/1 4/1/1 6/1/1
f 2/1/14 8/1/14 9/1/14
f 9/1/1 7/1/1 1/1/1
f 15/1/1 12/1/1 16/1/1
f 13/1/1 15/1/1 18/1/1
f 17/1/7 18/1/7 14/1/7
f 18/1/1 16/1/1 10/1/1
f 27/1/3 24/1/3 21/1/3
f 22/1/15 24/1/15 27/1/15
f 26/1/1 27/1/1 23/1/1
f 27/1/1 25/1/1 19/1/1
f 36/1/1 33/1/1 30/1/1
f 31/1/1 33/1/1 36/1/1
f 35/1/1 36/1/1 32/1/1
f 32/1/3 36/1/3 34/1/3
f 43/1/3 39/1/3 42/1/3
f 44/1/16 45/1/16 42/1/16
f 38/1/3 41/1/3 45/1/3
f 37/1/3 43/1/3 45/1/3
f 52/1/3 48/1/3 51/1/3
f 54/1/3 51/1/3 49/1/3
f 47/1/17 50/1/17 54/1/17
f 46/1/3 52/1/3 54/1/3
f 63/1/3 61/1/3 57/1/3
f 63/1/3 60/1/3 58/1/3
f 59/1/3 63/1/3 62/1/3
f 55/1/3 61/1/3 63/1/3
f 72/1/3 70/1/3 66/1/3
f 72/1/3 69/1/3 67/1/3
f 68/1/3 72/1/3 71/1/3
f 68/1/3 64/1/3 70/1/3
f 5/1/7 41/1/7 38/1/7
f 4/1/8 40/1/8 42/1/8
f 3/1/9 39/1/9 43/1/9
f 8/1/10 44/1/10 40/1/10
f 1/1/7 37/1/7 41/1/7
f 6/1/8 42/1/8 39/1/8
f 7/1/9 43/1/9 37/1/9
f 2/1/11 38/1/11 44/1/11
f 14/1/12 50/1/12 47/1/12
f 13/1/8 49/1/8 51/1/8
f 12/1/9 48/1/9 52/1/9
f 17/1/2 53/1/2 49/1/2
f 10/1/10 46/1/10 50/1/10
f 15/1/8 51/1/8 48/1/8
f 16/1/9 52/1/9 46/1/9
f 11/1/2 47/1/2 53/1/2
f 23/1/7 59/1/7 56/1/7
f 22/1/18 58/1/18 60/1/18
f 21/1/9 57/1/9 61/1/9
f 26/1/2 62/1/2 58/1/2
f 19/1/7 55/1/7 59/1/7
f 24/1/11 60/1/11 57/1/11
f 25/1/9 61/1/9 55/1/9
f 20/1/2 56/1/2 62/1/2
f 32/1/7 68/1/7 65/1/7
f 31/1/8 67/1/8 69/1/8
f 30/1/19 66/1/19 70/1/19
f 35/1/2 71/1/2 67/1/2
f 28/1/7 64/1/7 68/1/7
f 33/1/8 69/1/8 66/1/8
f 34/1/18 70/1/18 64/1/18
f 29/1/2 65/1/2 71/1/2
