# Blender 4.3.2
# www.blender.org
o walls
v -4.929289 10.070711 -104.787003
v -4.899998 0.000000 -104.787003
v 13.942263 10.057735 -112.795517
v 13.929289 0.000000 -112.808495
v 5.000000 10.089321 -104.955032
v 5.000001 0.000000 -104.900002
v 14.057735 10.057735 -104.942268
v 14.070713 0.000000 -104.929291
v -4.969849 10.090454 -123.030151
v -4.905130 0.000000 -123.031624
v -4.999777 10.099777 -104.793663
v 4.998765 10.070322 -112.808868
v -4.998623 10.069189 -105.886909
v -4.778923 10.069130 -106.943710
v -4.416103 10.069092 -107.941696
v -3.915431 10.069086 -108.866936
v -3.284344 10.069117 -109.707634
v -2.532322 10.069187 -110.454430
v -1.670678 10.069286 -111.100578
v -0.712302 10.069406 -111.642006
v 0.328604 10.069532 -112.077278
v 1.436752 10.069656 -112.407394
v 2.595982 10.069772 -112.635620
v 3.789463 10.069876 -112.767227
v 4.998264 0.000000 -112.837769
v -4.996659 0.000000 -104.886948
v 3.787408 0.000000 -112.795616
v 2.591684 0.000000 -112.663651
v 1.429983 0.000000 -112.434822
v 0.319149 0.000000 -112.103767
v -0.724614 0.000000 -111.667160
v -1.685937 0.000000 -111.123924
v -2.550497 0.000000 -110.475464
v -3.305256 0.000000 -109.725845
v -3.938751 0.000000 -108.881882
v -4.441373 0.000000 -107.953056
v -4.805608 0.000000 -106.951294
v -5.026165 0.000000 -105.890678
v 14.060585 10.056336 -104.943825
v 21.936285 10.068752 -114.001503
v 21.839224 10.068792 -112.595520
v 21.548841 10.069590 -111.433075
v 21.149879 10.069551 -110.324921
v 20.646790 10.069501 -109.284554
v 20.046762 10.069441 -108.327118
v 19.358393 10.069374 -107.466576
v 18.591566 10.069302 -106.715538
v 17.757317 10.069227 -106.085068
v 16.867729 10.069159 -105.584549
v 15.935768 10.069103 -105.221489
v 14.975121 10.069066 -105.001411
v 14.073330 0.000000 -104.932007
v 14.979269 0.000000 -104.974037
v 15.943916 0.000000 -105.195000
v 16.879610 0.000000 -105.559448
v 17.772570 0.000000 -106.061783
v 18.609781 0.000000 -106.694389
v 19.379145 0.000000 -107.447815
v 20.069632 0.000000 -108.310890
v 20.671381 0.000000 -109.270958
v 21.175829 0.000000 -110.314011
v 21.575811 0.000000 -111.424881
v 21.866310 0.000000 -112.591248
v 21.963665 0.000000 -114.002068
v 12.002155 10.070038 -123.071342
v 13.214045 10.069377 -122.998581
v 14.410389 10.069377 -122.779343
v 15.571587 10.069377 -122.417503
v 16.680700 10.069377 -121.918327
v 17.721558 10.069377 -121.289108
v 18.678982 10.069377 -120.539017
v 19.539013 10.069377 -119.678986
v 20.289106 10.069377 -118.721558
v 20.918327 10.069377 -117.680702
v 21.417500 10.069377 -116.571587
v 21.780615 10.068619 -115.408051
v 12.003023 0.000000 -123.099953
v 21.807297 0.000000 -115.413628
v 21.443665 0.000000 -116.581512
v 20.943104 0.000000 -117.693703
v 20.312136 0.000000 -118.737457
v 19.559959 0.000000 -119.697540
v 18.697538 0.000000 -120.559959
v 17.737453 0.000000 -121.312134
v 16.693705 0.000000 -121.943108
v 15.581511 0.000000 -122.443665
v 14.417088 0.000000 -122.806511
v 13.217421 0.000000 -123.026360
v 13.942263 10.057735 -117.942261
v 13.929289 0.000000 -117.929291
v -4.969849 10.090454 -117.969849
v -4.905129 0.000000 -117.968376
v -4.942266 10.057735 -128.057739
v -4.929288 0.000000 -128.070709
v -4.942265 10.057735 -112.942261
v -4.929287 0.000000 -112.929291
v -15.057735 10.057735 -112.942261
v -15.070709 0.000000 -112.929291
v -15.057735 10.057735 -128.057739
v -15.070709 0.000000 -128.070709
v -4.929288 -30.070709 -123.000000
v -4.929287 -30.070709 -118.000000
v -4.942263 -30.057735 -128.057739
v -4.942263 -30.057735 -112.942261
v -15.057734 -30.057739 -112.942261
v -15.057734 -30.057739 -128.057739
v -4.899998 -14.000000 -118.000000
v -4.899998 -14.000000 -123.000000
v -4.929287 -14.000000 -112.929291
v -4.929288 -14.000000 -128.070709
v -15.070709 -14.000000 -128.070709
v -15.070709 -14.000000 -112.929291
v -4.899998 -16.200001 -118.000000
v -4.929288 -16.200001 -128.070709
v -15.070709 -16.200001 -128.070709
v -4.899998 -16.200001 -123.000000
v -4.929287 -16.200001 -112.929291
v -15.070709 -16.200001 -112.929291
v -15.090452 -13.969849 -121.130150
v -15.090450 -16.230152 -121.130150
v -15.090452 -13.969849 -119.769844
v -15.090450 -16.230152 -119.769844
v -27.057737 -13.942266 -117.742264
v -27.057737 -13.942266 -123.157738
v -27.070711 -16.200003 -117.729286
v -27.070713 -16.200003 -123.170708
v -24.999998 -13.929291 -123.170708
v -24.969847 -16.230154 -123.190453
v -24.999998 -13.929291 -117.729286
v -24.969845 -16.230154 -117.709541
v -27.000000 -30.070709 -117.729286
v -27.000000 -30.070709 -123.170708
v -24.942261 -30.057735 -117.742264
v -24.942261 -30.057735 -123.157738
v -24.929287 -27.000000 -123.170708
v -24.929285 -27.000000 -117.729286
v -27.030151 -26.969849 -117.709541
v -27.030153 -26.969849 -123.190453
v -44.070713 -30.070713 -119.799995
v -44.070713 -30.070713 -121.099998
v -44.100002 -27.000004 -119.799995
v -44.100002 -27.000004 -121.099998
v -29.909546 -26.969851 -117.769844
v -29.909548 -26.969851 -123.130150
v -29.969849 -30.090454 -123.130150
v -29.969849 -30.090454 -117.769844
v -44.057735 -30.057739 -113.942261
v -44.070713 -27.000004 -113.929291
v -29.942265 -30.057735 -113.942268
v -29.929289 -27.000000 -113.929291
v -44.057739 -30.057739 -127.057732
v -44.070713 -27.000004 -127.070709
v -29.942266 -30.057735 -127.057739
v -29.929291 -27.000000 -127.070709
v -44.070713 -8.929289 -119.799995
v -44.070713 -8.929289 -121.099998
v -29.929289 -8.929286 -119.799995
v -29.929289 -8.929286 -121.099998
v -44.057735 -8.942265 -113.942261
v -29.942265 -8.942262 -113.942268
v -44.057739 -8.942265 -127.057732
v -29.942266 -8.942262 -127.057739
v -44.100002 -12.000000 -119.799995
v -44.100006 -12.000000 -121.099998
v -44.070713 -12.000000 -113.929291
v -44.070717 -12.000000 -127.070709
v -29.929289 -11.999998 -127.070709
v -29.900000 -11.999998 -119.799995
v -29.900000 -11.999998 -121.099998
v -29.929289 -11.999998 -113.929291
v -35.969849 -8.909545 -127.030151
v -35.969845 -12.030149 -127.090454
v -38.030155 -8.909546 -127.030151
v -38.030155 -12.030149 -127.090454
v -38.030151 -8.969848 -129.909546
v -35.969845 -8.969847 -129.909546
v -38.030155 -12.030149 -129.909546
v -35.969849 -12.030149 -129.909546
v -15.942266 -16.257736 -123.157738
v -15.942266 -13.942265 -123.157738
v -15.942265 -13.942265 -117.742264
v -15.942265 -16.257736 -117.742264
v -15.909546 -16.230152 -121.130150
v -15.909548 -13.969849 -121.130150
v -15.909548 -13.969849 -119.769844
v -15.909546 -16.230152 -119.769844
v -58.504185 28.557734 -129.942276
v -15.495852 28.557737 -129.942261
v -58.504173 -12.557734 -129.942276
v -15.495838 -12.557732 -129.942261
v -58.504200 28.557734 -330.057739
v -15.495869 28.557737 -330.057739
v -58.504189 -12.557734 -330.057739
v -15.495855 -12.557732 -330.057739
v -46.181301 -9.155337 -330.090454
v -43.044529 -9.155336 -330.090454
v -46.181305 -12.234194 -330.090454
v -43.044533 -12.234194 -330.090454
v -46.221859 -9.114777 -335.000000
v -43.003971 -9.114778 -335.000000
v -46.221863 -12.274754 -335.000000
v -43.003975 -12.274754 -335.000000
v -5.000000 10.000000 -104.787003
v -4.999998 0.000000 -104.787003
v 13.999998 10.000000 -112.737785
v 14.000000 0.000000 -112.737785
v 5.000000 10.000000 -105.000000
v 5.000001 0.000000 -105.000000
v 14.000000 10.000000 -105.000000
v 14.000002 0.000000 -105.000000
v -5.000000 10.000000 -123.000000
v -4.999999 0.000000 -123.000000
v -5.000000 10.000000 -104.787003
v 5.000000 10.000000 -112.737785
v -4.927089 10.000000 -105.877129
v -4.709418 10.000000 -106.923958
v -4.350163 10.000000 -107.912064
v -3.854560 10.000000 -108.827927
v -3.229839 10.000000 -109.660179
v -2.485109 10.000000 -110.399803
v -1.631227 10.000000 -111.040222
v -0.680648 10.000000 -111.577347
v 0.352767 10.000000 -112.009590
v 1.453949 10.000000 -112.337738
v 2.606842 10.000000 -112.564812
v 3.794632 10.000000 -112.695877
v 5.000001 0.000000 -112.737785
v -4.999998 0.000000 -104.787003
v 3.794634 0.000000 -112.695877
v 2.606844 0.000000 -112.564812
v 1.453951 0.000000 -112.337738
v 0.352769 0.000000 -112.009590
v -0.680646 0.000000 -111.577347
v -1.631226 0.000000 -111.040222
v -2.485107 0.000000 -110.399803
v -3.229837 0.000000 -109.660179
v -3.854558 0.000000 -108.827927
v -4.350161 0.000000 -107.912064
v -4.709416 0.000000 -106.923958
v -4.927087 0.000000 -105.877129
v 14.000000 10.000000 -105.000000
v 21.863684 10.000000 -114.000000
v 21.767532 10.000000 -112.606842
v 21.480127 10.000000 -111.453949
v 21.083645 10.000000 -110.352768
v 20.583870 10.000000 -109.319351
v 19.988085 10.000000 -108.368774
v 19.304979 10.000000 -107.514893
v 18.544518 10.000000 -106.770164
v 17.717783 10.000000 -106.145439
v 16.836838 10.000000 -105.649834
v 15.914524 10.000000 -105.290581
v 14.964291 10.000000 -105.072914
v 14.000002 0.000000 -105.000000
v 14.964293 0.000000 -105.072914
v 15.914526 0.000000 -105.290581
v 16.836840 0.000000 -105.649834
v 17.717785 0.000000 -106.145439
v 18.544519 0.000000 -106.770164
v 19.304981 0.000000 -107.514893
v 19.988087 0.000000 -108.368774
v 20.583872 0.000000 -109.319351
v 21.083647 0.000000 -110.352768
v 21.480129 0.000000 -111.453949
v 21.767534 0.000000 -112.606842
v 21.863686 0.000000 -114.000000
v 12.000000 10.000000 -123.000000
v 13.205364 10.000000 -122.927086
v 14.393154 10.000000 -122.709419
v 15.546047 10.000000 -122.350159
v 16.647230 10.000000 -121.854561
v 17.680645 10.000000 -121.229836
v 18.631224 10.000000 -120.485107
v 19.485106 10.000000 -119.631226
v 20.229836 10.000000 -118.680649
v 20.854557 10.000000 -117.647232
v 21.350161 10.000000 -116.546051
v 21.709414 10.000000 -115.393158
v 12.000002 0.000000 -123.000000
v 21.709415 0.000000 -115.393158
v 21.350163 0.000000 -116.546051
v 20.854559 0.000000 -117.647232
v 20.229837 0.000000 -118.680649
v 19.485107 0.000000 -119.631226
v 18.631226 0.000000 -120.485107
v 17.680647 0.000000 -121.229836
v 16.647232 0.000000 -121.854561
v 15.546049 0.000000 -122.350159
v 14.393156 0.000000 -122.709419
v 13.205366 0.000000 -122.927086
v 13.999998 10.000000 -118.000000
v 14.000000 0.000000 -118.000000
v -5.000000 10.000000 -118.000000
v -4.999998 0.000000 -118.000000
v -5.000000 10.000000 -128.000000
v -4.999999 0.000000 -128.000000
v -5.000000 10.000000 -113.000000
v -4.999998 0.000000 -113.000000
v -15.000000 10.000000 -113.000000
v -14.999998 0.000000 -113.000000
v -15.000000 10.000000 -128.000000
v -14.999998 0.000000 -128.000000
v -4.999999 -30.000000 -123.000000
v -4.999998 -30.000000 -118.000000
v -4.999999 -30.000000 -128.000000
v -4.999998 -30.000000 -113.000000
v -14.999998 -30.000004 -113.000000
v -14.999998 -30.000004 -128.000000
v -4.999998 -14.000000 -118.000000
v -4.999999 -14.000000 -123.000000
v -4.999998 -14.000000 -113.000000
v -4.999999 -14.000000 -128.000000
v -14.999998 -14.000000 -128.000000
v -14.999998 -14.000000 -113.000000
v -4.999998 -16.200001 -118.000000
v -4.999999 -16.200001 -128.000000
v -14.999998 -16.200001 -128.000000
v -4.999999 -16.200001 -123.000000
v -4.999998 -16.200001 -113.000000
v -14.999998 -16.200001 -113.000000
v -14.999998 -14.000000 -121.099998
v -14.999998 -16.200001 -121.099998
v -14.999998 -14.000000 -119.799995
v -14.999998 -16.200001 -119.799995
v -27.000002 -14.000002 -117.799995
v -27.000002 -14.000002 -123.099998
v -27.000000 -16.200003 -117.799995
v -27.000002 -16.200003 -123.099998
v -24.999998 -14.000002 -123.099998
v -24.999998 -16.200003 -123.099998
v -24.999998 -14.000002 -117.799995
v -24.999996 -16.200003 -117.799995
v -27.000000 -30.000000 -117.799995
v -27.000000 -30.000000 -123.099998
v -24.999996 -30.000000 -117.799995
v -24.999996 -30.000000 -123.099998
v -24.999998 -27.000000 -123.099998
v -24.999996 -27.000000 -117.799995
v -27.000000 -27.000000 -117.799995
v -27.000002 -27.000000 -123.099998
v -44.000004 -30.000004 -119.799995
v -44.000004 -30.000004 -121.099998
v -44.000004 -27.000004 -119.799995
v -44.000004 -27.000004 -121.099998
v -30.000000 -27.000000 -117.799995
v -30.000002 -27.000000 -123.099998
v -30.000000 -30.000000 -123.099998
v -30.000000 -30.000000 -117.799995
v -44.000000 -30.000004 -114.000000
v -44.000004 -27.000004 -114.000000
v -30.000000 -30.000000 -114.000000
v -30.000000 -27.000000 -114.000000
v -44.000004 -30.000004 -127.000000
v -44.000004 -27.000004 -127.000000
v -30.000002 -30.000000 -127.000000
v -30.000002 -27.000000 -127.000000
v -44.000004 -9.000000 -119.799995
v -44.000004 -9.000000 -121.099998
v -30.000000 -8.999997 -119.799995
v -30.000000 -8.999997 -121.099998
v -44.000000 -9.000000 -114.000000
v -30.000000 -8.999997 -114.000000
v -44.000004 -9.000000 -127.000000
v -30.000002 -8.999997 -127.000000
v -44.000004 -12.000000 -119.799995
v -44.000008 -12.000000 -121.099998
v -44.000004 -12.000000 -114.000000
v -44.000008 -12.000000 -127.000000
v -30.000000 -11.999998 -127.000000
v -30.000000 -11.999998 -119.799995
v -30.000000 -11.999998 -121.099998
v -30.000000 -11.999998 -114.000000
v -36.000000 -8.999998 -127.000000
v -35.999996 -11.999998 -127.000000
v -38.000004 -8.999999 -127.000000
v -38.000004 -11.999998 -127.000000
v -38.000000 -8.999999 -130.000000
v -35.999996 -8.999998 -130.000000
v -38.000004 -11.999998 -130.000000
v -36.000000 -11.999998 -130.000000
v -16.000002 -16.200001 -123.099998
v -16.000002 -14.000000 -123.099998
v -16.000000 -14.000000 -117.799995
v -16.000000 -16.200001 -117.799995
v -16.000000 -16.200001 -121.099998
v -16.000000 -14.000000 -121.099998
v -16.000000 -14.000000 -119.799995
v -16.000000 -16.200001 -119.799995
v -58.446449 28.499998 -130.000000
v -15.553587 28.500002 -130.000000
v -58.446438 -12.499998 -130.000000
v -15.553572 -12.499996 -130.000000
v -58.446465 28.499998 -330.000000
v -15.553602 28.500002 -330.000000
v -58.446453 -12.499998 -330.000000
v -15.553589 -12.499996 -330.000000
v -46.151150 -9.185488 -330.000000
v -43.074680 -9.185488 -330.000000
v -46.151154 -12.204042 -330.000000
v -43.074684 -12.204042 -330.000000
v -46.151150 -9.185488 -335.000000
v -43.074680 -9.185488 -335.000000
v -46.151154 -12.204042 -335.000000
v -43.074684 -12.204042 -335.000000
vn 0.0015 0.0029 -1.0000
vn -0.0014 0.0055 1.0000
vn -0.0040 0.0028 -1.0000
vn 0.4807 0.0018 0.8769
vn -0.0344 0.0029 -0.9994
vn -0.1096 0.0028 -0.9940
vn -0.1932 0.0028 -0.9812
vn -0.2855 0.0028 -0.9584
vn -0.3858 0.0028 -0.9226
vn -0.4919 0.0028 -0.8707
vn -0.5999 0.0028 -0.8000
vn -0.7046 0.0028 -0.7096
vn -0.7997 0.0027 -0.6003
vn -0.8795 0.0027 -0.4759
vn -0.9398 0.0027 -0.3417
vn -0.9791 0.0027 -0.2036
vn -0.9996 0.0027 0.0294
vn -0.7188 -0.0021 0.6952
vn 0.0463 0.0012 0.9989
vn 0.2233 0.0027 0.9748
vn 0.3629 0.0027 0.9318
vn 0.4903 0.0028 0.8716
vn 0.6029 0.0028 0.7978
vn 0.6997 0.0028 0.7145
vn 0.7809 0.0028 0.6247
vn 0.8473 0.0028 0.5311
vn 0.9002 0.0028 0.4354
vn 0.9409 0.0028 0.3388
vn 0.9702 0.0028 0.2424
vn 0.9976 0.0027 0.0689
vn 0.9939 0.0027 -0.1100
vn 0.9548 0.0027 -0.2973
vn 0.9119 0.0028 -0.4104
vn 0.8558 0.0028 -0.5173
vn 0.7872 0.0028 -0.6167
vn 0.7071 0.0028 -0.7071
vn 0.6167 0.0028 -0.7872
vn 0.5173 0.0028 -0.8558
vn 0.4104 0.0028 -0.9119
vn 0.2975 0.0028 -0.9547
vn 0.1803 0.0028 -0.9836
vn 0.0605 0.0028 -0.9982
vn -1.0000 0.0013 -0.0000
vn -0.0021 0.0013 1.0000
vn 1.0000 0.0064 0.0054
vn 1.0000 0.0064 -0.0054
vn -0.0000 0.0013 1.0000
vn -0.0000 0.0013 -1.0000
vn -0.0098 0.9999 0.0066
vn 1.0000 -0.0021 -0.0000
vn 1.0000 -0.0009 0.0058
vn 1.0000 -0.0009 -0.0058
vn -0.0000 -0.0009 -1.0000
vn -0.0000 -0.0009 1.0000
vn -1.0000 -0.0041 0.0029
vn -0.0019 -1.0000 0.0013
vn -1.0000 0.0014 -0.0000
vn -0.0000 -0.0000 1.0000
vn -0.0000 -0.0000 -1.0000
vn 1.0000 -0.0000 -0.0048
vn 1.0000 -0.0000 0.0048
vn 1.0000 0.0004 -0.0000
vn -1.0000 -0.0000 0.0029
vn 1.0000 -0.0000 -0.0058
vn 1.0000 -0.0000 0.0058
vn 1.0000 -0.0000 -0.0000
vn -1.0000 -0.0000 -0.0028
vn -0.0093 0.0085 -0.9999
vn -1.0000 0.0057 -0.0000
vn -0.0063 1.0000 -0.0000
vn -0.0093 0.0085 0.9999
vn 1.0000 -0.0042 -0.0000
vn -0.0000 1.0000 0.0001
vn -0.0031 -1.0000 -0.0000
vn 0.0036 -0.0000 1.0000
vn 0.0014 1.0000 -0.0000
vn 0.0036 -0.0000 -1.0000
vn 0.0063 -1.0000 -0.0000
vn 0.0093 -0.0063 0.9999
vn -1.0000 0.0043 -0.0049
vn 0.0093 -0.0063 -0.9999
vn -0.0094 0.0018 -1.0000
vn -1.0000 -0.0038 -0.0000
vn -0.0094 0.0018 1.0000
vn 1.0000 0.0038 -0.0000
vn -1.0000 -0.0095 -0.0000
vn -0.0014 -1.0000 -0.0000
vn -1.0000 0.0095 0.0022
vn -0.0000 -1.0000 -0.0083
vn -0.0209 -0.0066 0.9998
vn -0.0209 -0.0066 -0.9998
vn 0.0066 -1.0000 -0.0000
vn -0.0000 1.0000 -0.0000
vn -0.0000 -0.0042 1.0000
vn -0.0000 -1.0000 0.0085
vn 1.0000 -0.0043 0.0051
vn -1.0000 -0.0095 0.0022
vn -0.0000 -0.0042 -1.0000
vn -1.0000 -0.0095 -0.0022
vn 1.0000 -0.0043 -0.0050
vn -1.0000 0.0095 -0.0000
vn -0.0000 1.0000 0.0022
vn -0.0000 1.0000 0.0033
vn 0.0045 0.0193 -0.9998
vn 1.0000 0.0095 -0.0000
vn 1.0000 0.0095 -0.0022
vn 1.0000 0.0043 0.0050
vn -0.0000 0.0042 1.0000
vn 1.0000 -0.0000 0.0051
vn 1.0000 -0.0000 -0.0049
vn 1.0000 -0.0006 -0.0000
vn -0.0000 -0.0013 -1.0000
vn -1.0000 -0.0000 -0.0000
vn -1.0000 -0.0000 0.0050
vn -1.0000 -0.0000 -0.0049
vn 0.0032 0.0043 -1.0000
vn -0.0000 0.9998 -0.0209
vn -0.0000 -1.0000 -0.0000
vn 0.9999 -0.0000 -0.0161
vn 0.6445 0.7646 -0.0000
vn 0.9999 -0.0000 0.0161
vn 0.6445 -0.7646 -0.0000
vn -0.0016 -0.0000 1.0000
vn -0.0000 -0.0619 0.9981
vn 0.0016 -0.0000 1.0000
vn -0.0000 0.0009 1.0000
vn 0.0012 -0.0000 -1.0000
vn -1.0000 -0.0000 0.0083
vn -0.0000 0.0009 -1.0000
vn -0.0027 -0.0000 -1.0000
vn -0.0000 -0.1006 -0.9949
vn -0.0000 -1.0000 0.0083
vn 1.0000 -0.0000 0.0083
vn -0.0000 1.0000 0.0083
vn 0.0347 -0.0000 0.9994
vn 0.1097 -0.0000 0.9940
vn 0.1932 -0.0000 0.9811
vn 0.2856 -0.0000 0.9584
vn 0.3859 -0.0000 0.9226
vn 0.4919 -0.0000 0.8706
vn 0.6000 -0.0000 0.8000
vn 0.7047 -0.0000 0.7095
vn 0.7998 -0.0000 0.6003
vn 0.8795 -0.0000 0.4759
vn 0.9398 -0.0000 0.3417
vn 0.9791 -0.0000 0.2036
vn 0.9978 -0.0000 0.0667
vn -0.0754 -0.0000 -0.9972
vn -0.2233 -0.0000 -0.9748
vn -0.3630 -0.0000 -0.9318
vn -0.4903 -0.0000 -0.8715
vn -0.6029 -0.0000 -0.7978
vn -0.6997 -0.0000 -0.7145
vn -0.7809 -0.0000 -0.6247
vn -0.8473 -0.0000 -0.5311
vn -0.9002 -0.0000 -0.4354
vn -0.9409 -0.0000 -0.3388
vn -0.9703 -0.0000 -0.2419
vn -0.9976 -0.0000 -0.0689
vn -0.9939 -0.0000 0.1101
vn -0.9547 -0.0000 0.2975
vn -0.9119 -0.0000 0.4104
vn -0.8558 -0.0000 0.5173
vn -0.7872 -0.0000 0.6167
vn -0.7071 -0.0000 0.7071
vn -0.6167 -0.0000 0.7872
vn -0.5173 -0.0000 0.8558
vn -0.4104 -0.0000 0.9119
vn -0.2975 -0.0000 0.9547
vn -0.1803 -0.0000 0.9836
vn -0.0604 -0.0000 0.9982
vn 0.0160 -0.4496 0.8931
vn -0.0003 -0.0000 -1.0000
vn 0.0033 0.0013 -1.0000
vn 0.0032 0.0013 1.0000
vn -0.0024 0.0001 -1.0000
vn 0.7203 0.0017 0.6936
vn -0.0348 0.0028 -0.9994
vn -0.1097 0.0028 -0.9940
vn -0.1933 0.0028 -0.9811
vn -0.2856 0.0028 -0.9583
vn -0.3859 0.0028 -0.9225
vn -0.4920 0.0028 -0.8706
vn -0.6000 0.0028 -0.8000
vn -0.7047 0.0027 -0.7095
vn -0.7998 0.0027 -0.6003
vn -0.9791 0.0028 -0.2035
vn -1.0000 -0.0003 -0.0010
vn -0.0978 -0.0092 0.9952
vn 0.0628 0.0027 0.9980
vn 0.2233 0.0027 0.9747
vn 0.3630 0.0028 0.9318
vn 0.4904 0.0028 0.8715
vn 0.6997 0.0028 0.7144
vn 0.8473 0.0028 0.5310
vn 0.9003 0.0028 0.4353
vn 0.9409 0.0028 0.3387
vn 0.9704 0.0027 0.2417
vn 0.9976 0.0027 0.0688
vn 0.9939 0.0027 -0.1101
vn 0.9546 0.0028 -0.2979
vn 0.0599 0.0028 -0.9982
vn -0.0015 0.0001 1.0000
vn 1.0000 0.0013 -0.0048
vn 1.0000 0.0013 0.0048
vn -0.0000 1.0000 -0.0065
vn -0.0032 1.0000 -0.0000
vn 1.0000 -0.0021 0.0026
vn 1.0000 -0.0021 -0.0026
vn -1.0000 -0.0009 -0.0028
vn -1.0000 -0.0009 -0.0000
vn -1.0000 -0.0024 -0.0000
vn -0.0000 -1.0000 -0.0026
vn -0.7070 -0.7072 -0.0000
vn -1.0000 0.0031 -0.0029
vn 1.0000 0.0004 -0.0058
vn 1.0000 0.0004 0.0058
vn -0.0063 0.0058 -1.0000
vn -0.0063 0.0058 1.0000
vn 0.0035 0.7475 -0.6642
vn -0.0191 0.9963 -0.0833
vn -0.0001 1.0000 -0.0000
vn 0.0036 1.0000 0.0002
vn 0.0037 1.0000 -0.0005
vn 0.0008 1.0000 -0.0044
vn 0.0012 1.0000 -0.0000
vn 0.0017 1.0000 0.0017
vn 0.0004 1.0000 -0.0011
vn -0.0008 1.0000 0.0004
vn -0.0014 1.0000 -0.0005
vn -0.0099 0.9997 -0.0207
vn 0.0159 0.2596 0.9656
vn 0.0036 0.9997 0.0230
vn -0.0004 1.0000 -0.0003
vn -0.0002 1.0000 0.0002
vn -0.0005 1.0000 0.0026
vn 0.0013 0.9988 0.0494
vn -0.0043 1.0000 -0.0000
vn 0.0001 1.0000 -0.0000
vn 0.0009 1.0000 -0.0073
vn -0.1337 0.9906 -0.0279
vn -0.0002 1.0000 -0.0001
vn -0.0001 1.0000 0.0001
vn -0.0001 1.0000 0.0002
vn -0.0034 1.0000 0.0002
vn 0.0012 1.0000 0.0086
vn 0.0005 0.9999 -0.0142
vn 0.0009 1.0000 -0.0022
vn 0.0014 0.0086 1.0000
vn 0.0014 0.0086 -1.0000
vn 0.0063 -0.0043 1.0000
vn -1.0000 0.0095 -0.0022
vn 0.0063 -0.0043 -1.0000
vn 0.0094 -0.0018 -1.0000
vn 0.0094 -0.0018 1.0000
vn -1.0000 0.0043 0.0050
vn -0.0017 -1.0000 -0.0022
vn -0.0137 0.0003 0.9999
vn -0.0137 0.0003 -0.9999
vn -0.0017 -1.0000 0.0022
vn 0.9998 -0.0193 -0.0070
vn -1.0000 -0.0043 0.0050
vn -1.0000 -0.0043 -0.0049
vn 0.9998 -0.0193 0.0069
vn -0.0000 1.0000 -0.0022
vn 0.0054 1.0000 -0.0022
vn -0.0055 0.9999 0.0108
vn -0.0032 0.0043 -1.0000
vn 1.0000 0.0043 -0.0049
vn 1.0000 0.0095 0.0022
vn 1.0000 -0.0000 0.0050
vn 1.0000 -0.0000 -0.0050
vn -0.0033 -0.0000 -1.0000
vn 0.0033 -0.0031 -1.0000
vn -0.0045 0.0193 -0.9998
vn 0.6446 0.7646 -0.0000
vn 0.6446 -0.7645 -0.0000
vn 0.0213 -0.0213 0.9995
vt 0.000000 1.000000
vt 1.000000 1.000000
vt 0.000000 0.000000
vt 0.000000 0.663123
vt 1.000000 0.663123
vt 0.000000 0.568065
vt 1.000000 0.568065
vt 0.000000 0.464723
vt 1.000000 0.354605
vt 1.000000 0.464723
vt 1.000000 0.239316
vt 0.000000 0.354605
vt 1.000000 0.120537
vt 0.000000 0.239316
vt 1.000000 0.000000
vt 0.000000 0.120537
s 0
f 3/1/1 25/2/1 12/1/1
f 6/3/2 7/3/2 5/3/2
f 10/3/3 65/3/3 77/3/3
f 8/3/4 39/3/4 7/3/4
f 25/2/5 24/1/5 12/1/5
f 27/2/6 23/1/6 24/1/6
f 28/2/7 22/1/7 23/1/7
f 29/2/8 21/1/8 22/1/8
f 30/2/9 20/1/9 21/1/9
f 31/2/10 19/1/10 20/1/10
f 32/2/11 18/4/11 19/1/11
f 33/5/12 17/6/12 18/4/12
f 34/7/13 16/8/13 17/6/13
f 36/9/14 16/8/14 35/10/14
f 37/11/15 15/12/15 36/9/15
f 38/13/16 14/14/16 37/11/16
f 26/15/17 13/16/17 38/13/17
f 1/3/18 26/15/18 2/15/18
f 53/3/19 39/3/19 52/3/19
f 54/3/20 51/3/20 53/3/20
f 55/3/21 50/3/21 54/3/21
f 56/3/22 49/3/22 55/3/22
f 57/3/23 48/3/23 56/3/23
f 58/3/24 47/3/24 57/3/24
f 59/3/25 46/3/25 58/3/25
f 60/3/26 45/3/26 59/3/26
f 61/3/27 44/3/27 60/3/27
f 62/3/28 43/3/28 61/3/28
f 62/3/29 41/3/29 42/3/29
f 63/3/30 40/3/30 41/3/30
f 64/3/31 76/3/31 40/3/31
f 79/3/32 76/3/32 78/3/32
f 80/3/33 75/3/33 79/3/33
f 80/3/34 73/3/34 74/3/34
f 82/3/35 73/3/35 81/3/35
f 82/3/36 71/3/36 72/3/36
f 84/3/37 71/3/37 83/3/37
f 85/3/38 70/3/38 84/3/38
f 86/3/39 69/3/39 85/3/39
f 87/3/40 68/3/40 86/3/40
f 88/3/41 67/3/41 87/3/41
f 77/3/42 66/3/42 88/3/42
f 3/1/43 90/2/43 4/2/43
f 89/1/44 92/2/44 90/2/44
f 10/3/45 93/3/45 9/3/45
f 95/1/46 92/2/46 91/1/46
f 95/1/47 98/3/47 96/2/47
f 100/3/48 93/3/48 94/3/48
f 99/3/43 98/3/43 97/3/43
f 99/3/49 95/1/49 91/1/49
f 113/3/50 101/3/50 116/3/50
f 104/2/51 113/2/51 117/2/51
f 116/3/52 103/3/52 114/3/52
f 103/3/53 115/3/53 114/3/53
f 105/3/54 117/2/54 118/3/54
f 106/3/55 118/3/55 122/3/55
f 101/3/56 104/2/56 106/3/56
f 119/3/57 121/3/57 98/3/57
f 98/3/58 109/2/58 96/2/58
f 110/3/59 100/3/59 94/3/59
f 10/3/60 110/3/60 94/3/60
f 109/2/61 92/2/61 96/2/61
f 92/3/62 108/3/62 10/3/62
f 122/3/63 112/3/63 121/3/63
f 118/3/58 109/2/58 112/3/58
f 114/3/59 111/3/59 110/3/59
f 116/3/64 110/3/64 108/3/64
f 109/2/65 113/2/65 107/2/65
f 107/3/66 116/3/66 108/3/66
f 115/3/67 119/3/67 111/3/67
f 126/3/68 127/3/68 128/3/68
f 126/3/69 123/3/69 124/3/69
f 124/3/70 129/3/70 127/3/70
f 129/3/71 125/3/71 130/3/71
f 133/3/72 135/3/72 136/3/72
f 48/3/73 22/1/73 14/14/73
f 130/3/74 179/3/74 182/3/74
f 181/3/75 130/3/75 182/3/75
f 127/3/76 181/3/76 180/3/76
f 128/3/77 180/3/77 179/3/77
f 131/3/78 134/3/78 133/3/78
f 131/3/79 136/3/79 137/3/79
f 164/3/80 161/3/80 166/3/80
f 135/3/81 132/3/81 138/3/81
f 128/3/82 138/3/82 126/3/82
f 138/3/83 125/3/83 126/3/83
f 137/3/84 130/3/84 125/3/84
f 136/3/85 128/3/85 130/3/85
f 140/3/86 141/3/86 142/3/86
f 139/3/87 145/3/87 146/3/87
f 163/3/88 159/3/88 155/3/88
f 145/3/89 151/3/89 153/3/89
f 143/3/90 131/3/90 137/3/90
f 132/3/91 144/3/91 138/3/91
f 146/3/92 132/3/92 131/3/92
f 144/3/93 137/3/93 138/3/93
f 150/3/94 147/3/94 149/3/94
f 147/3/95 146/3/95 149/3/95
f 149/3/96 143/3/96 150/3/96
f 147/3/97 141/3/97 139/3/97
f 151/3/98 154/3/98 153/3/98
f 142/3/99 151/3/99 140/3/99
f 144/3/100 153/3/100 154/3/100
f 155/3/101 164/3/101 163/3/101
f 156/3/93 157/3/93 158/3/93
f 160/3/102 155/3/102 159/3/102
f 158/3/103 171/3/103 173/3/103
f 174/3/104 161/3/104 173/3/104
f 158/3/105 168/3/105 169/3/105
f 169/3/106 162/3/106 158/3/106
f 168/3/107 160/3/107 170/3/107
f 170/3/108 159/3/108 165/3/108
f 150/3/58 165/3/58 148/3/58
f 143/3/109 170/3/109 150/3/109
f 144/3/110 167/3/110 169/3/110
f 169/3/111 143/3/111 144/3/111
f 152/3/112 174/3/112 172/3/112
f 163/3/113 142/3/113 141/3/113
f 148/3/114 163/3/114 141/3/114
f 142/3/115 166/3/115 152/3/115
f 172/3/116 162/3/116 167/3/116
f 171/3/117 175/3/117 173/3/117
f 174/3/113 175/3/113 177/3/113
f 174/3/118 178/3/118 172/3/118
f 172/3/66 176/3/66 171/3/66
f 179/3/119 184/3/119 183/3/119
f 180/3/120 185/3/120 184/3/120
f 181/3/121 186/3/121 185/3/121
f 186/3/122 179/3/122 183/3/122
f 186/3/118 120/3/118 122/3/118
f 185/3/58 122/3/58 121/3/58
f 184/3/93 121/3/93 119/3/93
f 183/3/59 119/3/59 120/3/59
f 175/3/123 189/3/123 177/3/123
f 190/3/66 192/3/66 188/3/66
f 177/3/124 190/3/124 178/3/124
f 176/3/125 190/3/125 188/3/125
f 176/3/126 187/3/126 175/3/126
f 194/3/127 196/3/127 192/3/127
f 188/3/93 191/3/93 187/3/93
f 187/3/113 193/3/113 189/3/113
f 189/3/118 194/3/118 190/3/118
f 197/3/128 199/3/128 201/3/128
f 191/3/129 196/3/129 195/3/129
f 193/3/130 195/3/130 197/3/130
f 193/3/131 198/3/131 194/3/131
f 197/3/132 202/3/132 198/3/132
f 196/3/133 202/3/133 200/3/133
f 196/3/134 199/3/134 195/3/134
f 227/2/58 205/1/58 214/1/58
f 208/3/59 209/3/59 210/3/59
f 267/3/58 212/3/58 279/3/58
f 210/3/66 241/3/66 254/3/66
f 214/1/135 229/2/135 227/2/135
f 226/1/136 230/2/136 229/2/136
f 225/1/137 231/2/137 230/2/137
f 224/1/138 232/2/138 231/2/138
f 223/1/139 233/2/139 232/2/139
f 222/1/140 234/2/140 233/2/140
f 221/1/141 235/5/141 234/2/141
f 220/4/142 236/7/142 235/5/142
f 219/6/143 237/10/143 236/7/143
f 218/8/144 238/9/144 237/10/144
f 217/12/145 239/11/145 238/9/145
f 216/14/146 240/13/146 239/11/146
f 215/16/147 228/15/147 240/13/147
f 203/3/66 228/15/66 213/3/66
f 241/3/148 255/3/148 254/3/148
f 253/3/149 256/3/149 255/3/149
f 252/3/150 257/3/150 256/3/150
f 251/3/151 258/3/151 257/3/151
f 258/3/152 249/3/152 259/3/152
f 249/3/153 260/3/153 259/3/153
f 248/3/154 261/3/154 260/3/154
f 247/3/155 262/3/155 261/3/155
f 262/3/156 245/3/156 263/3/156
f 245/3/157 264/3/157 263/3/157
f 244/3/158 265/3/158 264/3/158
f 243/3/159 266/3/159 265/3/159
f 242/3/160 280/3/160 266/3/160
f 278/3/161 281/3/161 280/3/161
f 277/3/162 282/3/162 281/3/162
f 276/3/163 283/3/163 282/3/163
f 275/3/164 284/3/164 283/3/164
f 274/3/165 285/3/165 284/3/165
f 273/3/166 286/3/166 285/3/166
f 272/3/167 287/3/167 286/3/167
f 271/3/168 288/3/168 287/3/168
f 270/3/169 289/3/169 288/3/169
f 269/3/170 290/3/170 289/3/170
f 268/3/171 279/3/171 290/3/171
f 206/2/66 291/1/66 205/1/66
f 291/1/59 294/2/59 293/1/59
f 211/3/113 296/3/113 212/3/113
f 294/2/113 297/1/113 293/1/113
f 298/2/59 299/3/59 297/1/59
f 295/3/58 302/3/58 296/3/58
f 300/3/66 301/3/66 299/3/66
f 211/3/118 297/1/118 301/3/118
f 303/3/113 315/3/113 318/3/113
f 315/2/113 306/2/113 319/2/113
f 316/3/113 303/3/113 318/3/113
f 317/3/58 305/3/58 316/3/58
f 320/3/59 306/2/59 307/3/59
f 324/3/66 307/3/66 308/3/66
f 308/3/93 306/2/93 303/3/93
f 300/3/66 323/3/66 321/3/66
f 298/2/59 314/3/59 300/3/59
f 302/3/58 312/3/58 296/3/58
f 296/3/113 310/3/113 212/3/113
f 294/2/113 311/2/113 298/2/113
f 310/3/113 294/3/113 212/3/113
f 314/3/66 324/3/66 323/3/66
f 311/2/59 320/3/59 314/3/59
f 313/3/58 316/3/58 312/3/58
f 312/3/113 318/3/113 310/3/113
f 309/2/113 319/2/113 311/2/113
f 318/3/113 309/3/113 310/3/113
f 321/3/66 317/3/66 313/3/66
f 329/3/58 328/3/58 330/3/58
f 325/3/66 328/3/66 326/3/66
f 331/3/118 326/3/118 329/3/118
f 332/3/59 325/3/59 331/3/59
f 337/3/113 335/3/113 338/3/113
f 207/3/118 253/3/118 241/3/118
f 381/3/93 332/3/93 384/3/93
f 384/3/59 331/3/59 383/3/59
f 382/3/118 331/3/118 329/3/118
f 382/3/58 330/3/58 381/3/58
f 336/3/93 333/3/93 335/3/93
f 338/3/59 333/3/59 339/3/59
f 363/3/66 366/3/66 368/3/66
f 340/3/58 336/3/58 337/3/58
f 328/3/58 337/3/58 330/3/58
f 327/3/66 340/3/66 328/3/66
f 327/3/59 338/3/59 339/3/59
f 330/3/113 338/3/113 332/3/113
f 343/3/66 342/3/66 344/3/66
f 347/3/93 341/3/93 348/3/93
f 357/3/66 367/3/66 365/3/66
f 347/3/93 353/3/93 342/3/93
f 333/3/59 345/3/59 339/3/59
f 340/3/58 347/3/58 334/3/58
f 334/3/93 348/3/93 333/3/93
f 339/3/118 346/3/118 340/3/118
f 349/3/59 352/3/59 351/3/59
f 348/3/93 349/3/93 351/3/93
f 345/3/113 351/3/113 352/3/113
f 341/3/66 350/3/66 349/3/66
f 356/3/58 353/3/58 355/3/58
f 353/3/66 344/3/66 342/3/66
f 356/3/113 347/3/113 346/3/113
f 366/3/66 357/3/66 365/3/66
f 359/3/118 358/3/118 360/3/118
f 357/3/118 362/3/118 361/3/118
f 375/3/118 373/3/118 360/3/118
f 376/3/58 363/3/58 368/3/58
f 370/3/113 360/3/113 371/3/113
f 360/3/113 369/3/113 371/3/113
f 362/3/113 370/3/113 372/3/113
f 361/3/59 372/3/59 367/3/59
f 367/3/59 352/3/59 350/3/59
f 372/3/113 345/3/113 352/3/113
f 346/3/113 369/3/113 356/3/113
f 345/3/113 371/3/113 346/3/113
f 374/3/58 376/3/58 354/3/58
f 344/3/66 365/3/66 343/3/66
f 365/3/66 350/3/66 343/3/66
f 368/3/66 344/3/66 354/3/66
f 364/3/58 374/3/58 369/3/58
f 377/3/118 373/3/118 375/3/118
f 379/3/66 375/3/66 376/3/66
f 380/3/93 376/3/93 374/3/93
f 378/3/113 374/3/113 373/3/113
f 386/3/113 381/3/113 385/3/113
f 387/3/66 382/3/66 386/3/66
f 388/3/113 383/3/113 387/3/113
f 388/3/66 381/3/66 384/3/66
f 322/3/93 388/3/93 324/3/93
f 324/3/59 387/3/59 323/3/59
f 323/3/118 386/3/118 321/3/118
f 321/3/58 385/3/58 322/3/58
f 391/3/59 377/3/59 379/3/59
f 394/3/113 392/3/113 390/3/113
f 392/3/59 379/3/59 380/3/59
f 378/3/59 392/3/59 380/3/59
f 389/3/59 378/3/59 377/3/59
f 398/3/58 396/3/58 394/3/58
f 393/3/118 390/3/118 389/3/118
f 395/3/66 389/3/66 391/3/66
f 396/3/93 391/3/93 392/3/93
f 403/3/66 397/3/66 399/3/66
f 393/3/58 398/3/58 394/3/58
f 395/3/58 397/3/58 393/3/58
f 400/3/58 395/3/58 396/3/58
f 404/3/93 399/3/93 400/3/93
f 402/3/113 400/3/113 398/3/113
f 401/3/118 398/3/118 397/3/118
f 2/15/59 203/3/59 1/3/59
f 6/3/113 207/3/113 208/3/113
f 6/3/118 210/3/118 8/3/118
f 25/2/118 229/2/118 27/2/118
f 27/2/118 230/2/118 28/2/118
f 28/2/118 231/2/118 29/2/118
f 29/2/118 232/2/118 30/2/118
f 30/2/118 233/2/118 31/2/118
f 31/2/118 234/2/118 32/2/118
f 32/2/118 235/5/118 33/5/118
f 33/5/118 236/7/118 34/7/118
f 34/7/118 237/10/118 35/10/118
f 36/9/118 237/10/118 238/9/118
f 37/11/118 238/9/118 239/11/118
f 38/13/118 239/11/118 240/13/118
f 26/15/118 240/13/118 228/15/118
f 2/15/66 228/15/66 204/15/66
f 4/2/118 227/2/118 25/2/118
f 52/3/118 255/3/118 53/3/118
f 54/3/118 255/3/118 256/3/118
f 55/3/118 256/3/118 257/3/118
f 56/3/118 257/3/118 258/3/118
f 57/3/118 258/3/118 259/3/118
f 58/3/118 259/3/118 260/3/118
f 59/3/118 260/3/118 261/3/118
f 60/3/118 261/3/118 262/3/118
f 61/3/118 262/3/118 263/3/118
f 62/3/118 263/3/118 264/3/118
f 62/3/118 265/3/118 63/3/118
f 63/3/118 266/3/118 64/3/118
f 64/3/118 280/3/118 78/3/118
f 79/3/118 280/3/118 281/3/118
f 79/3/118 282/3/118 80/3/118
f 80/3/118 283/3/118 81/3/118
f 82/3/118 283/3/118 284/3/118
f 83/3/118 284/3/118 285/3/118
f 84/3/118 285/3/118 286/3/118
f 85/3/118 286/3/118 287/3/118
f 86/3/118 287/3/118 288/3/118
f 87/3/118 288/3/118 289/3/118
f 88/3/118 289/3/118 290/3/118
f 77/3/118 290/3/118 279/3/118
f 52/3/66 210/3/66 254/3/66
f 10/3/118 279/3/118 212/3/118
f 90/2/118 206/2/118 4/2/118
f 92/2/118 292/2/118 90/2/118
f 10/3/93 294/3/93 92/3/93
f 1/3/172 207/3/172 5/3/172
f 199/3/59 402/3/59 401/3/59
f 201/3/59 404/3/59 202/3/59
f 200/3/59 404/3/59 402/3/59
f 199/3/173 403/3/173 201/3/173
f 3/1/174 4/2/174 25/2/174
f 6/3/175 8/3/175 7/3/175
f 10/3/176 9/3/176 65/3/176
f 8/3/177 52/3/177 39/3/177
f 25/2/178 27/2/178 24/1/178
f 27/2/179 28/2/179 23/1/179
f 28/2/180 29/2/180 22/1/180
f 29/2/181 30/2/181 21/1/181
f 30/2/182 31/2/182 20/1/182
f 31/2/183 32/2/183 19/1/183
f 32/2/184 33/5/184 18/4/184
f 33/5/185 34/7/185 17/6/185
f 34/7/186 35/10/186 16/8/186
f 36/9/14 15/12/14 16/8/14
f 37/11/15 14/14/15 15/12/15
f 38/13/187 13/16/187 14/14/187
f 26/15/188 11/3/188 13/16/188
f 1/3/189 11/3/189 26/15/189
f 53/3/190 51/3/190 39/3/190
f 54/3/191 50/3/191 51/3/191
f 55/3/192 49/3/192 50/3/192
f 56/3/193 48/3/193 49/3/193
f 57/3/23 47/3/23 48/3/23
f 58/3/194 46/3/194 47/3/194
f 59/3/25 45/3/25 46/3/25
f 60/3/195 44/3/195 45/3/195
f 61/3/196 43/3/196 44/3/196
f 62/3/197 42/3/197 43/3/197
f 62/3/198 63/3/198 41/3/198
f 63/3/199 64/3/199 40/3/199
f 64/3/200 78/3/200 76/3/200
f 79/3/201 75/3/201 76/3/201
f 80/3/33 74/3/33 75/3/33
f 80/3/34 81/3/34 73/3/34
f 82/3/35 72/3/35 73/3/35
f 82/3/36 83/3/36 71/3/36
f 84/3/37 70/3/37 71/3/37
f 85/3/38 69/3/38 70/3/38
f 86/3/39 68/3/39 69/3/39
f 87/3/40 67/3/40 68/3/40
f 88/3/41 66/3/41 67/3/41
f 77/3/202 65/3/202 66/3/202
f 3/1/43 89/1/43 90/2/43
f 89/1/203 91/1/203 92/2/203
f 10/3/204 94/3/204 93/3/204
f 95/1/205 96/2/205 92/2/205
f 95/1/47 97/3/47 98/3/47
f 100/3/48 99/3/48 93/3/48
f 99/3/43 100/3/43 98/3/43
f 9/3/206 93/3/206 99/3/206
f 99/3/93 97/3/93 95/1/93
f 91/1/207 9/3/207 99/3/207
f 113/3/50 102/3/50 101/3/50
f 104/2/208 102/2/208 113/2/208
f 116/3/209 101/3/209 103/3/209
f 103/3/53 106/3/53 115/3/53
f 105/3/54 104/2/54 117/2/54
f 120/3/210 115/3/210 106/3/210
f 106/3/211 105/3/211 118/3/211
f 122/3/212 120/3/212 106/3/212
f 106/3/213 103/3/213 101/3/213
f 101/3/214 102/2/214 104/2/214
f 104/2/118 105/3/118 106/3/118
f 98/3/113 100/3/113 111/3/113
f 98/3/215 111/3/215 119/3/215
f 121/3/63 112/3/63 98/3/63
f 98/3/58 112/3/58 109/2/58
f 110/3/59 111/3/59 100/3/59
f 10/3/216 108/3/216 110/3/216
f 109/2/217 107/2/217 92/2/217
f 92/3/62 107/3/62 108/3/62
f 122/3/63 118/3/63 112/3/63
f 118/3/58 117/2/58 109/2/58
f 114/3/59 115/3/59 111/3/59
f 116/3/64 114/3/64 110/3/64
f 109/2/65 117/2/65 113/2/65
f 107/3/66 113/3/66 116/3/66
f 115/3/67 120/3/67 119/3/67
f 126/3/218 124/3/218 127/3/218
f 126/3/69 125/3/69 123/3/69
f 124/3/70 123/3/70 129/3/70
f 129/3/219 123/3/219 125/3/219
f 133/3/72 134/3/72 135/3/72
f 5/3/220 7/3/220 39/3/220
f 39/3/221 51/3/221 50/3/221
f 50/3/73 49/3/73 48/3/73
f 48/3/222 47/3/222 46/3/222
f 46/3/222 45/3/222 44/3/222
f 44/3/222 43/3/222 42/3/222
f 42/3/223 41/3/223 40/3/223
f 40/3/224 76/3/224 75/3/224
f 75/3/93 74/3/93 73/3/93
f 73/3/93 72/3/93 71/3/93
f 71/3/93 70/3/93 69/3/93
f 69/3/93 68/3/93 67/3/93
f 67/3/225 66/3/225 65/3/225
f 65/3/226 9/3/226 91/1/226
f 65/3/227 91/1/227 89/1/227
f 69/3/228 67/3/228 65/3/228
f 73/3/93 71/3/93 69/3/93
f 40/3/229 75/3/229 73/3/229
f 44/3/230 42/3/230 40/3/230
f 48/3/222 46/3/222 44/3/222
f 39/3/231 50/3/231 48/3/231
f 11/3/232 1/3/232 5/3/232
f 5/3/233 39/3/233 48/3/233
f 48/3/234 44/3/234 40/3/234
f 40/3/235 73/3/235 69/3/235
f 69/3/236 65/3/236 89/1/236
f 3/1/237 12/1/237 24/1/237
f 69/3/238 89/1/238 3/1/238
f 48/3/239 40/3/239 69/3/239
f 11/3/240 5/3/240 48/3/240
f 14/14/241 13/16/241 11/3/241
f 16/8/242 15/12/242 14/14/242
f 18/4/242 17/6/242 16/8/242
f 20/1/222 19/1/222 18/4/222
f 22/1/243 21/1/243 20/1/243
f 24/1/244 23/1/244 22/1/244
f 48/3/245 69/3/245 3/1/245
f 3/1/246 24/1/246 22/1/246
f 22/1/222 20/1/222 18/4/222
f 18/4/242 16/8/242 14/14/242
f 14/14/247 11/3/247 48/3/247
f 48/3/248 3/1/248 22/1/248
f 22/1/242 18/4/242 14/14/242
f 130/3/74 128/3/74 179/3/74
f 181/3/249 129/3/249 130/3/249
f 127/3/76 129/3/76 181/3/76
f 128/3/250 127/3/250 180/3/250
f 131/3/78 132/3/78 134/3/78
f 131/3/251 133/3/251 136/3/251
f 164/3/252 156/3/252 161/3/252
f 135/3/253 134/3/253 132/3/253
f 128/3/254 135/3/254 138/3/254
f 138/3/83 137/3/83 125/3/83
f 137/3/255 136/3/255 130/3/255
f 136/3/85 135/3/85 128/3/85
f 140/3/86 139/3/86 141/3/86
f 139/3/87 140/3/87 145/3/87
f 163/3/256 165/3/256 159/3/256
f 145/3/257 140/3/257 151/3/257
f 143/3/258 146/3/258 131/3/258
f 132/3/259 145/3/259 144/3/259
f 146/3/92 145/3/92 132/3/92
f 144/3/93 143/3/93 137/3/93
f 150/3/94 148/3/94 147/3/94
f 147/3/260 139/3/260 146/3/260
f 149/3/261 146/3/261 143/3/261
f 147/3/262 148/3/262 141/3/262
f 151/3/98 152/3/98 154/3/98
f 142/3/263 152/3/263 151/3/263
f 144/3/264 145/3/264 153/3/264
f 155/3/101 156/3/101 164/3/101
f 156/3/93 155/3/93 157/3/93
f 160/3/102 157/3/102 155/3/102
f 161/3/265 156/3/265 158/3/265
f 158/3/266 162/3/266 171/3/266
f 173/3/267 161/3/267 158/3/267
f 174/3/268 166/3/268 161/3/268
f 158/3/105 157/3/105 168/3/105
f 169/3/269 167/3/269 162/3/269
f 168/3/270 157/3/270 160/3/270
f 170/3/108 160/3/108 159/3/108
f 150/3/58 170/3/58 165/3/58
f 143/3/271 168/3/271 170/3/271
f 144/3/272 154/3/272 167/3/272
f 169/3/111 168/3/111 143/3/111
f 167/3/59 154/3/59 152/3/59
f 152/3/273 166/3/273 174/3/273
f 172/3/274 167/3/274 152/3/274
f 163/3/113 164/3/113 142/3/113
f 148/3/114 165/3/114 163/3/114
f 142/3/115 164/3/115 166/3/115
f 172/3/275 171/3/275 162/3/275
f 171/3/117 176/3/117 175/3/117
f 174/3/113 173/3/113 175/3/113
f 174/3/118 177/3/118 178/3/118
f 172/3/66 178/3/66 176/3/66
f 179/3/119 180/3/119 184/3/119
f 180/3/276 181/3/276 185/3/276
f 181/3/121 182/3/121 186/3/121
f 186/3/277 182/3/277 179/3/277
f 186/3/118 183/3/118 120/3/118
f 185/3/58 186/3/58 122/3/58
f 184/3/93 185/3/93 121/3/93
f 183/3/59 184/3/59 119/3/59
f 175/3/123 187/3/123 189/3/123
f 190/3/66 194/3/66 192/3/66
f 177/3/124 189/3/124 190/3/124
f 176/3/125 178/3/125 190/3/125
f 176/3/126 188/3/126 187/3/126
f 194/3/127 198/3/127 196/3/127
f 188/3/93 192/3/93 191/3/93
f 187/3/113 191/3/113 193/3/113
f 189/3/118 193/3/118 194/3/118
f 197/3/128 195/3/128 199/3/128
f 191/3/129 192/3/129 196/3/129
f 193/3/130 191/3/130 195/3/130
f 193/3/131 197/3/131 198/3/131
f 197/3/132 201/3/132 202/3/132
f 196/3/133 198/3/133 202/3/133
f 196/3/134 200/3/134 199/3/134
f 227/2/58 206/2/58 205/1/58
f 208/3/59 207/3/59 209/3/59
f 267/3/58 211/3/58 212/3/58
f 210/3/66 209/3/66 241/3/66
f 214/1/135 226/1/135 229/2/135
f 226/1/136 225/1/136 230/2/136
f 225/1/137 224/1/137 231/2/137
f 224/1/138 223/1/138 232/2/138
f 223/1/139 222/1/139 233/2/139
f 222/1/140 221/1/140 234/2/140
f 221/1/141 220/4/141 235/5/141
f 220/4/142 219/6/142 236/7/142
f 219/6/143 218/8/143 237/10/143
f 218/8/144 217/12/144 238/9/144
f 217/12/145 216/14/145 239/11/145
f 216/14/146 215/16/146 240/13/146
f 215/16/147 213/3/147 228/15/147
f 203/3/66 204/15/66 228/15/66
f 241/3/148 253/3/148 255/3/148
f 253/3/149 252/3/149 256/3/149
f 252/3/150 251/3/150 257/3/150
f 251/3/151 250/3/151 258/3/151
f 258/3/152 250/3/152 249/3/152
f 249/3/153 248/3/153 260/3/153
f 248/3/154 247/3/154 261/3/154
f 247/3/155 246/3/155 262/3/155
f 262/3/156 246/3/156 245/3/156
f 245/3/157 244/3/157 264/3/157
f 244/3/158 243/3/158 265/3/158
f 243/3/159 242/3/159 266/3/159
f 242/3/160 278/3/160 280/3/160
f 278/3/161 277/3/161 281/3/161
f 277/3/162 276/3/162 282/3/162
f 276/3/163 275/3/163 283/3/163
f 275/3/164 274/3/164 284/3/164
f 274/3/165 273/3/165 285/3/165
f 273/3/166 272/3/166 286/3/166
f 272/3/167 271/3/167 287/3/167
f 271/3/168 270/3/168 288/3/168
f 270/3/169 269/3/169 289/3/169
f 269/3/170 268/3/170 290/3/170
f 268/3/171 267/3/171 279/3/171
f 206/2/66 292/2/66 291/1/66
f 291/1/59 292/2/59 294/2/59
f 211/3/113 295/3/113 296/3/113
f 294/2/113 298/2/113 297/1/113
f 298/2/59 300/3/59 299/3/59
f 295/3/58 301/3/58 302/3/58
f 300/3/66 302/3/66 301/3/66
f 301/3/118 295/3/118 211/3/118
f 211/3/118 293/1/118 297/1/118
f 297/1/118 299/3/118 301/3/118
f 303/3/113 304/3/113 315/3/113
f 315/2/113 304/2/113 306/2/113
f 316/3/113 305/3/113 303/3/113
f 317/3/58 308/3/58 305/3/58
f 320/3/59 319/2/59 306/2/59
f 308/3/66 317/3/66 322/3/66
f 324/3/66 320/3/66 307/3/66
f 308/3/66 322/3/66 324/3/66
f 303/3/93 305/3/93 308/3/93
f 308/3/93 307/3/93 306/2/93
f 306/2/93 304/2/93 303/3/93
f 313/3/66 302/3/66 300/3/66
f 300/3/66 314/3/66 323/3/66
f 321/3/66 313/3/66 300/3/66
f 298/2/59 311/2/59 314/3/59
f 302/3/58 313/3/58 312/3/58
f 296/3/113 312/3/113 310/3/113
f 294/2/113 309/2/113 311/2/113
f 310/3/113 309/3/113 294/3/113
f 314/3/66 320/3/66 324/3/66
f 311/2/59 319/2/59 320/3/59
f 313/3/58 317/3/58 316/3/58
f 312/3/113 316/3/113 318/3/113
f 309/2/113 315/2/113 319/2/113
f 318/3/113 315/3/113 309/3/113
f 321/3/66 322/3/66 317/3/66
f 329/3/58 326/3/58 328/3/58
f 325/3/66 327/3/66 328/3/66
f 331/3/118 325/3/118 326/3/118
f 332/3/59 327/3/59 325/3/59
f 337/3/113 336/3/113 335/3/113
f 215/16/118 216/14/118 217/12/118
f 217/12/118 218/8/118 219/6/118
f 219/6/118 220/4/118 221/1/118
f 221/1/118 222/1/118 223/1/118
f 223/1/118 224/1/118 225/1/118
f 225/1/118 226/1/118 214/1/118
f 225/1/118 214/1/118 205/1/118
f 221/1/118 223/1/118 225/1/118
f 217/12/118 219/6/118 221/1/118
f 251/3/118 252/3/118 253/3/118
f 249/3/118 250/3/118 251/3/118
f 247/3/118 248/3/118 249/3/118
f 245/3/118 246/3/118 247/3/118
f 243/3/118 244/3/118 245/3/118
f 278/3/118 242/3/118 243/3/118
f 276/3/118 277/3/118 278/3/118
f 274/3/118 275/3/118 276/3/118
f 272/3/118 273/3/118 274/3/118
f 270/3/118 271/3/118 272/3/118
f 268/3/118 269/3/118 270/3/118
f 211/3/118 267/3/118 268/3/118
f 291/1/118 293/1/118 211/3/118
f 221/1/118 225/1/118 205/1/118
f 291/1/118 211/3/118 268/3/118
f 217/12/118 221/1/118 205/1/118
f 291/1/118 268/3/118 270/3/118
f 215/16/118 217/12/118 205/1/118
f 205/1/118 291/1/118 270/3/118
f 270/3/118 272/3/118 274/3/118
f 274/3/118 276/3/118 278/3/118
f 278/3/118 243/3/118 245/3/118
f 245/3/118 247/3/118 249/3/118
f 249/3/118 251/3/118 253/3/118
f 245/3/118 249/3/118 253/3/118
f 274/3/118 278/3/118 245/3/118
f 205/1/118 270/3/118 274/3/118
f 274/3/118 245/3/118 253/3/118
f 205/1/118 274/3/118 253/3/118
f 215/16/118 205/1/118 253/3/118
f 207/3/66 203/3/66 213/3/66
f 207/3/118 213/3/118 215/16/118
f 207/3/118 215/16/118 253/3/118
f 241/3/66 209/3/66 207/3/66
f 381/3/93 330/3/93 332/3/93
f 384/3/59 332/3/59 331/3/59
f 382/3/118 383/3/118 331/3/118
f 382/3/58 329/3/58 330/3/58
f 336/3/93 334/3/93 333/3/93
f 338/3/59 335/3/59 333/3/59
f 363/3/66 358/3/66 366/3/66
f 340/3/58 334/3/58 336/3/58
f 328/3/58 340/3/58 337/3/58
f 327/3/66 339/3/66 340/3/66
f 327/3/59 332/3/59 338/3/59
f 330/3/113 337/3/113 338/3/113
f 343/3/66 341/3/66 342/3/66
f 347/3/93 342/3/93 341/3/93
f 357/3/66 361/3/66 367/3/66
f 347/3/93 355/3/93 353/3/93
f 333/3/59 348/3/59 345/3/59
f 340/3/58 346/3/58 347/3/58
f 334/3/93 347/3/93 348/3/93
f 339/3/118 345/3/118 346/3/118
f 349/3/59 350/3/59 352/3/59
f 348/3/93 341/3/93 349/3/93
f 345/3/113 348/3/113 351/3/113
f 341/3/66 343/3/66 350/3/66
f 356/3/58 354/3/58 353/3/58
f 353/3/66 354/3/66 344/3/66
f 356/3/113 355/3/113 347/3/113
f 366/3/66 358/3/66 357/3/66
f 359/3/118 357/3/118 358/3/118
f 357/3/118 359/3/118 362/3/118
f 360/3/118 358/3/118 363/3/118
f 360/3/118 363/3/118 375/3/118
f 373/3/118 364/3/118 360/3/118
f 376/3/58 375/3/58 363/3/58
f 370/3/113 359/3/113 360/3/113
f 360/3/113 364/3/113 369/3/113
f 362/3/113 359/3/113 370/3/113
f 361/3/59 362/3/59 372/3/59
f 367/3/59 372/3/59 352/3/59
f 372/3/113 370/3/113 345/3/113
f 346/3/113 371/3/113 369/3/113
f 345/3/113 370/3/113 371/3/113
f 354/3/58 356/3/58 369/3/58
f 354/3/58 369/3/58 374/3/58
f 376/3/58 368/3/58 354/3/58
f 344/3/66 366/3/66 365/3/66
f 365/3/66 367/3/66 350/3/66
f 368/3/66 366/3/66 344/3/66
f 364/3/58 373/3/58 374/3/58
f 377/3/118 378/3/118 373/3/118
f 379/3/66 377/3/66 375/3/66
f 380/3/93 379/3/93 376/3/93
f 378/3/113 380/3/113 374/3/113
f 386/3/113 382/3/113 381/3/113
f 387/3/66 383/3/66 382/3/66
f 388/3/113 384/3/113 383/3/113
f 388/3/66 385/3/66 381/3/66
f 322/3/93 385/3/93 388/3/93
f 324/3/59 388/3/59 387/3/59
f 323/3/118 387/3/118 386/3/118
f 321/3/58 386/3/58 385/3/58
f 391/3/59 389/3/59 377/3/59
f 394/3/113 396/3/113 392/3/113
f 392/3/59 391/3/59 379/3/59
f 378/3/59 390/3/59 392/3/59
f 389/3/59 390/3/59 378/3/59
f 398/3/58 400/3/58 396/3/58
f 393/3/118 394/3/118 390/3/118
f 395/3/66 393/3/66 389/3/66
f 396/3/93 395/3/93 391/3/93
f 403/3/66 401/3/66 397/3/66
f 393/3/58 397/3/58 398/3/58
f 395/3/58 399/3/58 397/3/58
f 400/3/58 399/3/58 395/3/58
f 404/3/93 403/3/93 399/3/93
f 402/3/113 404/3/113 400/3/113
f 401/3/118 402/3/118 398/3/118
f 2/15/59 204/15/59 203/3/59
f 6/3/113 5/3/113 207/3/113
f 6/3/118 208/3/118 210/3/118
f 25/2/118 227/2/118 229/2/118
f 27/2/118 229/2/118 230/2/118
f 28/2/118 230/2/118 231/2/118
f 29/2/118 231/2/118 232/2/118
f 30/2/118 232/2/118 233/2/118
f 31/2/118 233/2/118 234/2/118
f 32/2/118 234/2/118 235/5/118
f 33/5/118 235/5/118 236/7/118
f 34/7/118 236/7/118 237/10/118
f 36/9/118 35/10/118 237/10/118
f 37/11/118 36/9/118 238/9/118
f 38/13/118 37/11/118 239/11/118
f 26/15/118 38/13/118 240/13/118
f 2/15/93 26/15/93 228/15/93
f 4/2/118 206/2/118 227/2/118
f 52/3/118 254/3/118 255/3/118
f 54/3/118 53/3/118 255/3/118
f 55/3/118 54/3/118 256/3/118
f 56/3/118 55/3/118 257/3/118
f 57/3/118 56/3/118 258/3/118
f 58/3/118 57/3/118 259/3/118
f 59/3/118 58/3/118 260/3/118
f 60/3/118 59/3/118 261/3/118
f 61/3/118 60/3/118 262/3/118
f 62/3/118 61/3/118 263/3/118
f 62/3/118 264/3/118 265/3/118
f 63/3/118 265/3/118 266/3/118
f 64/3/118 266/3/118 280/3/118
f 79/3/118 78/3/118 280/3/118
f 79/3/118 281/3/118 282/3/118
f 80/3/118 282/3/118 283/3/118
f 82/3/118 81/3/118 283/3/118
f 83/3/118 82/3/118 284/3/118
f 84/3/118 83/3/118 285/3/118
f 85/3/118 84/3/118 286/3/118
f 86/3/118 85/3/118 287/3/118
f 87/3/118 86/3/118 288/3/118
f 88/3/118 87/3/118 289/3/118
f 77/3/118 88/3/118 290/3/118
f 52/3/118 8/3/118 210/3/118
f 10/3/118 77/3/118 279/3/118
f 90/2/118 292/2/118 206/2/118
f 92/2/118 294/2/118 292/2/118
f 10/3/93 212/3/93 294/3/93
f 1/3/278 203/3/278 207/3/278
f 199/3/59 200/3/59 402/3/59
f 201/3/59 403/3/59 404/3/59
f 200/3/173 202/3/173 404/3/173
f 199/3/59 401/3/59 403/3/59
